<svg width="1280" height="720" viewBox="0 0 1280 720" fill="none" xmlns="http://www.w3.org/2000/svg">
<rect width="1280" height="720" fill="#0594B4"/>
<ellipse cx="648.5" cy="681" rx="631.5" ry="20" fill="#026F8E" fill-opacity="0.5"/>
<path d="M67.5264 249.246C67.5264 240.961 74.2421 234.246 82.5264 234.246H249.459C257.743 234.246 264.459 240.961 264.459 249.246V260.839H67.5264V249.246Z" fill="white"/>
<path d="M68.2451 554.92C68.2451 561.547 73.6177 566.92 80.2451 566.92H252.75C259.377 566.92 264.75 561.547 264.75 554.92V541.862H68.2451V554.92Z" fill="white"/>
<rect x="64.999" y="232" width="201.78" height="337.619" rx="15" stroke="white" stroke-width="12"/>
<rect x="150.903" y="245.369" width="31.2894" height="4.91295" rx="2.45647" stroke="black" stroke-width="3"/>
<rect x="153.117" y="547.675" width="27.1867" height="12.8121" rx="6.40603" stroke="black" stroke-width="3"/>
<rect x="81.9014" y="339.18" width="48.1549" height="48.1549" rx="10" fill="#D0CCCC" stroke="white" stroke-width="5"/>
<rect x="143.712" y="339.18" width="48.8737" height="48.1549" rx="10" fill="#D0CCCC" stroke="white" stroke-width="5"/>
<rect x="206.241" y="339.18" width="48.1549" height="48.1549" rx="10" fill="#D0CCCC" stroke="white" stroke-width="5"/>
<rect x="81.9014" y="398.116" width="48.1549" height="48.1549" rx="10" fill="#D0CCCC" stroke="white" stroke-width="5"/>
<rect x="143.712" y="398.116" width="48.8737" height="48.1549" rx="10" fill="#D0CCCC" stroke="white" stroke-width="5"/>
<rect x="206.241" y="398.116" width="48.1549" height="48.1549" rx="10" fill="#D0CCCC" stroke="white" stroke-width="5"/>
<rect x="81.9014" y="458.49" width="48.1549" height="48.1549" rx="10" fill="#D0CCCC" stroke="white" stroke-width="5"/>
<rect x="143.712" y="468.552" width="48.8737" height="48.1549" rx="10" fill="#D0CCCC" stroke="white" stroke-width="5"/>
<rect x="209.794" y="479.834" width="48.1549" height="48.1549" rx="10" transform="rotate(7.93126 209.794 479.834)" fill="#D0CCCC" stroke="white" stroke-width="5"/>
<g clip-path="url(#clip0)">
<path d="M181.292 441.957C181.187 441.958 181.082 441.959 180.977 441.959C175.68 441.959 170.542 440.922 165.704 438.875C161.032 436.899 156.836 434.07 153.232 430.466L153.203 430.437C152.164 429.396 152.166 427.703 153.206 426.663L154.719 425.149C155.225 424.643 155.9 424.365 156.619 424.365H156.62C157.339 424.365 158.014 424.644 158.521 425.15L158.548 425.178C158.764 425.394 159.052 425.513 159.359 425.513H159.374C159.69 425.509 159.985 425.381 160.204 425.152L163.287 421.927C163.6 421.6 164.021 421.417 164.473 421.412H164.492C164.937 421.412 165.354 421.585 165.67 421.9C166.324 422.555 166.336 423.631 165.697 424.3L163.478 426.621C163.28 426.828 163.269 427.156 163.454 427.35C163.553 427.454 163.685 427.51 163.826 427.51H163.827C163.968 427.51 164.1 427.454 164.197 427.352L164.896 426.621C165.533 425.955 166.566 425.898 167.248 426.491C167.601 426.798 167.807 427.223 167.829 427.689C167.85 428.149 167.68 428.603 167.362 428.936L166.855 429.466C166.594 429.738 166.484 430.108 166.551 430.479C166.617 430.848 166.848 431.152 167.184 431.314C171.503 433.402 176.144 434.46 180.977 434.46C181.071 434.46 181.164 434.46 181.258 434.459C181.975 434.452 182.646 434.727 183.154 435.23C183.664 435.736 183.945 436.41 183.945 437.128V439.286C183.945 440.747 182.755 441.945 181.292 441.957V441.957ZM182.767 437.128C182.767 436.727 182.61 436.35 182.325 436.068C182.042 435.787 181.665 435.631 181.269 435.638C181.171 435.639 181.074 435.639 180.977 435.639C175.965 435.639 171.151 434.541 166.672 432.376C165.992 432.048 165.526 431.433 165.391 430.689C165.256 429.943 165.479 429.2 166.003 428.652L166.51 428.122C166.608 428.02 166.658 427.885 166.652 427.744C166.645 427.603 166.583 427.473 166.475 427.38C166.272 427.203 165.946 427.228 165.748 427.436L165.049 428.167C164.731 428.499 164.286 428.689 163.826 428.689C163.826 428.689 163.826 428.689 163.825 428.689C163.358 428.689 162.924 428.502 162.601 428.163C161.978 427.509 161.989 426.474 162.626 425.807L164.845 423.486C165.042 423.28 165.038 422.936 164.837 422.734C164.743 422.64 164.617 422.591 164.486 422.59C164.354 422.591 164.231 422.645 164.138 422.741L161.055 425.966C160.616 426.426 160.023 426.683 159.387 426.691C159.378 426.691 159.368 426.691 159.359 426.691C158.737 426.691 158.154 426.45 157.717 426.013L157.707 426.004L157.701 425.998L157.687 425.983C157.403 425.7 157.024 425.543 156.619 425.543C156.619 425.543 156.619 425.543 156.619 425.543C156.215 425.543 155.836 425.699 155.552 425.983L154.038 427.497C153.457 428.078 153.457 429.023 154.038 429.606L154.066 429.634C157.561 433.13 161.631 435.874 166.163 437.791C170.855 439.775 175.839 440.781 180.977 440.781C181.078 440.781 181.18 440.781 181.281 440.78H181.281C182.1 440.772 182.767 440.103 182.767 439.287V437.128Z" fill="black"/>
<path d="M182.159 432.968C181.834 432.968 181.57 432.704 181.57 432.379V403.338C181.57 403.062 181.359 402.953 181.295 402.926C181.23 402.9 181.005 402.827 180.809 403.023L160.096 423.735C159.866 423.965 159.493 423.965 159.263 423.735C159.033 423.505 159.033 423.132 159.263 422.902L179.976 402.19C180.291 401.875 180.696 401.71 181.114 401.71C181.324 401.71 181.539 401.752 181.746 401.838C182.364 402.094 182.748 402.669 182.748 403.338V432.379C182.748 432.704 182.484 432.968 182.159 432.968V432.968Z" fill="black"/>
<path d="M177.693 433.723C176.276 433.723 175.124 432.57 175.124 431.154C175.124 429.737 176.276 428.585 177.693 428.585C179.11 428.585 180.262 429.737 180.262 431.154C180.262 432.57 179.11 433.723 177.693 433.723ZM177.693 429.763C176.926 429.763 176.302 430.387 176.302 431.154C176.302 431.921 176.926 432.545 177.693 432.545C178.46 432.545 179.084 431.921 179.084 431.154C179.084 430.387 178.46 429.763 177.693 429.763Z" fill="black"/>
<path d="M167.568 418.522C167.568 417.21 168.636 416.143 169.948 416.143C171.26 416.143 172.327 417.21 172.327 418.522C172.327 419.834 171.26 420.901 169.948 420.901C168.636 420.901 167.568 419.834 167.568 418.522V418.522ZM169.948 419.723C170.61 419.723 171.149 419.184 171.149 418.522C171.149 417.86 170.61 417.321 169.948 417.321C169.286 417.321 168.746 417.86 168.746 418.522C168.746 419.184 169.286 419.723 169.948 419.723Z" fill="black"/>
<path d="M178.541 421.255C177.182 421.255 176.077 420.15 176.077 418.792C176.077 417.433 177.182 416.329 178.541 416.329C179.899 416.329 181.004 417.433 181.004 418.792C181.004 420.15 179.898 421.255 178.541 421.255ZM178.541 417.507C177.832 417.507 177.255 418.083 177.255 418.792C177.255 419.5 177.832 420.077 178.541 420.077C179.249 420.077 179.825 419.5 179.825 418.792C179.825 418.083 179.249 417.507 178.541 417.507Z" fill="black"/>
<path d="M180.533 411.669C180.533 413.116 179.355 414.294 177.908 414.294H177.475C176.028 414.294 174.851 413.116 174.851 411.669C174.851 411.041 175.362 410.53 175.989 410.53H176.144L176.119 410.069C176.104 409.783 176.208 409.499 176.406 409.291C176.603 409.083 176.881 408.963 177.168 408.963H178.216C178.503 408.963 178.78 409.083 178.978 409.291C179.175 409.499 179.28 409.783 179.264 410.069L179.24 410.53H179.394C180.022 410.53 180.533 411.041 180.533 411.669V411.669ZM178.846 411.708C178.626 411.708 178.413 411.617 178.262 411.457C178.11 411.298 178.031 411.08 178.042 410.861L178.081 410.142H177.303L177.341 410.861C177.353 411.081 177.273 411.298 177.121 411.457C176.97 411.617 176.758 411.708 176.538 411.708H176.029C176.05 412.488 176.691 413.115 177.475 413.115H177.908C178.693 413.115 179.333 412.488 179.354 411.708H178.846Z" fill="black"/>
<path d="M172.347 429.364C170.699 429.364 169.358 428.024 169.358 426.376V425.866C169.358 424.218 170.699 422.878 172.347 422.878C173.029 422.878 173.583 423.432 173.583 424.114V424.407L174.238 424.373C174.547 424.356 174.852 424.469 175.077 424.682C175.301 424.895 175.43 425.194 175.43 425.503V426.739C175.43 427.048 175.301 427.348 175.077 427.56C174.852 427.773 174.546 427.886 174.238 427.869L173.583 427.835V428.128C173.583 428.81 173.029 429.364 172.347 429.364ZM174.252 426.69V425.552L173.293 425.603C173.062 425.614 172.835 425.531 172.668 425.373C172.501 425.214 172.405 424.991 172.405 424.761V424.115C172.405 424.082 172.379 424.056 172.347 424.056C171.349 424.056 170.537 424.868 170.537 425.866V426.376C170.537 427.374 171.349 428.187 172.347 428.187C172.379 428.187 172.405 428.16 172.405 428.128V427.481C172.405 427.251 172.501 427.028 172.668 426.869C172.835 426.711 173.063 426.628 173.293 426.64L174.252 426.69Z" fill="black"/>
</g>
<g clip-path="url(#clip1)">
<path d="M106.336 409.257C95.24 409.257 86.2119 415.681 86.2119 423.576C86.2119 428.52 89.7027 434.412 106.336 434.412C122.97 434.412 126.461 428.52 126.461 423.576C126.461 415.681 117.433 409.257 106.336 409.257V409.257ZM106.336 431.897C98.3033 431.897 88.7274 430.453 88.7274 423.576C88.7274 419.683 91.5658 416.235 95.9149 414.083C98.0222 417.04 98.7897 420.577 98.7897 420.577C100.528 420.109 100.217 415.14 99.3121 412.758C100.776 412.33 102.345 412.038 103.983 411.89C106.651 414.973 107.594 419.319 107.594 419.319C109.251 418.873 109.048 414.331 108.242 411.844C109.567 411.94 110.842 412.143 112.063 412.426C115.275 415.494 116.399 420.577 116.399 420.577C117.797 420.2 117.87 416.906 117.374 414.392C121.376 416.558 123.945 419.868 123.945 423.576C123.945 430.453 114.369 431.897 106.336 431.897V431.897Z" fill="black"/>
</g>
<path d="M157.876 379.922V361.513L156.543 363.822L156.544 363.823C156.388 364.093 156.043 364.185 155.773 364.03C155.758 364.021 155.743 364.011 155.729 364.001L149.679 360.508L149.959 360.021L149.677 360.51C149.407 360.354 149.314 360.009 149.47 359.739C149.479 359.724 149.489 359.709 149.499 359.695L155.109 349.977L155.108 349.975C155.178 349.853 155.286 349.768 155.409 349.724L161.336 347.317C161.587 347.215 161.868 347.306 162.015 347.521C162.015 347.521 164.563 351.024 167.429 351.039C170.319 351.055 172.906 347.502 172.906 347.502C173.068 347.283 173.359 347.216 173.596 347.328L179.521 349.734L179.521 349.734C179.66 349.79 179.764 349.895 179.822 350.021L185.433 359.74L185.435 359.739C185.591 360.009 185.499 360.354 185.229 360.51C185.213 360.519 185.198 360.527 185.182 360.534L179.131 364.027L179.133 364.03C178.863 364.185 178.518 364.093 178.362 363.823C178.355 363.812 178.349 363.8 178.344 363.789L177.03 361.513V379.922C177.03 380.234 176.777 380.487 176.466 380.487H158.44C158.128 380.487 157.876 380.234 157.876 379.922Z" fill="black"/>
<g clip-path="url(#clip2)">
<path d="M119.957 350.986C119.936 350.97 118.873 350.195 118.074 351.217C115.517 354.499 107.023 365.298 102.909 369.12C99.3158 372.46 96.1579 370.557 94.7407 369.325V369.328C94.7407 369.328 94.0141 368.573 92.3514 369.092C92.3475 369.093 92.3475 369.093 92.3436 369.093C91.6692 369.315 90.7523 369.598 89.5153 369.958C87.7622 370.465 87.2176 371.784 87.1592 373.045C87.1923 373.464 87.3989 375.364 88.4608 376.629C90.3952 378.609 94.1741 380.659 98.1821 381.088C102.811 381.579 103.943 379.658 103.943 379.658C103.943 379.658 106.767 375.839 109.412 371.955C109.414 371.952 109.418 371.95 109.42 371.946C111.704 368.657 114.406 367.005 114.464 366.969C114.62 366.9 114.77 366.836 114.914 366.782C115.207 366.695 116.789 366.324 116.92 368.476L117.592 379.971L117.596 380.119C117.596 380.119 117.596 380.121 117.596 380.124L117.602 380.333C117.629 380.64 117.768 381.17 118.416 381.171C119.023 381.159 119.102 380.482 119.108 380.207V380.089C119.354 377.089 120.43 365.934 121.425 363.9C124.806 356.159 121.777 352.417 119.957 350.986Z" fill="#241F20"/>
<g clip-path="url(#clip3)">
<path d="M286.115 275.075C278.32 231.808 236.926 203.051 193.658 210.846C189.006 211.684 184.439 212.935 180.009 214.583C145.154 228.199 109.204 238.828 72.5476 246.355C35.5755 252.128 -1.82007 254.748 -39.2361 254.187C-83.2 254.23 -118.805 289.905 -118.763 333.869C-118.758 338.588 -118.333 343.297 -117.495 347.941L-108.63 397.046C-108.327 398.721 -107.866 400.335 -107.462 401.976L-107.731 402.024L-92.8245 484.592C-85.0297 527.86 -43.6357 556.616 -0.368099 548.821C4.28402 547.983 8.85098 546.733 13.2807 545.085C48.1381 531.473 84.0878 520.844 120.742 513.313C157.715 507.544 195.111 504.924 232.526 505.481C276.49 505.438 312.095 469.763 312.053 425.798C312.048 421.08 311.624 416.37 310.785 411.727L295.872 329.122L295.603 329.17C295.408 327.492 295.275 325.818 294.973 324.144L286.115 275.075V275.075ZM295.836 414.426C302.171 449.432 278.927 482.945 243.921 489.279C240.159 489.961 236.343 490.305 232.519 490.308C194.201 489.743 155.905 492.438 118.044 498.364C80.5007 506.051 43.6792 516.917 7.97794 530.846C-25.3638 543.251 -62.4493 526.277 -74.8533 492.935C-76.1862 489.352 -77.1976 485.657 -77.876 481.894L-85.3973 440.232C-80.6802 444.804 -75.4137 448.775 -69.719 452.05C-49.2452 463.76 -24.6243 465.758 -2.53103 457.502C32.3267 443.891 68.2769 433.265 104.932 425.737C141.905 419.967 179.3 417.347 216.716 417.905C247.305 417.977 275.192 400.396 288.315 372.764L295.836 414.426V414.426ZM280.031 326.88C286.366 361.886 263.122 395.399 228.116 401.734C224.354 402.415 220.538 402.759 216.714 402.763C178.395 402.186 140.097 404.871 102.233 410.788C64.6898 418.472 27.8679 429.336 -7.83379 443.263C-41.1755 455.667 -78.2611 438.694 -90.665 405.352C-91.9938 401.78 -93.003 398.098 -93.681 394.348L-102.546 345.242C-108.872 310.226 -85.6136 276.712 -50.5976 270.385C-46.8455 269.708 -43.042 269.364 -39.2292 269.359C-0.91116 269.925 37.3855 267.23 75.2463 261.304C112.789 253.617 149.611 242.751 185.312 228.822C218.666 216.424 255.755 233.412 268.152 266.765C269.48 270.338 270.489 274.022 271.166 277.774L280.031 326.88V326.88Z" fill="black"/>
</g>
</g>
<g clip-path="url(#clip4)">
<path d="M243.05 496.921C239.518 495.164 237.982 497.05 232.772 496.136C227.562 495.222 226.76 492.918 222.84 493.376C218.922 493.826 216.378 497.408 213.333 504.433C210.287 511.467 209.681 516.824 211.582 518.175C213.483 519.526 216.219 517.672 218.941 515.268C221.134 513.395 222.063 513.412 229.513 514.719C236.954 516.024 237.715 516.217 239.266 518.832C241.008 522.02 242.95 524.695 245.197 524.071C247.444 523.448 248.697 518.203 248.226 510.553C247.754 502.911 246.571 498.684 243.05 496.921ZM219.962 506.861C218.162 506.546 216.96 504.821 217.278 503.004C217.595 501.196 219.314 499.975 221.115 500.291C222.915 500.607 224.116 502.339 223.799 504.148C223.482 505.956 221.763 507.177 219.962 506.861ZM235.312 507.835C234.433 507.68 233.837 506.832 233.993 505.944C234.149 505.057 234.997 504.462 235.877 504.616C236.764 504.772 237.359 505.62 237.204 506.508C237.04 507.394 236.2 507.99 235.312 507.835ZM238.196 511.966C237.317 511.812 236.721 510.964 236.877 510.076C237.034 509.18 237.881 508.593 238.761 508.747C239.648 508.903 240.243 509.751 240.088 510.639C239.931 511.535 239.084 512.122 238.196 511.966ZM239.431 504.923C238.552 504.769 237.957 503.92 238.112 503.033C238.268 502.145 239.116 501.55 239.996 501.704C240.884 501.86 241.479 502.708 241.323 503.596C241.167 504.483 240.319 505.079 239.431 504.923ZM242.322 509.064C241.434 508.908 240.848 508.062 241.003 507.174C241.159 506.286 242.007 505.691 242.887 505.845C243.766 506 244.361 506.848 244.206 507.736C244.05 508.623 243.21 509.22 242.322 509.064Z" fill="black"/>
</g>
<path d="M212.708 374.039C213.57 366.277 217.619 354.034 219.536 348.883H241.098C245.123 357.508 247.327 369.247 247.926 374.039L233.551 377.992L230.317 366.852L227.083 377.992L212.708 374.039Z" fill="black"/>
<path d="M248.76 374.182C248.586 372.528 248.308 370.77 247.962 369.001C247.962 368.966 247.95 368.92 247.938 368.885C245.984 359.02 241.878 348.379 241.82 348.252C241.705 347.951 241.392 347.766 241.069 347.813C233.979 348.877 226.774 348.877 219.684 347.813C219.36 347.766 219.048 347.94 218.932 348.252C218.886 348.379 214.769 359.02 212.814 368.885C212.802 368.92 212.791 368.966 212.791 369.001C212.444 370.782 212.166 372.528 211.993 374.182C211.958 374.517 212.178 374.83 212.502 374.922L227.097 378.831C227.282 378.877 227.467 378.854 227.629 378.762C227.791 378.669 227.907 378.507 227.953 378.334L230.382 368.573L232.811 378.334C232.857 378.519 232.973 378.669 233.135 378.762C233.239 378.82 233.366 378.854 233.482 378.854C233.539 378.854 233.597 378.843 233.667 378.831L248.251 374.922C248.575 374.83 248.783 374.517 248.76 374.182ZM226.774 377.305L213.45 373.731C213.589 372.551 213.774 371.337 214.005 370.099C216.168 371.129 222.159 373.731 227.618 373.927L226.774 377.305ZM230.382 364.999C230.058 364.999 229.781 365.219 229.711 365.531L227.965 372.551C222.46 372.447 216.041 369.544 214.283 368.7C215.983 360.326 219.21 351.479 220.042 349.281C226.912 350.253 233.863 350.253 240.733 349.281C241.554 351.479 244.781 360.326 246.493 368.7C244.735 369.544 238.327 372.447 232.811 372.551L231.064 365.531C230.983 365.219 230.706 364.999 230.382 364.999ZM233.99 377.305L233.146 373.916C238.605 373.719 244.584 371.117 246.759 370.088C246.99 371.325 247.175 372.551 247.314 373.719L233.99 377.305Z" fill="black"/>
<path d="M227.618 373.927C222.16 373.731 216.169 371.129 214.006 370.099L214.283 368.7C216.041 369.544 222.46 372.447 227.965 372.551L227.618 373.927Z" fill="white"/>
<path d="M232.811 372.551C238.328 372.447 244.735 369.544 246.493 368.7L246.759 370.088C244.585 371.117 238.606 373.719 233.147 373.916L232.811 372.551Z" fill="white"/>
<path d="M228.533 350.947C228.209 351.143 228.093 351.571 228.29 351.895C228.301 351.918 229.573 354.081 228.694 355.955C228.29 356.81 227.734 357.539 227.191 358.233C226.381 359.286 225.606 360.292 225.606 361.518C225.606 361.899 225.919 362.212 226.3 362.212C226.682 362.212 226.994 361.899 226.994 361.518C226.994 360.754 227.596 359.979 228.29 359.077C228.845 358.36 229.481 357.539 229.944 356.544C231.146 354 229.55 351.294 229.481 351.178C229.296 350.866 228.868 350.75 228.533 350.947Z" fill="white"/>
<path d="M233.216 361.992C232.973 360.997 233.216 360.014 233.517 358.765C233.702 358.036 233.898 357.204 234.037 356.244C234.454 353.318 232.256 351.143 232.164 351.051C231.886 350.785 231.447 350.796 231.181 351.062C230.914 351.34 230.914 351.78 231.192 352.046C231.215 352.069 232.985 353.827 232.661 356.047C232.534 356.938 232.349 357.701 232.164 358.43C231.828 359.806 231.527 360.997 231.863 362.327C231.944 362.64 232.221 362.859 232.534 362.859C232.591 362.859 232.649 362.848 232.696 362.836C233.089 362.732 233.309 362.362 233.216 361.992Z" fill="white"/>
<g clip-path="url(#clip5)">
<path d="M237.765 416.689C237.523 416.545 237.276 416.397 237.023 416.236L237.025 414.168H237.025C237.489 414.168 237.864 413.793 237.864 413.329V408.298C237.864 405.062 235.23 402.429 231.994 402.429H222.77C221.845 402.429 221.093 403.181 221.093 404.106H219.416C218.491 404.106 217.739 404.858 217.739 405.783V407.46C217.739 408.384 218.491 409.137 219.416 409.137H221.093C221.093 410.061 221.845 410.814 222.77 410.814H223.719L221.234 414.541C221.062 414.798 221.046 415.129 221.193 415.402C221.339 415.675 221.622 415.845 221.932 415.845H223.609C223.791 415.845 223.967 415.786 224.112 415.677L229.478 411.652V413.329C229.478 413.793 229.853 414.168 230.317 414.168V416.241L230.229 416.303C227.127 418.416 224.447 420.242 224.447 433.454V439.324C224.447 441.173 225.952 442.678 227.801 442.678H239.541C241.39 442.678 242.895 441.173 242.895 439.323V433.454C242.895 420.415 240.946 418.589 237.765 416.689ZM221.093 407.46H219.416V405.783H221.093V407.46ZM223.668 413.914L225.735 410.814H227.802L223.668 413.914ZM222.77 409.137V404.106H231.994C234.306 404.106 236.187 405.987 236.187 408.298V412.491H231.155V409.975C231.155 409.512 230.78 409.137 230.317 409.137H222.77ZM231.172 417.688L231.632 417.373C231.86 417.217 231.994 416.959 231.994 416.684V414.168H235.348L235.346 416.684C235.346 416.96 235.481 417.217 235.708 417.375C236.116 417.657 236.516 417.897 236.906 418.13C238.876 419.306 240.507 420.29 241.035 427.584H226.349C226.981 420.545 228.881 419.249 231.172 417.688ZM241.218 439.323C241.218 440.248 240.466 441 239.541 441H227.801C226.876 441 226.124 440.248 226.124 439.323V437.646H241.218V439.323V439.323ZM241.218 435.969H226.124V433.454C226.124 431.889 226.161 430.501 226.23 429.261H241.133C241.188 430.5 241.218 431.887 241.218 433.454V435.969H241.218Z" fill="black"/>
<path d="M216.062 406.621C216.062 406.158 215.687 405.783 215.224 405.783H213.547C213.083 405.783 212.708 406.158 212.708 406.621C212.708 407.085 213.083 407.46 213.547 407.46H215.224C215.687 407.46 216.062 407.085 216.062 406.621Z" fill="black"/>
<path d="M214.01 404.017L215.686 404.856C215.805 404.916 215.935 404.944 216.061 404.944C216.367 404.944 216.664 404.775 216.811 404.481C217.017 404.067 216.85 403.563 216.436 403.356L214.76 402.517C214.353 402.313 213.843 402.477 213.635 402.892C213.429 403.306 213.596 403.81 214.01 404.017Z" fill="black"/>
<path d="M215.687 408.387L214.01 409.225C213.596 409.432 213.429 409.936 213.635 410.35C213.783 410.644 214.079 410.814 214.385 410.814C214.511 410.814 214.639 410.785 214.76 410.725L216.437 409.887C216.852 409.68 217.019 409.176 216.812 408.762C216.604 408.347 216.103 408.182 215.687 408.387Z" fill="black"/>
</g>
<g clip-path="url(#clip6)">
<path d="M150.179 485.083C150.179 483.106 151.796 481.489 153.772 481.489H182.522C183.475 481.489 184.389 481.868 185.063 482.542C185.737 483.216 186.115 484.13 186.115 485.083V499.457C186.115 500.41 185.737 501.324 185.063 501.998C184.389 502.672 183.475 503.051 182.522 503.051H153.772C152.819 503.051 151.905 502.672 151.231 501.998C150.557 501.324 150.179 500.41 150.179 499.457V485.083ZM153.772 485.083V488.676H157.366V485.083H153.772ZM155.569 490.473V494.067H159.163V490.473H155.569ZM153.772 495.864V499.457H157.366V495.864H153.772ZM159.163 495.864V499.457H177.131V495.864H159.163ZM178.928 495.864V499.457H182.522V495.864H178.928ZM160.96 490.473V494.067H164.553V490.473H160.96ZM166.35 490.473V494.067H169.944V490.473H166.35ZM171.741 490.473V494.067H175.334V490.473H171.741ZM177.131 490.473V494.067H180.725V490.473H177.131ZM159.163 485.083V488.676H162.756V485.083H159.163ZM164.553 485.083V488.676H168.147V485.083H164.553ZM169.944 485.083V488.676H173.537V485.083H169.944ZM175.334 485.083V488.676H182.522V485.083H175.334Z" fill="black"/>
</g>
<g clip-path="url(#clip7)">
<path d="M105.863 475.464C105.556 475.632 105.347 475.959 105.347 476.332V479.208C105.347 479.582 105.556 479.908 105.863 480.077C105.876 480.083 105.89 480.089 105.903 480.096V480.077C106.032 480.153 106.181 480.198 106.337 480.198C106.493 480.198 106.641 480.153 106.769 480.077V480.096C106.783 480.089 106.797 480.083 106.81 480.077C107.117 479.908 107.326 479.582 107.326 479.208V476.332C107.326 475.959 107.117 475.632 106.81 475.464C106.797 475.457 106.783 475.451 106.769 475.445V475.464C106.641 475.388 106.492 475.342 106.337 475.342C106.181 475.342 106.032 475.388 105.903 475.464V475.445C105.89 475.451 105.876 475.457 105.863 475.464Z" fill="black"/>
<path d="M95.8223 480.785V482.729C98.8137 484.418 102.249 485.406 105.903 485.478V483.084C105.89 483.08 105.877 483.078 105.863 483.074C105.07 482.863 104.482 482.137 104.482 481.28V476.332C104.482 475.475 105.07 474.749 105.863 474.539C105.877 474.535 105.891 474.532 105.903 474.529V472.126H104.481C99.7193 472.126 95.8223 476.023 95.8223 480.785Z" fill="black"/>
<path d="M108.193 472.126H106.77V474.529C106.783 474.532 106.797 474.535 106.81 474.538C107.604 474.749 108.193 475.475 108.193 476.332V481.28C108.193 482.137 107.604 482.863 106.81 483.073C106.797 483.077 106.783 483.079 106.77 483.083V485.478C110.425 485.405 113.86 484.417 116.851 482.729V480.785C116.851 476.023 112.954 472.126 108.193 472.126Z" fill="black"/>
<path d="M95.8223 483.716V494.391C95.8223 499.154 99.7195 503.051 104.481 503.051H108.193C112.955 503.051 116.851 499.154 116.851 494.391V483.716C113.717 485.397 110.135 486.352 106.337 486.352C102.538 486.352 98.9569 485.398 95.8223 483.716Z" fill="black"/>
<path d="M107.066 468.313C107.263 467.849 107.546 467.437 107.908 467.087L107.971 467.027C108.417 466.595 108.766 466.087 109.009 465.516C109.251 464.945 109.373 464.34 109.373 463.72V461.365H108.508V463.72C108.508 464.223 108.408 464.714 108.211 465.178C108.015 465.641 107.731 466.054 107.37 466.404L107.306 466.465C106.86 466.896 106.511 467.404 106.269 467.976C106.027 468.547 105.903 469.151 105.903 469.771V472.127H106.77V469.771C106.77 469.268 106.87 468.777 107.066 468.313Z" fill="black"/>
</g>
<path d="M40 299.86L70.333 260.955H98.6877L75.6083 299.86V317.664C75.6083 317.664 64.8764 328.085 56.4853 327.555C48.9924 327.082 40 317.664 40 317.664V299.86Z" fill="#005CBE"/>
<path d="M75.6084 299.86L98.6878 260.955H125.724L111.876 299.86V317.664C111.876 317.664 101.144 328.745 92.7531 328.215C85.2602 327.742 75.6084 317.664 75.6084 317.664V299.86Z" fill="#CE352F"/>
<path d="M111.876 299.86L125.724 260.955H152.1L147.484 299.86V318.324C147.484 318.324 136.752 328.085 128.361 327.555C120.868 327.082 111.876 317.664 111.876 317.664V299.86Z" fill="#005CBE"/>
<path d="M291.237 300.52L260.904 260.955H232.55L254.97 300.52V318.324C254.97 318.324 266.361 328.745 274.752 328.215C282.245 327.742 291.237 318.324 291.237 318.324V300.52Z" fill="#005CBE"/>
<path d="M254.968 300.52L232.548 260.955H205.512L219.36 301.179V318.324C219.36 318.324 230.091 329.404 238.482 328.874C245.975 328.401 254.968 318.324 254.968 318.324V300.52Z" fill="#CE352F"/>
<path d="M219.36 300.52L205.513 260.955H180.455L183.752 300.52V318.324C183.752 318.324 194.484 328.745 202.875 328.215C210.368 327.742 219.36 318.324 219.36 318.324V300.52Z" fill="#005CBE"/>
<path d="M147.484 300.52L152.1 260.955H180.455L183.752 300.52V318.324C183.752 318.324 172.361 328.745 163.97 328.215C156.477 327.742 147.484 318.324 147.484 318.324V300.52Z" fill="#CE352F"/>
<path d="M40 317.664V300.52H75.6083V317.664C75.6083 317.664 64.8764 328.085 56.4853 327.555C48.9924 327.082 40 317.664 40 317.664Z" fill="#054E9B"/>
<path d="M75.6084 317.664V300.52H111.876V317.664C111.876 317.664 101.144 328.745 92.7531 328.215C85.2602 327.742 75.6084 317.664 75.6084 317.664Z" fill="#B30C05"/>
<path d="M111.876 317.664V300.52H147.484V318.324C147.484 318.324 136.752 328.085 128.361 327.555C120.868 327.082 111.876 317.664 111.876 317.664Z" fill="#054E9B"/>
<path d="M291.236 318.324V300.52H254.969V318.324C254.969 318.324 266.36 328.745 274.751 328.215C282.244 327.742 291.236 318.324 291.236 318.324Z" fill="#054E9B"/>
<path d="M254.968 318.324V300.52H219.36V318.324C219.36 318.324 230.091 329.404 238.482 328.874C245.975 328.401 254.968 318.324 254.968 318.324Z" fill="#B20C05"/>
<path d="M219.36 318.324V300.52H183.752V318.324C183.752 318.324 194.484 328.745 202.875 328.215C210.368 327.742 219.36 318.324 219.36 318.324Z" fill="#054E9B"/>
<path d="M147.484 318.324V300.52H183.752V318.324C183.752 318.324 172.361 328.745 163.97 328.215C156.477 327.742 147.484 318.324 147.484 318.324Z" fill="#B20C05"/>
<path d="M412.247 584.298C412.247 586.403 410.809 588.11 409.036 588.11C407.262 588.11 405.824 586.403 405.824 584.298C405.824 582.192 407.262 580.485 409.036 580.485C410.809 580.485 412.247 582.192 412.247 584.298Z" fill="white"/>
<path d="M451.375 580.485H443.77C444.558 582.941 444.558 585.655 443.77 588.11H451.375C450.586 585.655 450.586 582.941 451.375 580.485Z" fill="white"/>
<path d="M437.938 584.298C437.938 586.403 436.501 588.11 434.727 588.11C432.954 588.11 431.516 586.403 431.516 584.298C431.516 582.192 432.954 580.485 434.727 580.485C436.501 580.485 437.938 582.192 437.938 584.298Z" fill="white"/>
<path d="M425.684 580.485H418.079C418.868 582.941 418.868 585.655 418.079 588.11H425.684C424.895 585.655 424.895 582.941 425.684 580.485Z" fill="white"/>
<path d="M540.702 584.298C540.702 586.403 539.264 588.11 537.491 588.11C535.717 588.11 534.279 586.403 534.279 584.298C534.279 582.192 535.717 580.485 537.491 580.485C539.264 580.485 540.702 582.192 540.702 584.298Z" fill="white"/>
<path d="M463.63 584.298C463.63 586.403 462.192 588.11 460.418 588.11C458.645 588.11 457.207 586.403 457.207 584.298C457.207 582.192 458.645 580.485 460.418 580.485C462.192 580.485 463.63 582.192 463.63 584.298Z" fill="white"/>
<path d="M528.449 580.485H520.844C521.632 582.941 521.632 585.655 520.844 588.11H528.449C527.66 585.655 527.66 582.941 528.449 580.485Z" fill="white"/>
<path d="M477.067 580.485H469.462C470.251 582.941 470.251 585.655 469.462 588.11H477.067C476.278 585.655 476.278 582.941 477.067 580.485Z" fill="white"/>
<path d="M489.321 584.298C489.321 586.403 487.883 588.11 486.11 588.11C484.336 588.11 482.898 586.403 482.898 584.298C482.898 582.192 484.336 580.485 486.11 580.485C487.883 580.485 489.321 582.192 489.321 584.298Z" fill="white"/>
<path d="M502.757 580.485H495.152C495.941 582.941 495.941 585.655 495.152 588.11H502.757C501.969 585.655 501.969 582.941 502.757 580.485Z" fill="white"/>
<path d="M515.012 584.298C515.012 586.403 513.574 588.11 511.8 588.11C510.027 588.11 508.589 586.403 508.589 584.298C508.589 582.192 510.027 580.485 511.8 580.485C513.574 580.485 515.012 582.192 515.012 584.298Z" fill="white"/>
<path d="M322.449 580H314.844C315.632 582.456 315.632 585.17 314.844 587.625H322.449C321.66 585.17 321.66 582.456 322.449 580Z" fill="white"/>
<path d="M309.013 583.813C309.013 585.918 307.575 587.625 305.801 587.625C304.028 587.625 302.59 585.918 302.59 583.813C302.59 581.707 304.028 580 305.801 580C307.575 580 309.013 581.707 309.013 583.813Z" fill="white"/>
<path d="M334.704 583.813C334.704 585.918 333.266 587.625 331.493 587.625C329.719 587.625 328.281 585.918 328.281 583.813C328.281 581.707 329.719 580 331.493 580C333.266 580 334.704 581.707 334.704 583.813Z" fill="white"/>
<path d="M399.522 580H391.917C392.706 582.456 392.706 585.17 391.917 587.625H399.522C398.733 585.17 398.733 582.456 399.522 580Z" fill="white"/>
<path d="M348.14 580H340.535C341.324 582.456 341.324 585.17 340.535 587.625H348.14C347.352 585.17 347.352 582.456 348.14 580Z" fill="white"/>
<path d="M360.395 583.813C360.395 585.918 358.958 587.625 357.184 587.625C355.411 587.625 353.973 585.918 353.973 583.813C353.973 581.707 355.411 580 357.184 580C358.958 580 360.395 581.707 360.395 583.813Z" fill="white"/>
<path d="M373.832 580H366.227C367.015 582.456 367.015 585.17 366.227 587.625H373.832C373.043 585.17 373.043 582.456 373.832 580Z" fill="white"/>
<path d="M386.086 583.813C386.086 585.918 384.648 587.625 382.874 587.625C381.101 587.625 379.663 585.918 379.663 583.813C379.663 581.707 381.101 580 382.874 580C384.648 580 386.086 581.707 386.086 583.813Z" fill="white"/>
<path d="M580.233 580.485H572.628C573.417 582.941 573.417 585.655 572.628 588.11H580.233C579.444 585.655 579.444 582.941 580.233 580.485Z" fill="white"/>
<path d="M566.796 584.298C566.796 586.403 565.358 588.11 563.584 588.11C561.811 588.11 560.373 586.403 560.373 584.298C560.373 582.192 561.811 580.485 563.584 580.485C565.358 580.485 566.796 582.192 566.796 584.298Z" fill="white"/>
<path d="M554.542 580.485H546.937C547.725 582.941 547.725 585.655 546.937 588.11H554.542C553.753 585.655 553.753 582.941 554.542 580.485Z" fill="white"/>
<path d="M669.56 584.298C669.56 586.403 668.123 588.11 666.349 588.11C664.576 588.11 663.138 586.403 663.138 584.298C663.138 582.192 664.576 580.485 666.349 580.485C668.123 580.485 669.56 582.192 669.56 584.298Z" fill="white"/>
<path d="M592.487 584.298C592.487 586.403 591.049 588.11 589.276 588.11C587.502 588.11 586.064 586.403 586.064 584.298C586.064 582.192 587.502 580.485 589.276 580.485C591.049 580.485 592.487 582.192 592.487 584.298Z" fill="white"/>
<path d="M657.306 580.485H649.701C650.49 582.941 650.49 585.655 649.701 588.11H657.306C656.518 585.655 656.518 582.941 657.306 580.485Z" fill="white"/>
<path d="M605.923 580.485H598.318C599.107 582.941 599.107 585.655 598.318 588.11H605.923C605.135 585.655 605.135 582.941 605.923 580.485Z" fill="white"/>
<path d="M618.178 584.298C618.178 586.403 616.74 588.11 614.966 588.11C613.193 588.11 611.755 586.403 611.755 584.298C611.755 582.192 613.193 580.485 614.966 580.485C616.74 580.485 618.178 582.192 618.178 584.298Z" fill="white"/>
<path d="M631.615 580.485H624.01C624.799 582.941 624.799 585.655 624.01 588.11H631.615C630.826 585.655 630.826 582.941 631.615 580.485Z" fill="white"/>
<path d="M643.869 584.298C643.869 586.403 642.431 588.11 640.658 588.11C638.884 588.11 637.446 586.403 637.446 584.298C637.446 582.192 638.884 580.485 640.658 580.485C642.431 580.485 643.869 582.192 643.869 584.298Z" fill="white"/>
<path d="M757.954 580.485H750.349C751.137 582.941 751.137 585.655 750.349 588.11H757.954C757.165 585.655 757.165 582.941 757.954 580.485Z" fill="white"/>
<path d="M744.518 584.298C744.518 586.403 743.08 588.11 741.306 588.11C739.533 588.11 738.095 586.403 738.095 584.298C738.095 582.192 739.533 580.485 741.306 580.485C743.08 580.485 744.518 582.192 744.518 584.298Z" fill="white"/>
<path d="M732.263 580.485H724.658C725.447 582.941 725.447 585.655 724.658 588.11H732.263C731.475 585.655 731.475 582.941 732.263 580.485Z" fill="white"/>
<path d="M847.281 584.298C847.281 586.403 845.843 588.11 844.07 588.11C842.296 588.11 840.858 586.403 840.858 584.298C840.858 582.192 842.296 580.485 844.07 580.485C845.843 580.485 847.281 582.192 847.281 584.298Z" fill="white"/>
<path d="M770.209 584.298C770.209 586.403 768.771 588.11 766.998 588.11C765.224 588.11 763.786 586.403 763.786 584.298C763.786 582.192 765.224 580.485 766.998 580.485C768.771 580.485 770.209 582.192 770.209 584.298Z" fill="white"/>
<path d="M835.028 580.485H827.423C828.212 582.941 828.212 585.655 827.423 588.11H835.028C834.239 585.655 834.239 582.941 835.028 580.485Z" fill="white"/>
<path d="M783.645 580.485H776.04C776.829 582.941 776.829 585.655 776.04 588.11H783.645C782.856 585.655 782.856 582.941 783.645 580.485Z" fill="white"/>
<path d="M795.899 584.298C795.899 586.403 794.461 588.11 792.688 588.11C790.914 588.11 789.477 586.403 789.477 584.298C789.477 582.192 790.914 580.485 792.688 580.485C794.461 580.485 795.899 582.192 795.899 584.298Z" fill="white"/>
<path d="M809.337 580.485H801.731C802.52 582.941 802.52 585.655 801.731 588.11H809.337C808.548 585.655 808.548 582.941 809.337 580.485Z" fill="white"/>
<path d="M821.59 584.298C821.59 586.403 820.152 588.11 818.378 588.11C816.605 588.11 815.167 586.403 815.167 584.298C815.167 582.192 816.605 580.485 818.378 580.485C820.152 580.485 821.59 582.192 821.59 584.298Z" fill="white"/>
<path d="M886.824 580.485H879.219C880.007 582.941 880.007 585.655 879.219 588.11H886.824C886.035 585.655 886.035 582.941 886.824 580.485Z" fill="white"/>
<path d="M873.387 584.298C873.387 586.403 871.949 588.11 870.175 588.11C868.402 588.11 866.964 586.403 866.964 584.298C866.964 582.192 868.402 580.485 870.175 580.485C871.949 580.485 873.387 582.192 873.387 584.298Z" fill="white"/>
<path d="M861.132 580.485H853.527C854.316 582.941 854.316 585.655 853.527 588.11H861.132C860.344 585.655 860.344 582.941 861.132 580.485Z" fill="white"/>
<path d="M976.152 584.298C976.152 586.403 974.714 588.11 972.941 588.11C971.167 588.11 969.729 586.403 969.729 584.298C969.729 582.192 971.167 580.485 972.941 580.485C974.714 580.485 976.152 582.192 976.152 584.298Z" fill="white"/>
<path d="M899.078 584.298C899.078 586.403 897.64 588.11 895.867 588.11C894.093 588.11 892.655 586.403 892.655 584.298C892.655 582.192 894.093 580.485 895.867 580.485C897.64 580.485 899.078 582.192 899.078 584.298Z" fill="white"/>
<path d="M963.897 580.485H956.292C957.081 582.941 957.081 585.655 956.292 588.11H963.897C963.108 585.655 963.108 582.941 963.897 580.485Z" fill="white"/>
<path d="M912.515 580.485H904.91C905.699 582.941 905.699 585.655 904.91 588.11H912.515C911.727 585.655 911.727 582.941 912.515 580.485Z" fill="white"/>
<path d="M924.768 584.298C924.768 586.403 923.331 588.11 921.557 588.11C919.784 588.11 918.346 586.403 918.346 584.298C918.346 582.192 919.784 580.485 921.557 580.485C923.331 580.485 924.768 582.192 924.768 584.298Z" fill="white"/>
<path d="M938.206 580.485H930.601C931.389 582.941 931.389 585.655 930.601 588.11H938.206C937.417 585.655 937.417 582.941 938.206 580.485Z" fill="white"/>
<path d="M950.46 584.298C950.46 586.403 949.022 588.11 947.249 588.11C945.475 588.11 944.037 586.403 944.037 584.298C944.037 582.192 945.475 580.485 947.249 580.485C949.022 580.485 950.46 582.192 950.46 584.298Z" fill="white"/>
<path d="M708.688 580.485H701.083C701.872 582.941 701.872 585.655 701.083 588.11H708.688C707.899 585.655 707.899 582.941 708.688 580.485Z" fill="white"/>
<path d="M695.251 584.298C695.251 586.403 693.813 588.11 692.04 588.11C690.266 588.11 688.828 586.403 688.828 584.298C688.828 582.192 690.266 580.485 692.04 580.485C693.813 580.485 695.251 582.192 695.251 584.298Z" fill="white"/>
<path d="M682.997 580.485H675.392C676.18 582.941 676.18 585.655 675.392 588.11H682.997C682.208 585.655 682.208 582.941 682.997 580.485Z" fill="white"/>
<path d="M720.942 584.298C720.942 586.403 719.504 588.11 717.731 588.11C715.957 588.11 714.52 586.403 714.52 584.298C714.52 582.192 715.957 580.485 717.731 580.485C719.504 580.485 720.942 582.192 720.942 584.298Z" fill="white"/>
<rect x="292.5" y="571.5" width="695" height="26" rx="13" stroke="white" stroke-width="3"/>
<path d="M988.044 461.935C987.174 460.753 985.786 460.053 984.31 460.053H971.684C969.132 460.053 967.064 462.105 967.064 464.637C967.064 467.17 969.132 469.222 971.684 469.222H977.979L974.647 479.537L971.684 488.706L967.86 500.549L964.898 509.719L961.69 519.652H900.583L875.479 447.853C875.036 446.588 874.059 445.579 872.804 445.089L850.312 444.317C847.936 443.394 845.254 444.553 844.321 446.908C843.389 449.264 844.556 451.926 846.931 452.852L867.445 452.852L891.415 521.409C890.357 521.775 889.46 522.58 889.052 523.707L882.122 542.81C881.697 543.981 881.872 545.282 882.595 546.3C883.317 547.318 884.491 547.924 885.744 547.924H889.303C887.098 550.359 885.744 553.566 885.744 557.093C885.744 564.677 891.963 570.847 899.605 570.847C907.247 570.847 913.467 564.677 913.467 557.093C913.467 553.566 912.113 550.359 909.907 547.924H940.128C937.921 550.359 936.567 553.566 936.567 557.093C936.567 564.677 942.785 570.847 950.429 570.847C958.072 570.847 964.29 564.677 964.29 557.093C964.29 553.566 962.936 550.359 960.731 547.924H965.06C967.187 547.924 968.91 546.213 968.91 544.103C968.91 541.993 967.186 540.283 965.06 540.283H891.223L895.515 528.453C896.069 528.685 896.668 528.822 897.295 528.822H965.059C967.068 528.822 968.846 527.534 969.458 525.637C970.07 523.74 988.709 466.037 988.709 466.037C989.161 464.642 988.913 463.118 988.044 461.935ZM899.605 563.206C896.208 563.206 893.445 560.464 893.445 557.093C893.445 553.722 896.208 550.98 899.605 550.98C903.003 550.98 905.766 553.722 905.766 557.093C905.766 560.464 903.003 563.206 899.605 563.206ZM950.429 563.206C947.031 563.206 944.268 560.464 944.268 557.093C944.268 553.722 947.031 550.98 950.429 550.98C953.826 550.98 956.589 553.722 956.589 557.093C956.589 560.464 953.826 563.206 950.429 563.206Z" fill="white"/>
<g clip-path="url(#clip8)">
<path d="M901.64 481.742V489.867V495.283V514.242C901.64 517.221 904.065 519.658 907.056 519.658H931.431H955.806C958.799 519.658 961.223 517.221 961.223 514.242V495.283V489.867V481.742H901.64Z" fill="#F39C12"/>
<path d="M901.64 479.033V487.158V492.575V511.533C901.64 514.512 904.065 516.95 907.056 516.95H931.431H955.806C958.799 516.95 961.223 514.512 961.223 511.533V492.575V487.158V479.033H901.64Z" fill="#F1C40F"/>
<path d="M904.348 473.617C901.357 473.617 898.932 476.054 898.932 479.033V484.45H963.932V479.033C963.932 476.054 961.508 473.617 958.515 473.617H953.098H934.14H928.723H909.765H904.348Z" fill="#F1C40F"/>
<path d="M939.557 470.908H923.307V519.658H939.557V470.908Z" fill="#E74C3C"/>
<path d="M920.287 460.075C917.582 459.804 914.942 461.158 913.494 463.325C911.388 466.575 912.647 470.637 916.295 472.533C917.468 473.346 918.724 473.616 919.989 473.616H920.614H929.552H933.306H942.241H942.867C944.131 473.616 945.418 473.346 946.591 472.533C950.239 470.637 951.468 466.575 949.361 463.325C947.257 460.075 942.612 458.991 938.964 460.887C937.791 461.429 936.87 462.241 936.226 463.325H936.166C936.079 463.596 936.004 463.596 935.928 463.867L931.429 470.637L926.931 463.867C926.855 463.596 926.779 463.596 926.692 463.325H926.633C925.987 462.241 925.094 461.429 923.921 460.887C922.781 460.345 921.516 460.075 920.287 460.075V460.075ZM919.84 463.325C920.572 463.325 921.33 463.596 922.015 463.867C922.244 463.867 922.45 464.137 922.64 464.137C922.773 464.408 922.884 464.408 922.997 464.679H923.087C923.148 464.679 923.211 464.95 923.266 464.95H923.355H923.385C923.428 465.22 923.496 465.221 923.534 465.221L926.692 470.096H920.376H920.019H919.87H919.572H919.423C919.249 470.096 919.087 470.096 918.916 469.825C918.674 469.825 918.431 469.825 918.201 469.554C917.745 469.554 917.338 469.012 917.039 468.741C916.144 467.658 916.011 466.304 916.801 464.95C917.459 464.137 918.619 463.325 919.84 463.325V463.325ZM943.045 463.325C944.267 463.325 945.426 464.137 946.084 464.95C946.875 466.304 946.712 467.658 945.816 468.741C945.518 469.012 945.142 469.554 944.684 469.554C944.456 469.825 944.213 469.825 943.969 469.825C943.801 470.096 943.606 470.096 943.433 470.096H943.284H942.986H942.837H942.479H936.166L939.321 465.221C939.359 465.221 939.427 465.22 939.47 464.95H939.5C939.508 464.95 939.495 464.95 939.5 464.95H939.589C939.644 464.95 939.709 464.679 939.768 464.679H939.858C939.971 464.408 940.112 464.408 940.245 464.137C940.437 464.137 940.643 463.867 940.871 463.867C941.556 463.596 942.314 463.325 943.045 463.325Z" fill="#C0392B"/>
<path d="M961.223 484.45H901.64V487.158H961.223V484.45Z" fill="#F39C12"/>
<path d="M939.557 484.45H923.307V487.158H939.557V484.45Z" fill="#C0392B"/>
<path d="M939.557 516.95H923.307V519.658H939.557V516.95Z" fill="#C0392B"/>
</g>
<path d="M407.91 475.553C407.156 474.527 405.952 473.92 404.673 473.92H393.724C391.51 473.92 389.717 475.7 389.717 477.896C389.717 480.092 391.51 481.871 393.724 481.871H399.182L396.293 490.816L393.724 498.767L390.407 509.037L387.839 516.989L385.057 525.603H332.067L310.298 463.342C309.913 462.244 309.066 461.369 307.978 460.944L288.473 460.275C286.413 459.475 284.087 460.479 283.278 462.521C282.47 464.565 283.482 466.873 285.542 467.676L303.331 467.676L324.117 527.127C323.199 527.444 322.422 528.142 322.068 529.119L316.058 545.684C315.689 546.7 315.841 547.829 316.468 548.711C317.094 549.594 318.112 550.119 319.199 550.119H322.285C320.373 552.231 319.199 555.012 319.199 558.07C319.199 564.647 324.592 569.997 331.219 569.997C337.846 569.997 343.239 564.647 343.239 558.07C343.239 555.012 342.065 552.231 340.153 550.119H366.359C364.445 552.231 363.271 555.012 363.271 558.07C363.271 564.647 368.663 569.997 375.292 569.997C381.92 569.997 387.311 564.647 387.311 558.07C387.311 555.012 386.138 552.231 384.225 550.119H387.979C389.823 550.119 391.318 548.636 391.318 546.806C391.318 544.976 389.823 543.493 387.979 543.493H323.95L327.672 533.235C328.153 533.436 328.672 533.554 329.215 533.554H387.979C389.721 533.554 391.262 532.438 391.793 530.793C392.324 529.148 408.487 479.11 408.487 479.11C408.879 477.9 408.664 476.579 407.91 475.553ZM331.219 563.371C328.273 563.371 325.877 560.994 325.877 558.07C325.877 555.147 328.273 552.77 331.219 552.77C334.165 552.77 336.561 555.147 336.561 558.07C336.561 560.994 334.165 563.371 331.219 563.371ZM375.291 563.371C372.345 563.371 369.949 560.994 369.949 558.07C369.949 555.147 372.345 552.77 375.291 552.77C378.237 552.77 380.633 555.147 380.633 558.07C380.633 560.994 378.237 563.371 375.291 563.371Z" fill="white"/>
<g clip-path="url(#clip9)">
<path d="M332.983 492.728V499.774V504.471V520.911C332.983 523.495 335.086 525.608 337.681 525.608H358.818H379.955C382.55 525.608 384.652 523.495 384.652 520.911V504.471V499.774V492.728H332.983Z" fill="#F39C12"/>
<path d="M332.983 490.38V497.425V502.123V518.563C332.983 521.146 335.086 523.26 337.681 523.26H358.818H379.955C382.55 523.26 384.652 521.146 384.652 518.563V502.123V497.425V490.38H332.983Z" fill="#F1C40F"/>
<path d="M335.332 485.683C332.738 485.683 330.635 487.796 330.635 490.38V495.077H387.001V490.38C387.001 487.796 384.899 485.683 382.303 485.683H377.606H361.166H356.469H340.029H335.332Z" fill="#F1C40F"/>
<path d="M365.863 483.334H351.771V525.608H365.863V483.334Z" fill="#E74C3C"/>
<path d="M349.153 473.94C346.808 473.705 344.519 474.879 343.263 476.758C341.437 479.576 342.528 483.099 345.692 484.743C346.709 485.448 347.798 485.682 348.895 485.682H349.437H357.188H360.443H368.191H368.734C369.83 485.682 370.946 485.448 371.963 484.743C375.127 483.099 376.193 479.576 374.366 476.758C372.541 473.939 368.513 473 365.349 474.644C364.332 475.114 363.534 475.818 362.975 476.758H362.923C362.848 476.993 362.782 476.993 362.717 477.228L358.816 483.099L354.915 477.228C354.849 476.993 354.783 476.993 354.708 476.758H354.656C354.096 475.818 353.322 475.114 352.305 474.644C351.316 474.174 350.219 473.94 349.153 473.94V473.94ZM348.766 476.758C349.401 476.758 350.058 476.993 350.652 477.228C350.85 477.228 351.029 477.462 351.194 477.462C351.31 477.697 351.406 477.697 351.504 477.932H351.581C351.634 477.932 351.689 478.167 351.736 478.167H351.814H351.84C351.877 478.402 351.936 478.402 351.969 478.402L354.708 482.629H349.231H348.921H348.791H348.533H348.404C348.254 482.629 348.112 482.629 347.965 482.394C347.755 482.394 347.544 482.394 347.345 482.16C346.949 482.16 346.596 481.69 346.337 481.455C345.561 480.515 345.446 479.341 346.131 478.167C346.701 477.462 347.707 476.758 348.766 476.758V476.758ZM368.889 476.758C369.948 476.758 370.953 477.462 371.524 478.167C372.21 479.341 372.069 480.515 371.291 481.455C371.033 481.69 370.706 482.16 370.31 482.16C370.112 482.394 369.901 482.394 369.69 482.394C369.544 482.629 369.375 482.629 369.225 482.629H369.095H368.837H368.708H368.398H362.923L365.659 478.402C365.692 478.402 365.751 478.402 365.789 478.167H365.814C365.821 478.167 365.81 478.167 365.814 478.167H365.892C365.939 478.167 365.995 477.932 366.047 477.932H366.124C366.223 477.697 366.345 477.697 366.46 477.462C366.627 477.462 366.806 477.228 367.003 477.228C367.597 476.993 368.255 476.758 368.889 476.758Z" fill="#C0392B"/>
<path d="M384.652 495.077H332.983V497.425H384.652V495.077Z" fill="#F39C12"/>
<path d="M365.863 495.077H351.771V497.425H365.863V495.077Z" fill="#C0392B"/>
<path d="M365.863 523.26H351.771V525.608H365.863V523.26Z" fill="#C0392B"/>
</g>
<g clip-path="url(#clip10)">
<path d="M1174.94 470.361L1093.29 395.955C1089.7 392.689 1084.3 392.689 1080.71 395.955L999.056 470.362C996.185 472.978 995.237 477.009 996.64 480.631C998.043 484.253 1001.46 486.593 1005.34 486.593H1018.38V561.142C1018.38 564.098 1020.78 566.494 1023.74 566.494H1068.5C1071.45 566.494 1073.85 564.098 1073.85 561.142V515.878H1100.15V561.142C1100.15 564.098 1102.55 566.494 1105.51 566.494H1150.26C1153.22 566.494 1155.61 564.098 1155.61 561.142V486.593H1168.66C1172.54 486.593 1175.96 484.252 1177.36 480.631C1178.76 477.009 1177.81 472.978 1174.94 470.361Z" fill="white"/>
</g>
<defs>
<clipPath id="clip0">
<rect width="40.2489" height="40.2489" transform="matrix(1 0 0 -1 148.022 441.959)" fill="white"/>
</clipPath>
<clipPath id="clip1">
<rect x="86.2119" y="401.71" width="40.2489" height="40.2489" fill="white"/>
</clipPath>
<clipPath id="clip2">
<rect x="87.0879" y="347.962" width="35.9365" height="35.9365" fill="white"/>
</clipPath>
<clipPath id="clip3">
<rect x="-141.592" y="214.462" width="410.134" height="410.134" transform="rotate(-10.2336 -141.592 214.462)" fill="white"/>
</clipPath>
<clipPath id="clip4">
<rect x="213.164" y="483.119" width="43.1238" height="43.1238" transform="rotate(9.9478 213.164 483.119)" fill="white"/>
</clipPath>
<clipPath id="clip5">
<rect x="207.677" y="402.429" width="40.2489" height="40.2489" fill="white"/>
</clipPath>
<clipPath id="clip6">
<rect x="150.179" y="474.302" width="35.9365" height="35.9365" fill="white"/>
</clipPath>
<clipPath id="clip7">
<rect x="85.4932" y="461.365" width="41.6864" height="41.6864" fill="white"/>
</clipPath>
<clipPath id="clip8">
<rect x="898.932" y="457.367" width="65" height="65" fill="white"/>
</clipPath>
<clipPath id="clip9">
<rect x="330.635" y="471.591" width="56.3658" height="56.3658" fill="white"/>
</clipPath>
<clipPath id="clip10">
<rect x="996" y="389" width="182" height="182" fill="white"/>
</clipPath>
</defs>
</svg>
