<svg width="1920" height="1080" viewBox="0 0 1920 1080" fill="none" xmlns="http://www.w3.org/2000/svg">
<rect width="1920" height="1080" fill="#0594B4"/>
<path d="M280.008 476.9V474.291L279.819 474.618L279.819 474.618C279.797 474.656 279.748 474.669 279.71 474.647C279.708 474.646 279.706 474.645 279.704 474.643L278.846 474.148L278.886 474.079L278.846 474.148C278.807 474.126 278.794 474.077 278.816 474.039C278.818 474.037 278.819 474.035 278.82 474.033L279.616 472.655L279.616 472.655C279.626 472.638 279.641 472.625 279.658 472.619L280.499 472.278L280.498 472.278C280.534 472.263 280.574 472.276 280.595 472.307L281.366 473.34L282.139 472.304L282.139 472.304C282.162 472.273 282.203 472.264 282.237 472.28L283.076 472.621L283.077 472.621C283.096 472.629 283.111 472.644 283.119 472.661L283.915 474.039L283.915 474.039C283.937 474.077 283.924 474.126 283.886 474.148C283.884 474.15 283.881 474.151 283.879 474.152L283.021 474.647L283.021 474.647C282.983 474.669 282.934 474.656 282.912 474.618C282.911 474.616 282.91 474.615 282.91 474.613L282.723 474.291V476.9C282.723 476.945 282.688 476.98 282.643 476.98H280.088C280.044 476.98 280.008 476.945 280.008 476.9L280.008 476.9Z" fill="black"/>
<ellipse cx="947" cy="803.5" rx="882" ry="32.5" fill="#026F8E" fill-opacity="0.5"/>
<path d="M143 294.125C143 285.84 149.716 279.125 158 279.125H402C410.284 279.125 417 285.84 417 294.125V316.125H143V294.125Z" fill="white"/>
<path d="M144 729.988C144 736.616 149.373 741.988 156 741.988H405.405C412.033 741.988 417.405 736.616 417.405 729.988V707.125H144V729.988Z" fill="white"/>
<rect x="139.484" y="276" width="280.745" height="469.744" rx="15" stroke="white" stroke-width="12"/>
<rect x="258.419" y="294.014" width="44.7083" height="8.00961" rx="3.5" stroke="black" stroke-width="3"/>
<rect x="261.5" y="714.625" width="39" height="19" rx="8.5" stroke="black" stroke-width="3"/>
<rect x="163" y="425.125" width="67" height="67" rx="10" fill="#D0CCCC" stroke="white" stroke-width="5"/>
<rect x="249" y="425.125" width="68" height="67" rx="10" fill="#D0CCCC" stroke="white" stroke-width="5"/>
<rect x="336" y="425.125" width="67" height="67" rx="10" fill="#D0CCCC" stroke="white" stroke-width="5"/>
<rect x="163" y="507.125" width="67" height="67" rx="10" fill="#D0CCCC" stroke="white" stroke-width="5"/>
<rect x="249" y="507.125" width="68" height="67" rx="10" fill="#D0CCCC" stroke="white" stroke-width="5"/>
<rect x="336" y="507.125" width="67" height="67" rx="10" fill="#D0CCCC" stroke="white" stroke-width="5"/>
<rect x="163" y="591.125" width="67" height="67" rx="10" fill="#D0CCCC" stroke="white" stroke-width="5"/>
<rect x="249" y="605.125" width="68" height="67" rx="10" fill="#D0CCCC" stroke="white" stroke-width="5"/>
<rect x="340.943" y="620.823" width="67" height="67" rx="10" transform="rotate(7.93126 340.943 620.823)" fill="#D0CCCC" stroke="white" stroke-width="5"/>
<path d="M104.703 370.417L146.906 316.286H186.357L154.246 370.417V395.188C154.246 395.188 139.314 409.688 127.639 408.95C117.214 408.292 104.703 395.188 104.703 395.188V370.417Z" fill="#005CBE"/>
<path d="M154.246 370.417L186.357 316.286H223.974L204.707 370.417V395.188C204.707 395.188 189.775 410.605 178.1 409.868C167.675 409.209 154.246 395.188 154.246 395.188V370.417Z" fill="#CE352F"/>
<path d="M204.707 370.417L223.974 316.286H260.673L254.25 370.417V396.106C254.25 396.106 239.319 409.688 227.644 408.95C217.219 408.292 204.707 395.188 204.707 395.188V370.417Z" fill="#005CBE"/>
<path d="M454.258 371.334L412.054 316.286H372.603L403.797 371.334V396.106C403.797 396.106 419.646 410.605 431.321 409.868C441.746 409.209 454.258 396.106 454.258 396.106V371.334Z" fill="#005CBE"/>
<path d="M403.797 371.334L372.603 316.286H334.987L354.254 372.252V396.106C354.254 396.106 369.185 411.523 380.86 410.785C391.285 410.127 403.797 396.106 403.797 396.106V371.334Z" fill="#CE352F"/>
<path d="M354.254 371.334L334.987 316.286H300.123L304.711 371.334V396.106C304.711 396.106 319.642 410.605 331.317 409.868C341.742 409.209 354.254 396.106 354.254 396.106V371.334Z" fill="#005CBE"/>
<path d="M254.25 371.334L260.672 316.286H300.123L304.711 371.334V396.106C304.711 396.106 288.862 410.605 277.187 409.868C266.762 409.209 254.25 396.106 254.25 396.106V371.334Z" fill="#CE352F"/>
<path d="M104.703 395.188V371.334H154.246V395.188C154.246 395.188 139.314 409.688 127.639 408.95C117.214 408.292 104.703 395.188 104.703 395.188Z" fill="#054E9B"/>
<path d="M154.246 395.188V371.334H204.706V395.188C204.706 395.188 189.775 410.605 178.1 409.868C167.675 409.209 154.246 395.188 154.246 395.188Z" fill="#B30C05"/>
<path d="M204.707 395.188V371.334H254.25V396.106C254.25 396.106 239.318 409.688 227.643 408.95C217.218 408.292 204.707 395.188 204.707 395.188Z" fill="#054E9B"/>
<path d="M454.258 396.106V371.334H403.797V396.106C403.797 396.106 419.646 410.605 431.321 409.868C441.746 409.209 454.258 396.106 454.258 396.106Z" fill="#054E9B"/>
<path d="M403.797 396.106V371.334H354.254V396.106C354.254 396.106 369.185 411.523 380.86 410.785C391.285 410.127 403.797 396.106 403.797 396.106Z" fill="#B20C05"/>
<path d="M354.254 396.106V371.334H304.711V396.106C304.711 396.106 319.642 410.605 331.317 409.868C341.742 409.209 354.254 396.106 354.254 396.106Z" fill="#054E9B"/>
<path d="M254.25 396.106V371.334H304.711V396.106C304.711 396.106 288.862 410.605 277.187 409.868C266.762 409.209 254.25 396.106 254.25 396.106Z" fill="#B20C05"/>
<path d="M464.932 723.844C464.932 727.002 462.484 729.563 459.466 729.563C456.447 729.563 454 727.002 454 723.844C454 720.685 456.447 718.125 459.466 718.125C462.484 718.125 464.932 720.685 464.932 723.844Z" fill="white"/>
<path d="M531.526 718.125H518.582C519.924 721.808 519.924 725.879 518.582 729.563H531.526C530.184 725.879 530.184 721.808 531.526 718.125Z" fill="white"/>
<path d="M508.657 723.844C508.657 727.002 506.21 729.563 503.191 729.563C500.173 729.563 497.726 727.002 497.726 723.844C497.726 720.685 500.173 718.125 503.191 718.125C506.21 718.125 508.657 720.685 508.657 723.844Z" fill="white"/>
<path d="M487.8 718.125H474.856C476.199 721.808 476.199 725.879 474.856 729.563H487.8C486.458 725.879 486.458 721.808 487.8 718.125Z" fill="white"/>
<path d="M683.563 723.844C683.563 727.002 681.115 729.563 678.097 729.563C675.078 729.563 672.631 727.002 672.631 723.844C672.631 720.685 675.078 718.125 678.097 718.125C681.115 718.125 683.563 720.685 683.563 723.844Z" fill="white"/>
<path d="M552.385 723.844C552.385 727.002 549.937 729.563 546.919 729.563C543.9 729.563 541.453 727.002 541.453 723.844C541.453 720.685 543.9 718.125 546.919 718.125C549.937 718.125 552.385 720.685 552.385 723.844Z" fill="white"/>
<path d="M662.707 718.125H649.763C651.105 721.808 651.105 725.879 649.763 729.563H662.707C661.364 725.879 661.364 721.808 662.707 718.125Z" fill="white"/>
<path d="M575.255 718.125H562.311C563.653 721.808 563.653 725.879 562.311 729.563H575.255C573.912 725.879 573.912 721.808 575.255 718.125Z" fill="white"/>
<path d="M596.111 723.844C596.111 727.002 593.664 729.563 590.646 729.563C587.627 729.563 585.18 727.002 585.18 723.844C585.18 720.685 587.627 718.125 590.646 718.125C593.664 718.125 596.111 720.685 596.111 723.844Z" fill="white"/>
<path d="M618.98 718.125H606.036C607.379 721.808 607.379 725.879 606.036 729.563H618.98C617.638 725.879 617.638 721.808 618.98 718.125Z" fill="white"/>
<path d="M639.837 723.844C639.837 727.002 637.39 729.563 634.371 729.563C631.353 729.563 628.905 727.002 628.905 723.844C628.905 720.685 631.353 718.125 634.371 718.125C637.39 718.125 639.837 720.685 639.837 723.844Z" fill="white"/>
<path d="M750.844 718.125H737.9C739.243 721.808 739.243 725.879 737.9 729.563H750.844C749.502 725.879 749.502 721.808 750.844 718.125Z" fill="white"/>
<path d="M727.974 723.844C727.974 727.002 725.526 729.563 722.508 729.563C719.489 729.563 717.042 727.002 717.042 723.844C717.042 720.685 719.489 718.125 722.508 718.125C725.526 718.125 727.974 720.685 727.974 723.844Z" fill="white"/>
<path d="M707.117 718.125H694.173C695.515 721.808 695.515 725.879 694.173 729.563H707.117C705.774 725.879 705.774 721.808 707.117 718.125Z" fill="white"/>
<path d="M902.881 723.844C902.881 727.002 900.434 729.563 897.415 729.563C894.397 729.563 891.949 727.002 891.949 723.844C891.949 720.685 894.397 718.125 897.415 718.125C900.434 718.125 902.881 720.685 902.881 723.844Z" fill="white"/>
<path d="M771.701 723.844C771.701 727.002 769.254 729.563 766.235 729.563C763.217 729.563 760.77 727.002 760.77 723.844C760.77 720.685 763.217 718.125 766.235 718.125C769.254 718.125 771.701 720.685 771.701 723.844Z" fill="white"/>
<path d="M882.023 718.125H869.079C870.422 721.808 870.422 725.879 869.079 729.563H882.023C880.681 725.879 880.681 721.808 882.023 718.125Z" fill="white"/>
<path d="M794.57 718.125H781.626C782.968 721.808 782.968 725.879 781.626 729.563H794.57C793.228 725.879 793.228 721.808 794.57 718.125Z" fill="white"/>
<path d="M815.427 723.844C815.427 727.002 812.979 729.563 809.961 729.563C806.942 729.563 804.495 727.002 804.495 723.844C804.495 720.685 806.942 718.125 809.961 718.125C812.979 718.125 815.427 720.685 815.427 723.844Z" fill="white"/>
<path d="M838.297 718.125H825.353C826.695 721.808 826.695 725.879 825.353 729.563H838.297C836.954 725.879 836.954 721.808 838.297 718.125Z" fill="white"/>
<path d="M859.153 723.844C859.153 727.002 856.706 729.563 853.687 729.563C850.669 729.563 848.222 727.002 848.222 723.844C848.222 720.685 850.669 718.125 853.687 718.125C856.706 718.125 859.153 720.685 859.153 723.844Z" fill="white"/>
<path d="M1053.33 718.125H1040.38C1041.72 721.808 1041.72 725.879 1040.38 729.563H1053.33C1051.98 725.879 1051.98 721.808 1053.33 718.125Z" fill="white"/>
<path d="M1030.46 723.844C1030.46 727.002 1028.01 729.563 1024.99 729.563C1021.97 729.563 1019.53 727.002 1019.53 723.844C1019.53 720.685 1021.97 718.125 1024.99 718.125C1028.01 718.125 1030.46 720.685 1030.46 723.844Z" fill="white"/>
<path d="M1009.6 718.125H996.656C997.999 721.808 997.999 725.879 996.656 729.563H1009.6C1008.26 725.879 1008.26 721.808 1009.6 718.125Z" fill="white"/>
<path d="M1205.36 723.844C1205.36 727.002 1202.91 729.563 1199.9 729.563C1196.88 729.563 1194.43 727.002 1194.43 723.844C1194.43 720.685 1196.88 718.125 1199.9 718.125C1202.91 718.125 1205.36 720.685 1205.36 723.844Z" fill="white"/>
<path d="M1074.18 723.844C1074.18 727.002 1071.74 729.563 1068.72 729.563C1065.7 729.563 1063.25 727.002 1063.25 723.844C1063.25 720.685 1065.7 718.125 1068.72 718.125C1071.74 718.125 1074.18 720.685 1074.18 723.844Z" fill="white"/>
<path d="M1184.51 718.125H1171.56C1172.9 721.808 1172.9 725.879 1171.56 729.563H1184.51C1183.16 725.879 1183.16 721.808 1184.51 718.125Z" fill="white"/>
<path d="M1097.05 718.125H1084.11C1085.45 721.808 1085.45 725.879 1084.11 729.563H1097.05C1095.71 725.879 1095.71 721.808 1097.05 718.125Z" fill="white"/>
<path d="M1117.91 723.844C1117.91 727.002 1115.46 729.563 1112.44 729.563C1109.42 729.563 1106.98 727.002 1106.98 723.844C1106.98 720.685 1109.42 718.125 1112.44 718.125C1115.46 718.125 1117.91 720.685 1117.91 723.844Z" fill="white"/>
<path d="M1140.78 718.125H1127.84C1129.18 721.808 1129.18 725.879 1127.84 729.563H1140.78C1139.44 725.879 1139.44 721.808 1140.78 718.125Z" fill="white"/>
<path d="M1161.64 723.844C1161.64 727.002 1159.19 729.563 1156.17 729.563C1153.15 729.563 1150.7 727.002 1150.7 723.844C1150.7 720.685 1153.15 718.125 1156.17 718.125C1159.19 718.125 1161.64 720.685 1161.64 723.844Z" fill="white"/>
<path d="M1272.66 718.125H1259.72C1261.06 721.808 1261.06 725.879 1259.72 729.563H1272.66C1271.32 725.879 1271.32 721.808 1272.66 718.125Z" fill="white"/>
<path d="M1249.79 723.844C1249.79 727.002 1247.35 729.563 1244.33 729.563C1241.31 729.563 1238.86 727.002 1238.86 723.844C1238.86 720.685 1241.31 718.125 1244.33 718.125C1247.35 718.125 1249.79 720.685 1249.79 723.844Z" fill="white"/>
<path d="M1228.94 718.125H1215.99C1217.33 721.808 1217.33 725.879 1215.99 729.563H1228.94C1227.59 725.879 1227.59 721.808 1228.94 718.125Z" fill="white"/>
<path d="M1424.7 723.844C1424.7 727.002 1422.25 729.563 1419.23 729.563C1416.22 729.563 1413.77 727.002 1413.77 723.844C1413.77 720.685 1416.22 718.125 1419.23 718.125C1422.25 718.125 1424.7 720.685 1424.7 723.844Z" fill="white"/>
<path d="M1293.52 723.844C1293.52 727.002 1291.07 729.563 1288.05 729.563C1285.04 729.563 1282.59 727.002 1282.59 723.844C1282.59 720.685 1285.04 718.125 1288.05 718.125C1291.07 718.125 1293.52 720.685 1293.52 723.844Z" fill="white"/>
<path d="M1403.84 718.125H1390.9C1392.24 721.808 1392.24 725.879 1390.9 729.563H1403.84C1402.5 725.879 1402.5 721.808 1403.84 718.125Z" fill="white"/>
<path d="M1316.39 718.125H1303.45C1304.79 721.808 1304.79 725.879 1303.45 729.563H1316.39C1315.05 725.879 1315.05 721.808 1316.39 718.125Z" fill="white"/>
<path d="M1337.25 723.844C1337.25 727.002 1334.8 729.563 1331.78 729.563C1328.76 729.563 1326.31 727.002 1326.31 723.844C1326.31 720.685 1328.76 718.125 1331.78 718.125C1334.8 718.125 1337.25 720.685 1337.25 723.844Z" fill="white"/>
<path d="M1360.12 718.125H1347.17C1348.51 721.808 1348.51 725.879 1347.17 729.563H1360.12C1358.77 725.879 1358.77 721.808 1360.12 718.125Z" fill="white"/>
<path d="M1380.97 723.844C1380.97 727.002 1378.53 729.563 1375.51 729.563C1372.49 729.563 1370.04 727.002 1370.04 723.844C1370.04 720.685 1372.49 718.125 1375.51 718.125C1378.53 718.125 1380.97 720.685 1380.97 723.844Z" fill="white"/>
<path d="M1491.67 718.125H1478.73C1480.07 721.808 1480.07 725.879 1478.73 729.563H1491.67C1490.33 725.879 1490.33 721.808 1491.67 718.125Z" fill="white"/>
<path d="M1468.8 723.844C1468.8 727.002 1466.35 729.563 1463.34 729.563C1460.32 729.563 1457.87 727.002 1457.87 723.844C1457.87 720.685 1460.32 718.125 1463.34 718.125C1466.35 718.125 1468.8 720.685 1468.8 723.844Z" fill="white"/>
<path d="M1447.94 718.125H1435C1436.34 721.808 1436.34 725.879 1435 729.563H1447.94C1446.6 725.879 1446.6 721.808 1447.94 718.125Z" fill="white"/>
<path d="M1512.53 723.844C1512.53 727.002 1510.08 729.563 1507.06 729.563C1504.04 729.563 1501.6 727.002 1501.6 723.844C1501.6 720.685 1504.04 718.125 1507.06 718.125C1510.08 718.125 1512.53 720.685 1512.53 723.844Z" fill="white"/>
<path d="M969.476 718.125H956.532C957.875 721.808 957.875 725.879 956.532 729.563H969.476C968.134 725.879 968.134 721.808 969.476 718.125Z" fill="white"/>
<path d="M946.606 723.844C946.606 727.002 944.159 729.563 941.141 729.563C938.122 729.563 935.675 727.002 935.675 723.844C935.675 720.685 938.122 718.125 941.141 718.125C944.159 718.125 946.606 720.685 946.606 723.844Z" fill="white"/>
<path d="M925.75 718.125H912.806C914.148 721.808 914.148 725.879 912.806 729.563H925.75C924.407 725.879 924.407 721.808 925.75 718.125Z" fill="white"/>
<path d="M990.332 723.844C990.332 727.002 987.885 729.563 984.866 729.563C981.848 729.563 979.4 727.002 979.4 723.844C979.4 720.685 981.848 718.125 984.866 718.125C987.885 718.125 990.332 720.685 990.332 723.844Z" fill="white"/>
<rect x="446.5" y="708.625" width="1073" height="32" rx="16" stroke="white" stroke-width="3"/>
<path d="M1447.1 578.806C1446.1 577.442 1444.5 576.635 1442.8 576.635H1428.24C1425.29 576.635 1422.91 579.001 1422.91 581.922C1422.91 584.842 1425.29 587.208 1428.24 587.208H1435.49L1431.65 599.103L1428.24 609.676L1423.83 623.333L1420.41 633.907L1416.71 645.361H1346.25L1317.3 562.568C1316.79 561.109 1315.66 559.945 1314.22 559.38L1288.28 558.491C1285.54 557.426 1282.45 558.762 1281.37 561.477C1280.3 564.195 1281.64 567.265 1284.38 568.332L1308.03 568.332L1335.68 647.387C1334.46 647.809 1333.42 648.738 1332.95 650.037L1324.96 672.064C1324.47 673.415 1324.67 674.916 1325.5 676.089C1326.34 677.263 1327.69 677.962 1329.14 677.962H1333.24C1330.7 680.77 1329.14 684.468 1329.14 688.535C1329.14 697.28 1336.31 704.395 1345.12 704.395C1353.93 704.395 1361.1 697.28 1361.1 688.535C1361.1 684.468 1359.54 680.77 1357 677.962H1391.85C1389.3 680.77 1387.74 684.468 1387.74 688.535C1387.74 697.28 1394.91 704.395 1403.73 704.395C1412.54 704.395 1419.71 697.28 1419.71 688.535C1419.71 684.468 1418.15 680.77 1415.61 677.962H1420.6C1423.05 677.962 1425.04 675.989 1425.04 673.556C1425.04 671.123 1423.05 669.151 1420.6 669.151H1335.45L1340.4 655.51C1341.04 655.777 1341.73 655.934 1342.46 655.934H1420.6C1422.91 655.934 1424.96 654.449 1425.67 652.262C1426.37 650.075 1447.87 583.536 1447.87 583.536C1448.39 581.927 1448.1 580.17 1447.1 578.806ZM1345.12 695.583C1341.2 695.583 1338.02 692.422 1338.02 688.535C1338.02 684.647 1341.2 681.486 1345.12 681.486C1349.04 681.486 1352.22 684.647 1352.22 688.535C1352.22 692.422 1349.04 695.583 1345.12 695.583ZM1403.73 695.583C1399.81 695.583 1396.62 692.422 1396.62 688.535C1396.62 684.647 1399.81 681.486 1403.73 681.486C1407.64 681.486 1410.83 684.647 1410.83 688.535C1410.83 692.422 1407.64 695.583 1403.73 695.583Z" fill="white"/>
<path d="M1350.71 607.5V615.625V621.041V640C1350.71 642.979 1353.13 645.416 1356.12 645.416H1380.5H1404.87C1407.87 645.416 1410.29 642.979 1410.29 640V621.041V615.625V607.5H1350.71Z" fill="#F39C12"/>
<path d="M1350.71 604.791V612.916V618.333V637.291C1350.71 640.27 1353.13 642.708 1356.12 642.708H1380.5H1404.87C1407.87 642.708 1410.29 640.27 1410.29 637.291V618.333V612.916V604.791H1350.71Z" fill="#F1C40F"/>
<path d="M1353.42 599.375C1350.43 599.375 1348 601.812 1348 604.791V610.208H1413V604.791C1413 601.812 1410.58 599.375 1407.58 599.375H1402.17H1383.21H1377.79H1358.83H1353.42Z" fill="#F1C40F"/>
<path d="M1388.62 596.666H1372.38V645.416H1388.62V596.666Z" fill="#E74C3C"/>
<path d="M1369.36 585.833C1366.65 585.562 1364.01 586.916 1362.56 589.083C1360.46 592.333 1361.72 596.395 1365.36 598.291C1366.54 599.104 1367.79 599.374 1369.06 599.374H1369.68H1378.62H1382.37H1391.31H1391.93C1393.2 599.374 1394.49 599.104 1395.66 598.291C1399.31 596.395 1400.54 592.333 1398.43 589.083C1396.33 585.833 1391.68 584.749 1388.03 586.645C1386.86 587.187 1385.94 587.999 1385.29 589.083H1385.23C1385.15 589.353 1385.07 589.354 1385 589.625L1380.5 596.395L1376 589.625C1375.92 589.354 1375.85 589.353 1375.76 589.083H1375.7C1375.05 587.999 1374.16 587.187 1372.99 586.645C1371.85 586.103 1370.58 585.833 1369.36 585.833V585.833ZM1368.91 589.083C1369.64 589.083 1370.4 589.354 1371.08 589.625C1371.31 589.625 1371.52 589.895 1371.71 589.895C1371.84 590.166 1371.95 590.166 1372.07 590.437H1372.16C1372.22 590.437 1372.28 590.708 1372.33 590.708H1372.42H1372.45C1372.5 590.978 1372.56 590.979 1372.6 590.979L1375.76 595.853H1369.44H1369.09H1368.94H1368.64H1368.49C1368.32 595.853 1368.15 595.854 1367.98 595.583C1367.74 595.583 1367.5 595.583 1367.27 595.312C1366.81 595.312 1366.41 594.77 1366.11 594.499C1365.21 593.416 1365.08 592.062 1365.87 590.708C1366.53 589.895 1367.69 589.083 1368.91 589.083V589.083ZM1392.11 589.083C1393.34 589.083 1394.49 589.895 1395.15 590.708C1395.94 592.062 1395.78 593.416 1394.88 594.499C1394.59 594.77 1394.21 595.312 1393.75 595.312C1393.52 595.583 1393.28 595.583 1393.04 595.583C1392.87 595.854 1392.67 595.853 1392.5 595.853H1392.35H1392.05H1391.91H1391.55H1385.23L1388.39 590.979C1388.43 590.979 1388.5 590.978 1388.54 590.708H1388.57C1388.58 590.708 1388.56 590.708 1388.57 590.708H1388.66C1388.71 590.708 1388.78 590.437 1388.84 590.437H1388.93C1389.04 590.166 1389.18 590.166 1389.31 589.895C1389.51 589.895 1389.71 589.625 1389.94 589.625C1390.62 589.354 1391.38 589.083 1392.11 589.083Z" fill="#C0392B"/>
<path d="M1410.29 610.208H1350.71V612.916H1410.29V610.208Z" fill="#F39C12"/>
<path d="M1388.62 610.208H1372.38V612.916H1388.62V610.208Z" fill="#C0392B"/>
<path d="M1388.62 642.708H1372.38V645.416H1388.62V642.708Z" fill="#C0392B"/>
<path d="M618.1 581.806C617.097 580.442 615.497 579.635 613.795 579.635H599.236C596.293 579.635 593.908 582.001 593.908 584.922C593.908 587.842 596.293 590.208 599.236 590.208H606.494L602.653 602.103L599.236 612.676L594.826 626.333L591.411 636.907L587.712 648.361H517.247L488.299 565.568C487.788 564.109 486.662 562.945 485.215 562.38L459.278 561.491C456.538 560.426 453.446 561.762 452.37 564.477C451.295 567.195 452.641 570.265 455.38 571.332L479.035 571.332L506.675 650.387C505.455 650.809 504.422 651.738 503.951 653.037L495.959 675.064C495.469 676.415 495.671 677.916 496.504 679.089C497.337 680.263 498.691 680.962 500.136 680.962H504.24C501.697 683.77 500.136 687.468 500.136 691.535C500.136 700.28 507.307 707.395 516.12 707.395C524.932 707.395 532.104 700.28 532.104 691.535C532.104 687.468 530.543 683.77 527.999 680.962H562.847C560.303 683.77 558.742 687.468 558.742 691.535C558.742 700.28 565.912 707.395 574.726 707.395C583.54 707.395 590.709 700.28 590.709 691.535C590.709 687.468 589.149 683.77 586.606 680.962H591.597C594.05 680.962 596.037 678.989 596.037 676.556C596.037 674.123 594.049 672.151 591.597 672.151H506.454L511.403 658.51C512.042 658.777 512.733 658.934 513.455 658.934H591.596C593.913 658.934 595.963 657.449 596.669 655.262C597.374 653.075 618.868 586.536 618.868 586.536C619.388 584.927 619.103 583.17 618.1 581.806ZM516.12 698.583C512.202 698.583 509.016 695.422 509.016 691.535C509.016 687.647 512.202 684.486 516.12 684.486C520.038 684.486 523.223 687.647 523.223 691.535C523.223 695.422 520.038 698.583 516.12 698.583ZM574.725 698.583C570.808 698.583 567.621 695.422 567.621 691.535C567.621 687.647 570.808 684.486 574.725 684.486C578.643 684.486 581.829 687.647 581.829 691.535C581.829 695.422 578.643 698.583 574.725 698.583Z" fill="white"/>
<path d="M521.708 610.5V618.625V624.041V643C521.708 645.979 524.133 648.416 527.125 648.416H551.5H575.875C578.867 648.416 581.291 645.979 581.291 643V624.041V618.625V610.5H521.708Z" fill="#F39C12"/>
<path d="M521.708 607.791V615.916V621.333V640.291C521.708 643.27 524.133 645.708 527.125 645.708H551.5H575.875C578.867 645.708 581.291 643.27 581.291 640.291V621.333V615.916V607.791H521.708Z" fill="#F1C40F"/>
<path d="M524.417 602.375C521.425 602.375 519 604.812 519 607.791V613.208H584V607.791C584 604.812 581.576 602.375 578.583 602.375H573.167H554.208H548.792H529.833H524.417Z" fill="#F1C40F"/>
<path d="M559.625 599.666H543.375V648.416H559.625V599.666Z" fill="#E74C3C"/>
<path d="M540.355 588.833C537.65 588.562 535.011 589.916 533.563 592.083C531.457 595.333 532.715 599.395 536.363 601.291C537.536 602.104 538.793 602.374 540.057 602.374H540.683H549.621H553.375H562.309H562.935C564.2 602.374 565.486 602.104 566.659 601.291C570.307 599.395 571.537 595.333 569.43 592.083C567.325 588.833 562.68 587.749 559.032 589.645C557.86 590.187 556.939 590.999 556.294 592.083H556.235C556.148 592.353 556.072 592.354 555.996 592.625L551.498 599.395L546.999 592.625C546.923 592.354 546.847 592.353 546.761 592.083H546.701C546.055 590.999 545.163 590.187 543.989 589.645C542.849 589.103 541.584 588.833 540.355 588.833V588.833ZM539.908 592.083C540.641 592.083 541.399 592.354 542.083 592.625C542.312 592.625 542.519 592.895 542.708 592.895C542.842 593.166 542.953 593.166 543.066 593.437H543.155C543.216 593.437 543.28 593.708 543.334 593.708H543.423H543.453C543.496 593.978 543.564 593.979 543.602 593.979L546.761 598.853H540.444H540.087H539.938H539.64H539.491C539.318 598.853 539.155 598.854 538.985 598.583C538.742 598.583 538.499 598.583 538.27 598.312C537.814 598.312 537.406 597.77 537.108 597.499C536.212 596.416 536.08 595.062 536.869 593.708C537.528 592.895 538.687 592.083 539.908 592.083V592.083ZM563.114 592.083C564.335 592.083 565.494 592.895 566.152 593.708C566.943 595.062 566.781 596.416 565.884 597.499C565.586 597.77 565.21 598.312 564.752 598.312C564.525 598.583 564.281 598.583 564.037 598.583C563.869 598.854 563.674 598.853 563.501 598.853H563.352H563.054H562.905H562.548H556.235L559.39 593.979C559.428 593.979 559.495 593.978 559.539 593.708H559.568C559.577 593.708 559.563 593.708 559.568 593.708H559.658C559.712 593.708 559.777 593.437 559.837 593.437H559.926C560.04 593.166 560.181 593.166 560.313 592.895C560.506 592.895 560.711 592.625 560.939 592.625C561.624 592.354 562.382 592.083 563.114 592.083Z" fill="#C0392B"/>
<path d="M581.291 613.208H521.708V615.916H581.291V613.208Z" fill="#F39C12"/>
<path d="M559.625 613.208H543.375V615.916H559.625V613.208Z" fill="#C0392B"/>
<path d="M559.625 645.708H543.375V648.416H559.625V645.708Z" fill="#C0392B"/>
<g clip-path="url(#clip0)">
<path d="M301.289 568.122C301.143 568.124 300.996 568.125 300.85 568.125C293.481 568.125 286.332 566.681 279.601 563.834C273.101 561.085 267.263 557.149 262.248 552.134L262.208 552.093C260.763 550.646 260.764 548.29 262.211 546.843L264.317 544.737C265.021 544.033 265.96 543.645 266.961 543.645H266.962C267.963 543.646 268.902 544.033 269.606 544.738L269.644 544.776C269.945 545.077 270.346 545.242 270.773 545.242H270.793C271.234 545.237 271.644 545.059 271.948 544.741L276.238 540.254C276.673 539.798 277.259 539.544 277.888 539.536H277.914C278.533 539.536 279.114 539.777 279.554 540.216C280.464 541.127 280.481 542.624 279.591 543.555L276.503 546.784C276.228 547.073 276.213 547.528 276.471 547.799C276.607 547.943 276.791 548.022 276.988 548.022H276.989C277.186 548.022 277.369 547.944 277.505 547.802L278.477 546.785C279.363 545.857 280.801 545.778 281.75 546.603C282.241 547.03 282.527 547.622 282.557 548.271C282.587 548.91 282.35 549.542 281.907 550.005L281.203 550.742C280.84 551.122 280.686 551.636 280.779 552.152C280.871 552.665 281.193 553.089 281.66 553.315C287.669 556.219 294.126 557.692 300.85 557.692C300.981 557.692 301.111 557.691 301.242 557.69C302.24 557.68 303.173 558.062 303.88 558.763C304.59 559.466 304.98 560.404 304.98 561.403V564.406C304.981 566.438 303.324 568.105 301.289 568.122V568.122ZM303.342 561.403C303.342 560.845 303.123 560.32 302.727 559.928C302.332 559.537 301.809 559.32 301.257 559.33C301.121 559.331 300.986 559.331 300.85 559.331C293.877 559.331 287.18 557.804 280.947 554.791C280.002 554.335 279.353 553.479 279.166 552.445C278.978 551.406 279.288 550.373 280.017 549.61L280.723 548.873C280.859 548.731 280.929 548.543 280.92 548.347C280.911 548.15 280.824 547.97 280.674 547.84C280.392 547.595 279.937 547.63 279.661 547.918L278.689 548.935C278.248 549.397 277.628 549.662 276.989 549.662C276.988 549.662 276.987 549.662 276.986 549.662C276.337 549.661 275.732 549.401 275.283 548.93C274.417 548.019 274.432 546.579 275.318 545.652L278.406 542.423C278.68 542.136 278.675 541.657 278.395 541.376C278.263 541.245 278.089 541.177 277.906 541.176C277.723 541.178 277.551 541.253 277.422 541.387L273.133 545.874C272.521 546.513 271.697 546.871 270.812 546.881C270.799 546.882 270.786 546.882 270.773 546.882C269.908 546.882 269.097 546.547 268.488 545.939L268.475 545.926L268.466 545.918L268.446 545.897C268.052 545.502 267.524 545.285 266.961 545.285C266.961 545.285 266.961 545.285 266.961 545.285C266.398 545.285 265.871 545.502 265.476 545.896L263.37 548.003C262.562 548.811 262.56 550.127 263.37 550.938L263.409 550.977C268.271 555.84 273.935 559.658 280.24 562.325C286.767 565.086 293.702 566.486 300.85 566.486C300.992 566.486 301.133 566.485 301.274 566.484H301.274C302.414 566.474 303.342 565.542 303.342 564.407V561.403Z" fill="black"/>
<path d="M302.495 555.615C302.042 555.615 301.676 555.248 301.676 554.796V514.39C301.676 514.005 301.383 513.854 301.293 513.817C301.203 513.78 300.889 513.679 300.617 513.951L271.799 542.77C271.479 543.09 270.959 543.09 270.639 542.77C270.319 542.45 270.319 541.931 270.639 541.611L299.458 512.792C299.896 512.354 300.459 512.125 301.041 512.125C301.334 512.125 301.632 512.183 301.92 512.302C302.78 512.659 303.315 513.458 303.315 514.39V554.796C303.315 555.248 302.948 555.615 302.495 555.615V555.615Z" fill="black"/>
<path d="M296.282 556.665C294.311 556.665 292.708 555.062 292.708 553.091C292.708 551.12 294.311 549.517 296.282 549.517C298.253 549.517 299.857 551.12 299.857 553.091C299.857 555.062 298.253 556.665 296.282 556.665ZM296.282 551.156C295.215 551.156 294.347 552.024 294.347 553.091C294.347 554.158 295.215 555.026 296.282 555.026C297.349 555.026 298.217 554.158 298.217 553.091C298.217 552.024 297.349 551.156 296.282 551.156Z" fill="black"/>
<path d="M282.195 535.516C282.195 533.691 283.68 532.206 285.506 532.206C287.331 532.206 288.816 533.691 288.816 535.516C288.816 537.341 287.331 538.827 285.506 538.827C283.68 538.827 282.195 537.341 282.195 535.516V535.516ZM285.506 537.187C286.427 537.187 287.177 536.437 287.177 535.516C287.177 534.594 286.427 533.844 285.506 533.844C284.584 533.844 283.834 534.594 283.834 535.516C283.834 536.437 284.584 537.187 285.506 537.187Z" fill="black"/>
<path d="M297.462 539.318C295.572 539.318 294.034 537.781 294.034 535.891C294.034 534.001 295.572 532.464 297.462 532.464C299.351 532.464 300.888 534.001 300.888 535.891C300.888 537.781 299.351 539.318 297.462 539.318ZM297.462 534.103C296.475 534.103 295.674 534.905 295.674 535.891C295.674 536.877 296.475 537.679 297.462 537.679C298.447 537.679 299.249 536.877 299.249 535.891C299.249 534.905 298.447 534.103 297.462 534.103Z" fill="black"/>
<path d="M300.234 525.981C300.234 527.995 298.595 529.633 296.582 529.633H295.98C293.966 529.633 292.328 527.995 292.328 525.981C292.328 525.107 293.039 524.397 293.912 524.397H294.127L294.093 523.755C294.072 523.357 294.217 522.962 294.491 522.672C294.766 522.383 295.153 522.217 295.552 522.217H297.01C297.409 522.217 297.795 522.383 298.07 522.672C298.345 522.962 298.49 523.357 298.469 523.755L298.435 524.397H298.65C299.523 524.396 300.234 525.107 300.234 525.981V525.981ZM297.886 526.036C297.58 526.036 297.284 525.908 297.074 525.687C296.863 525.464 296.752 525.162 296.768 524.857L296.822 523.856H295.74L295.793 524.857C295.809 525.163 295.698 525.465 295.487 525.687C295.277 525.909 294.981 526.036 294.675 526.036H293.968C293.997 527.12 294.888 527.993 295.98 527.993H296.582C297.673 527.993 298.565 527.12 298.594 526.036H297.886Z" fill="black"/>
<path d="M288.843 550.602C286.55 550.602 284.686 548.737 284.686 546.444V545.734C284.686 543.441 286.55 541.576 288.843 541.576C289.792 541.576 290.564 542.348 290.564 543.297V543.704L291.474 543.656C291.905 543.633 292.329 543.79 292.642 544.086C292.954 544.383 293.133 544.799 293.133 545.229V546.948C293.133 547.378 292.954 547.795 292.642 548.091C292.329 548.388 291.903 548.544 291.474 548.521L290.564 548.473V548.881C290.564 549.829 289.792 550.602 288.843 550.602ZM291.494 546.881V545.297L290.16 545.368C289.839 545.384 289.523 545.268 289.291 545.048C289.058 544.827 288.925 544.517 288.925 544.197V543.297C288.925 543.252 288.888 543.216 288.844 543.216C287.455 543.216 286.325 544.345 286.325 545.734V546.444C286.325 547.833 287.455 548.963 288.844 548.963C288.888 548.963 288.925 548.926 288.925 548.881V547.981C288.925 547.661 289.058 547.351 289.291 547.13C289.523 546.91 289.84 546.794 290.16 546.811L291.494 546.881Z" fill="black"/>
</g>
<path d="M197 522.625C181.561 522.625 169 531.563 169 542.548C169 549.427 173.857 557.625 197 557.625C220.143 557.625 225 549.427 225 542.548C225 531.563 212.439 522.625 197 522.625V522.625ZM197 554.125C185.823 554.125 172.5 552.117 172.5 542.548C172.5 537.131 176.449 532.334 182.5 529.34C185.432 533.454 186.5 538.375 186.5 538.375C188.919 537.723 188.486 530.81 187.227 527.497C189.263 526.9 191.447 526.494 193.725 526.289C197.438 530.578 198.75 536.625 198.75 536.625C201.055 536.004 200.773 529.685 199.652 526.225C201.495 526.359 203.269 526.64 204.968 527.034C209.437 531.303 211 538.375 211 538.375C212.945 537.851 213.047 533.268 212.358 529.77C217.926 532.783 221.5 537.389 221.5 542.548C221.5 552.117 208.177 554.125 197 554.125V554.125Z" fill="black"/>
<path d="M268.707 481.811V456.197L266.853 459.41L266.854 459.411C266.637 459.786 266.157 459.915 265.782 459.698C265.76 459.686 265.74 459.673 265.72 459.659L257.303 454.799L257.693 454.121L257.3 454.801C256.924 454.585 256.796 454.104 257.013 453.729C257.025 453.708 257.038 453.687 257.052 453.667L264.858 440.146L264.856 440.143C264.954 439.974 265.105 439.855 265.276 439.795L273.522 436.445C273.871 436.303 274.262 436.43 274.466 436.73C274.466 436.73 278.012 441.603 282 441.625C286.02 441.646 289.619 436.702 289.619 436.702C289.846 436.399 290.25 436.305 290.58 436.46L298.823 439.809L298.824 439.808C299.017 439.886 299.161 440.032 299.242 440.208L307.049 453.731L307.052 453.729C307.269 454.104 307.14 454.585 306.765 454.801C306.744 454.814 306.722 454.825 306.7 454.835L298.281 459.695L298.283 459.698C297.908 459.915 297.427 459.786 297.211 459.411C297.202 459.395 297.193 459.379 297.185 459.364L295.357 456.197V481.811C295.357 482.244 295.006 482.596 294.572 482.596H269.492C269.059 482.596 268.707 482.244 268.707 481.811Z" fill="black"/>
<g clip-path="url(#clip1)">
<path d="M215.95 441.551C215.921 441.527 214.442 440.45 213.331 441.872C209.773 446.438 197.955 461.463 192.231 466.781C187.231 471.427 182.838 468.78 180.866 467.066V467.07C180.866 467.07 179.855 466.02 177.542 466.742C177.536 466.743 177.536 466.743 177.531 466.743C176.592 467.052 175.317 467.445 173.596 467.946C171.156 468.652 170.399 470.487 170.317 472.242C170.363 472.824 170.651 475.468 172.128 477.228C174.82 479.983 180.078 482.836 185.654 483.432C192.095 484.116 193.67 481.443 193.67 481.443C193.67 481.443 197.599 476.129 201.279 470.726C201.281 470.72 201.287 470.718 201.29 470.713C204.467 466.137 208.227 463.838 208.307 463.788C208.524 463.692 208.733 463.602 208.934 463.528C209.341 463.407 211.542 462.89 211.724 465.884L212.66 481.878L212.665 482.084C212.665 482.084 212.665 482.088 212.665 482.091L212.674 482.382C212.711 482.809 212.904 483.546 213.806 483.548C214.65 483.531 214.761 482.589 214.769 482.206V482.042C215.111 477.868 216.608 462.348 217.993 459.518C222.697 448.748 218.483 443.542 215.95 441.551Z" fill="#241F20"/>
</g>
<g clip-path="url(#clip2)">
<path d="M387.215 644.595C382.302 642.151 380.164 644.775 372.916 643.503C365.667 642.232 364.552 639.026 359.098 639.664C353.646 640.29 350.107 645.273 345.87 655.048C341.632 664.834 340.788 672.288 343.433 674.168C346.078 676.048 349.885 673.467 353.672 670.122C356.723 667.516 358.016 667.541 368.381 669.359C378.735 671.175 379.794 671.444 381.952 675.082C384.374 679.516 387.077 683.238 390.203 682.371C393.33 681.503 395.074 674.207 394.418 663.562C393.761 652.93 392.115 647.049 387.215 644.595ZM355.093 658.426C352.588 657.987 350.915 655.587 351.359 653.06C351.8 650.543 354.192 648.845 356.697 649.284C359.201 649.724 360.872 652.135 360.431 654.651C359.99 657.167 357.598 658.865 355.093 658.426ZM376.45 659.78C375.226 659.566 374.398 658.385 374.615 657.15C374.831 655.915 376.012 655.087 377.235 655.302C378.47 655.518 379.298 656.699 379.082 657.934C378.854 659.167 377.685 659.997 376.45 659.78ZM380.462 665.529C379.239 665.314 378.411 664.134 378.627 662.899C378.846 661.652 380.024 660.836 381.248 661.05C382.483 661.267 383.311 662.447 383.094 663.682C382.876 664.929 381.697 665.745 380.462 665.529ZM382.181 655.729C380.958 655.515 380.13 654.334 380.346 653.099C380.563 651.864 381.743 651.036 382.967 651.251C384.202 651.467 385.03 652.648 384.813 653.883C384.597 655.118 383.416 655.946 382.181 655.729ZM386.203 661.491C384.968 661.274 384.152 660.096 384.368 658.861C384.585 657.626 385.765 656.798 386.989 657.013C388.212 657.227 389.04 658.407 388.824 659.642C388.607 660.878 387.438 661.708 386.203 661.491Z" fill="black"/>
</g>
<path d="M345 473.625C346.2 462.825 351.833 445.791 354.5 438.625H384.5C390.1 450.625 393.167 466.958 394 473.625L374 479.125L369.5 463.625L365 479.125L345 473.625Z" fill="black"/>
<path d="M393.998 473.272C393.766 471.069 393.397 468.726 392.934 466.368C392.934 466.322 392.919 466.26 392.903 466.214C390.299 453.068 384.828 438.89 384.751 438.72C384.597 438.319 384.181 438.073 383.749 438.134C374.302 439.552 364.701 439.552 355.253 438.134C354.822 438.073 354.406 438.304 354.252 438.72C354.19 438.89 348.704 453.068 346.099 466.214C346.084 466.26 346.068 466.322 346.068 466.368C345.606 468.742 345.236 471.069 345.005 473.272C344.959 473.719 345.251 474.136 345.683 474.259L365.132 479.468C365.379 479.53 365.625 479.499 365.841 479.375C366.057 479.252 366.211 479.036 366.273 478.805L369.509 465.798L372.745 478.805C372.807 479.052 372.961 479.252 373.177 479.375C373.316 479.452 373.485 479.499 373.639 479.499C373.716 479.499 373.793 479.483 373.886 479.468L393.32 474.259C393.751 474.136 394.028 473.719 393.998 473.272ZM364.701 477.434L346.947 472.671C347.132 471.099 347.378 469.481 347.686 467.832C350.568 469.204 358.551 472.671 365.826 472.933L364.701 477.434ZM369.509 461.036C369.077 461.036 368.708 461.329 368.615 461.745L366.288 471.099C358.952 470.961 350.399 467.092 348.056 465.967C350.322 454.81 354.622 443.02 355.731 440.092C364.886 441.386 374.148 441.386 383.302 440.092C384.396 443.02 388.696 454.81 390.977 465.967C388.634 467.092 380.097 470.961 372.745 471.099L370.418 461.745C370.31 461.329 369.94 461.036 369.509 461.036ZM374.317 477.434L373.192 472.918C380.466 472.656 388.434 469.188 391.331 467.817C391.64 469.466 391.886 471.099 392.071 472.656L374.317 477.434Z" fill="black"/>
<path d="M365.826 472.933C358.552 472.671 350.568 469.204 347.687 467.832L348.056 465.967C350.399 467.092 358.952 470.961 366.288 471.099L365.826 472.933Z" fill="white"/>
<path d="M372.745 471.099C380.097 470.961 388.635 467.092 390.977 465.967L391.332 467.817C388.434 469.188 380.467 472.656 373.192 472.918L372.745 471.099Z" fill="white"/>
<path d="M367.043 442.311C366.611 442.573 366.457 443.143 366.719 443.575C366.734 443.605 368.43 446.487 367.258 448.984C366.719 450.124 365.979 451.095 365.255 452.02C364.176 453.423 363.144 454.763 363.144 456.397C363.144 456.905 363.56 457.322 364.068 457.322C364.577 457.322 364.993 456.905 364.993 456.397C364.993 455.38 365.794 454.347 366.719 453.145C367.459 452.19 368.306 451.095 368.923 449.77C370.526 446.38 368.399 442.773 368.306 442.619C368.06 442.203 367.49 442.049 367.043 442.311Z" fill="white"/>
<path d="M373.284 457.029C372.96 455.703 373.284 454.393 373.685 452.729C373.931 451.758 374.193 450.648 374.378 449.369C374.933 445.47 372.005 442.573 371.882 442.45C371.512 442.095 370.926 442.111 370.572 442.465C370.217 442.835 370.217 443.421 370.587 443.775C370.618 443.806 372.976 446.148 372.544 449.107C372.375 450.294 372.128 451.311 371.882 452.282C371.435 454.116 371.034 455.703 371.481 457.476C371.589 457.892 371.959 458.185 372.375 458.185C372.452 458.185 372.529 458.169 372.59 458.154C373.114 458.015 373.407 457.522 373.284 457.029Z" fill="white"/>
<g clip-path="url(#clip3)">
<path d="M379.863 532.966C379.526 532.765 379.182 532.559 378.831 532.336L378.832 529.458H378.833C379.478 529.458 380 528.936 380 528.291V521.291C380 516.789 376.336 513.125 371.833 513.125H359C357.712 513.125 356.667 514.172 356.667 515.458H354.333C353.046 515.458 352 516.505 352 517.791V520.125C352 521.411 353.046 522.458 354.333 522.458H356.667C356.667 523.744 357.713 524.791 359 524.791H360.32L356.862 529.977C356.623 530.335 356.6 530.795 356.805 531.175C357.008 531.554 357.402 531.791 357.833 531.791H360.166C360.419 531.791 360.666 531.709 360.866 531.558L368.333 525.957V528.291C368.333 528.936 368.855 529.458 369.5 529.458V532.343L369.377 532.428C365.061 535.369 361.333 537.909 361.333 556.291V564.458C361.333 567.032 363.427 569.125 366 569.125H382.333C384.906 569.125 387 567.032 387 564.458V556.291C387 538.15 384.288 535.609 379.863 532.966ZM356.667 520.125H354.333V517.791H356.667V520.125ZM360.249 529.105L363.124 524.791H366.001L360.249 529.105ZM359 522.458V515.458H371.833C375.051 515.458 377.666 518.075 377.666 521.291V527.125H370.666V523.625C370.666 522.98 370.145 522.458 369.5 522.458H359ZM370.689 534.356L371.33 533.917C371.646 533.7 371.833 533.341 371.833 532.958V529.458H376.5L376.498 532.959C376.498 533.343 376.684 533.701 377.001 533.919C377.569 534.313 378.125 534.646 378.667 534.97C381.409 536.607 383.677 537.976 384.413 548.125H363.979C364.858 538.331 367.502 536.528 370.689 534.356ZM384.667 564.458C384.667 565.744 383.621 566.791 382.333 566.791H366C364.712 566.791 363.667 565.744 363.667 564.458V562.125H384.667V564.458V564.458ZM384.667 559.791H363.667V556.291C363.667 554.114 363.718 552.183 363.813 550.458H384.549C384.626 552.181 384.667 554.111 384.667 556.291V559.791H384.667Z" fill="black"/>
<path d="M349.667 518.958C349.667 518.313 349.145 517.791 348.5 517.791H346.167C345.522 517.791 345 518.313 345 518.958C345 519.603 345.522 520.125 346.167 520.125H348.5C349.145 520.125 349.667 519.603 349.667 518.958Z" fill="black"/>
<path d="M346.812 515.335L349.143 516.502C349.309 516.585 349.489 516.625 349.665 516.625C350.091 516.625 350.503 516.389 350.708 515.98C350.996 515.404 350.763 514.703 350.187 514.414L347.855 513.248C347.288 512.964 346.579 513.192 346.29 513.769C346.003 514.345 346.235 515.047 346.812 515.335Z" fill="black"/>
<path d="M349.145 521.414L346.812 522.581C346.235 522.869 346.003 523.57 346.29 524.146C346.495 524.555 346.908 524.791 347.334 524.791C347.509 524.791 347.687 524.751 347.855 524.668L350.189 523.502C350.765 523.213 350.998 522.513 350.711 521.936C350.421 521.36 349.724 521.13 349.145 521.414Z" fill="black"/>
</g>
<path d="M258 628.125C258 625.375 260.25 623.125 263 623.125H303C304.326 623.125 305.598 623.651 306.536 624.589C307.473 625.527 308 626.798 308 628.125V648.125C308 649.451 307.473 650.722 306.536 651.66C305.598 652.598 304.326 653.125 303 653.125H263C261.674 653.125 260.402 652.598 259.464 651.66C258.527 650.722 258 649.451 258 648.125V628.125ZM263 628.125V633.125H268V628.125H263ZM265.5 635.625V640.625H270.5V635.625H265.5ZM263 643.125V648.125H268V643.125H263ZM270.5 643.125V648.125H295.5V643.125H270.5ZM298 643.125V648.125H303V643.125H298ZM273 635.625V640.625H278V635.625H273ZM280.5 635.625V640.625H285.5V635.625H280.5ZM288 635.625V640.625H293V635.625H288ZM295.5 635.625V640.625H300.5V635.625H295.5ZM270.5 628.125V633.125H275.5V628.125H270.5ZM278 628.125V633.125H283V628.125H278ZM285.5 628.125V633.125H290.5V628.125H285.5ZM293 628.125V633.125H303V628.125H293Z" fill="black"/>
<g clip-path="url(#clip4)">
<path d="M196.341 614.741C195.914 614.975 195.623 615.43 195.623 615.949V619.951C195.623 620.471 195.914 620.925 196.341 621.16C196.36 621.169 196.379 621.177 196.397 621.186V621.16C196.577 621.266 196.784 621.328 197 621.328C197.217 621.328 197.423 621.266 197.603 621.16V621.186C197.621 621.177 197.641 621.169 197.659 621.16C198.086 620.925 198.377 620.471 198.377 619.951V615.95C198.377 615.43 198.086 614.975 197.659 614.741C197.641 614.732 197.621 614.724 197.603 614.715V614.741C197.423 614.635 197.217 614.573 197 614.573C196.784 614.573 196.577 614.635 196.397 614.741V614.715C196.379 614.724 196.36 614.732 196.341 614.741Z" fill="black"/>
<path d="M182.371 622.145V624.85C186.533 627.199 191.312 628.574 196.397 628.675V625.343C196.379 625.338 196.36 625.335 196.34 625.33C195.237 625.037 194.419 624.026 194.419 622.834V615.95C194.419 614.757 195.238 613.747 196.34 613.454C196.36 613.449 196.379 613.446 196.397 613.441V610.098H194.418C187.793 610.098 182.371 615.52 182.371 622.145Z" fill="black"/>
<path d="M199.582 610.098H197.602V613.441C197.621 613.445 197.641 613.449 197.659 613.454C198.763 613.746 199.582 614.756 199.582 615.949V622.833C199.582 624.026 198.763 625.036 197.659 625.329C197.64 625.334 197.621 625.337 197.602 625.343V628.674C202.688 628.573 207.468 627.199 211.629 624.85V622.144C211.629 615.52 206.207 610.098 199.582 610.098Z" fill="black"/>
<path d="M182.371 626.224V641.076C182.371 647.703 187.793 653.125 194.418 653.125H199.582C206.207 653.125 211.629 647.703 211.629 641.076V626.224C207.268 628.562 202.285 629.89 197 629.89C191.715 629.89 186.732 628.563 182.371 626.224Z" fill="black"/>
<path d="M198.015 604.793C198.289 604.147 198.683 603.573 199.186 603.087L199.274 603.002C199.895 602.402 200.38 601.695 200.717 600.901C201.054 600.106 201.224 599.265 201.224 598.402V595.125H200.021V598.402C200.021 599.102 199.882 599.785 199.608 600.43C199.335 601.075 198.94 601.649 198.438 602.136L198.349 602.221C197.728 602.821 197.243 603.528 196.906 604.323C196.569 605.118 196.397 605.958 196.397 606.821V610.098H197.602V606.821C197.602 606.121 197.742 605.438 198.015 604.793Z" fill="black"/>
</g>
<g clip-path="url(#clip5)">
<path d="M1894.91 522.651L1705.58 350.128C1697.26 342.554 1684.73 342.555 1676.42 350.127L1487.09 522.652C1480.43 528.718 1478.23 538.065 1481.48 546.463C1484.74 554.861 1492.66 560.286 1501.66 560.286H1531.9V733.142C1531.9 739.995 1537.46 745.552 1544.31 745.552H1648.09C1654.95 745.552 1660.5 739.996 1660.5 733.142V628.19H1721.5V733.143C1721.5 739.996 1727.06 745.553 1733.91 745.553H1837.68C1844.54 745.553 1850.09 739.997 1850.09 733.143V560.286H1880.34C1889.35 560.286 1897.27 554.86 1900.52 546.463C1903.77 538.064 1901.57 528.718 1894.91 522.651Z" fill="white"/>
</g>
<defs>
<clipPath id="clip0">
<rect width="56" height="56" transform="matrix(1 0 0 -1 255 568.125)" fill="white"/>
</clipPath>
<clipPath id="clip1">
<rect x="170.218" y="437.343" width="50" height="50" fill="white"/>
</clipPath>
<clipPath id="clip2">
<rect x="345.634" y="625.393" width="60" height="60" transform="rotate(9.9478 345.634 625.393)" fill="white"/>
</clipPath>
<clipPath id="clip3">
<rect x="338" y="513.125" width="56" height="56" fill="white"/>
</clipPath>
<clipPath id="clip4">
<rect x="168" y="595.125" width="58" height="58" fill="white"/>
</clipPath>
<clipPath id="clip5">
<rect x="1480" y="334" width="422" height="422" fill="white"/>
</clipPath>
</defs>
</svg>
