<svg width="1280" height="720" viewBox="0 0 1280 720" fill="none" xmlns="http://www.w3.org/2000/svg">
<rect width="1280" height="720" fill="#0594B4"/>
<ellipse cx="648.5" cy="681" rx="631.5" ry="20" fill="#026F8E" fill-opacity="0.5"/>
<path d="M45.9932 270.365C45.9932 262.081 52.7089 255.365 60.9932 255.365H238.425C246.709 255.365 253.425 262.081 253.425 270.365V283.376H45.9932V270.365Z" fill="white"/>
<path d="M46.75 593.776C46.75 600.404 52.1226 605.776 58.75 605.776H241.731C248.359 605.776 253.731 600.404 253.731 593.776V579.383H46.75V593.776Z" fill="white"/>
<rect x="43.3311" y="253" width="212.538" height="355.619" rx="15" stroke="white" stroke-width="12"/>
<rect x="133.736" y="267.002" width="33.1176" height="5.33482" rx="2.66741" stroke="black" stroke-width="3"/>
<rect x="136.068" y="585.425" width="28.7961" height="13.6551" rx="6.82754" stroke="black" stroke-width="3"/>
<rect x="61.1343" y="365.895" width="50.7223" height="50.7223" rx="10" fill="#D0CCCC" stroke="white" stroke-width="5"/>
<rect x="126.24" y="365.895" width="51.4793" height="50.7223" rx="10" fill="#D0CCCC" stroke="white" stroke-width="5"/>
<rect x="192.104" y="365.895" width="50.7223" height="50.7223" rx="10" fill="#D0CCCC" stroke="white" stroke-width="5"/>
<rect x="61.1338" y="427.973" width="50.7223" height="50.7223" rx="10" fill="#D0CCCC" stroke="white" stroke-width="5"/>
<rect x="126.24" y="427.973" width="51.4793" height="50.7223" rx="10" fill="#D0CCCC" stroke="white" stroke-width="5"/>
<rect x="192.104" y="427.973" width="50.7223" height="50.7223" rx="10" fill="#D0CCCC" stroke="white" stroke-width="5"/>
<rect x="61.1338" y="491.565" width="50.7223" height="50.7223" rx="10" fill="#D0CCCC" stroke="white" stroke-width="5"/>
<rect x="126.24" y="502.164" width="51.4793" height="50.7223" rx="10" fill="#D0CCCC" stroke="white" stroke-width="5"/>
<rect x="195.845" y="514.048" width="50.7223" height="50.7223" rx="10" transform="rotate(7.93126 195.845 514.048)" fill="#D0CCCC" stroke="white" stroke-width="5"/>
<g clip-path="url(#clip0)">
<path d="M165.826 474.151C165.715 474.152 165.605 474.153 165.494 474.153C159.915 474.153 154.503 473.06 149.407 470.905C144.486 468.823 140.067 465.843 136.27 462.047L136.239 462.016C135.146 460.92 135.147 459.137 136.242 458.042L137.837 456.447C138.37 455.914 139.08 455.621 139.838 455.621H139.838C140.597 455.621 141.307 455.915 141.841 456.448L141.869 456.477C142.097 456.704 142.4 456.83 142.724 456.83H142.739C143.073 456.826 143.383 456.691 143.614 456.45L146.861 453.053C147.191 452.708 147.635 452.515 148.11 452.51H148.13C148.599 452.51 149.039 452.692 149.371 453.025C150.06 453.714 150.073 454.848 149.4 455.552L147.062 457.997C146.853 458.216 146.842 458.56 147.037 458.765C147.141 458.874 147.28 458.934 147.429 458.934H147.43C147.579 458.934 147.717 458.875 147.82 458.767L148.556 457.998C149.227 457.295 150.316 457.235 151.034 457.86C151.406 458.183 151.623 458.631 151.645 459.122C151.668 459.607 151.488 460.085 151.153 460.435L150.62 460.994C150.345 461.281 150.228 461.67 150.299 462.061C150.369 462.449 150.612 462.77 150.966 462.941C155.515 465.14 160.403 466.254 165.494 466.254C165.593 466.254 165.692 466.254 165.79 466.253C166.546 466.245 167.252 466.535 167.788 467.065C168.325 467.598 168.621 468.308 168.621 469.064V471.338C168.621 472.876 167.367 474.138 165.826 474.151V474.151ZM167.38 469.064C167.38 468.642 167.215 468.245 166.914 467.947C166.616 467.651 166.219 467.487 165.802 467.495C165.699 467.496 165.597 467.496 165.494 467.496C160.215 467.496 155.145 466.34 150.426 464.059C149.711 463.713 149.219 463.066 149.078 462.282C148.935 461.496 149.171 460.714 149.722 460.136L150.256 459.578C150.359 459.471 150.412 459.329 150.405 459.18C150.399 459.031 150.333 458.895 150.219 458.796C150.006 458.61 149.662 458.637 149.453 458.855L148.717 459.625C148.383 459.975 147.914 460.175 147.429 460.175C147.429 460.175 147.428 460.175 147.428 460.175C146.936 460.175 146.479 459.978 146.139 459.621C145.482 458.932 145.494 457.842 146.165 457.14L148.503 454.695C148.71 454.478 148.706 454.115 148.494 453.903C148.395 453.803 148.262 453.752 148.124 453.751C147.985 453.753 147.855 453.81 147.758 453.911L144.51 457.308C144.047 457.792 143.423 458.063 142.753 458.071C142.743 458.071 142.734 458.071 142.724 458.071C142.069 458.071 141.455 457.817 140.994 457.357L140.984 457.347L140.978 457.341L140.962 457.325C140.664 457.027 140.264 456.862 139.838 456.862C139.838 456.862 139.838 456.862 139.838 456.862C139.412 456.862 139.013 457.026 138.714 457.325L137.12 458.919C136.508 459.531 136.507 460.528 137.119 461.141L137.149 461.171C140.83 464.853 145.117 467.743 149.891 469.762C154.832 471.852 160.082 472.912 165.494 472.912C165.601 472.912 165.708 472.912 165.814 472.911H165.815C166.678 472.903 167.38 472.197 167.38 471.338V469.064Z" fill="black"/>
<path d="M166.739 464.683C166.396 464.683 166.119 464.405 166.119 464.062V433.473C166.119 433.182 165.897 433.067 165.829 433.039C165.761 433.011 165.523 432.935 165.317 433.141L143.5 454.958C143.258 455.2 142.865 455.2 142.623 454.958C142.38 454.716 142.38 454.323 142.623 454.08L164.44 432.263C164.771 431.932 165.198 431.758 165.638 431.758C165.86 431.758 166.085 431.802 166.304 431.893C166.955 432.162 167.359 432.768 167.359 433.473V464.062C167.359 464.405 167.082 464.683 166.739 464.683V464.683Z" fill="black"/>
<path d="M162.035 465.478C160.543 465.478 159.329 464.264 159.329 462.772C159.329 461.28 160.543 460.066 162.035 460.066C163.527 460.066 164.741 461.28 164.741 462.772C164.741 464.264 163.527 465.478 162.035 465.478ZM162.035 461.306C161.227 461.306 160.57 461.964 160.57 462.772C160.57 463.58 161.227 464.237 162.035 464.237C162.843 464.237 163.5 463.58 163.5 462.772C163.5 461.964 162.843 461.306 162.035 461.306Z" fill="black"/>
<path d="M151.37 449.466C151.37 448.085 152.494 446.96 153.877 446.96C155.258 446.96 156.383 448.085 156.383 449.466C156.383 450.848 155.258 451.973 153.877 451.973C152.494 451.973 151.37 450.848 151.37 449.466V449.466ZM153.877 450.732C154.574 450.732 155.142 450.164 155.142 449.466C155.142 448.769 154.574 448.201 153.877 448.201C153.179 448.201 152.611 448.769 152.611 449.466C152.611 450.164 153.179 450.732 153.877 450.732Z" fill="black"/>
<path d="M162.928 452.345C161.498 452.345 160.333 451.181 160.333 449.75C160.333 448.32 161.498 447.156 162.928 447.156C164.359 447.156 165.523 448.32 165.523 449.75C165.523 451.181 164.358 452.345 162.928 452.345ZM162.928 448.397C162.182 448.397 161.575 449.004 161.575 449.75C161.575 450.497 162.182 451.104 162.928 451.104C163.674 451.104 164.281 450.497 164.281 449.75C164.281 449.004 163.674 448.397 162.928 448.397Z" fill="black"/>
<path d="M165.027 442.248C165.027 443.772 163.786 445.012 162.262 445.012H161.806C160.282 445.012 159.042 443.772 159.042 442.248C159.042 441.587 159.58 441.049 160.241 441.049H160.404L160.378 440.563C160.362 440.261 160.472 439.962 160.679 439.743C160.887 439.524 161.18 439.398 161.482 439.398H162.586C162.888 439.398 163.181 439.524 163.389 439.743C163.597 439.962 163.707 440.261 163.691 440.563L163.665 441.049H163.828C164.489 441.048 165.027 441.587 165.027 442.248V442.248ZM163.25 442.289C163.018 442.289 162.794 442.193 162.635 442.025C162.475 441.857 162.391 441.628 162.403 441.397L162.444 440.639H161.625L161.665 441.397C161.677 441.629 161.593 441.857 161.433 442.025C161.274 442.193 161.05 442.289 160.819 442.289H160.283C160.305 443.111 160.98 443.771 161.806 443.771H162.262C163.088 443.771 163.763 443.111 163.785 442.289H163.25Z" fill="black"/>
<path d="M156.403 460.887C154.668 460.887 153.256 459.475 153.256 457.739V457.202C153.256 455.466 154.668 454.054 156.403 454.054C157.122 454.054 157.706 454.639 157.706 455.357V455.665L158.395 455.629C158.721 455.611 159.043 455.73 159.279 455.954C159.516 456.179 159.651 456.494 159.651 456.82V458.121C159.651 458.447 159.516 458.762 159.279 458.987C159.043 459.211 158.72 459.329 158.395 459.312L157.706 459.275V459.584C157.706 460.302 157.122 460.887 156.403 460.887ZM158.41 458.07V456.871L157.4 456.925C157.157 456.937 156.918 456.849 156.742 456.682C156.566 456.515 156.465 456.281 156.465 456.038V455.357C156.465 455.323 156.438 455.295 156.404 455.295C155.352 455.295 154.497 456.151 154.497 457.202V457.739C154.497 458.791 155.352 459.646 156.404 459.646C156.438 459.646 156.465 459.618 156.465 459.584V458.903C156.465 458.661 156.566 458.426 156.742 458.259C156.918 458.092 157.158 458.004 157.4 458.017L158.41 458.07Z" fill="black"/>
</g>
<g clip-path="url(#clip1)">
<path d="M86.8736 439.707C75.1856 439.707 65.6763 446.473 65.6763 454.79C65.6763 459.997 69.3532 466.204 86.8736 466.204C104.394 466.204 108.071 459.997 108.071 454.79C108.071 446.473 98.5617 439.707 86.8736 439.707V439.707ZM86.8736 463.554C78.4123 463.554 68.3259 462.034 68.3259 454.79C68.3259 450.689 71.3156 447.057 75.8965 444.791C78.1162 447.905 78.9246 451.631 78.9246 451.631C80.7557 451.138 80.428 445.904 79.4748 443.395C81.0167 442.944 82.6694 442.637 84.3944 442.481C87.205 445.728 88.1985 450.306 88.1985 450.306C89.9433 449.836 89.7297 445.052 88.881 442.433C90.2767 442.534 91.6197 442.747 92.9056 443.045C96.2889 446.277 97.4724 451.63 97.4724 451.63C98.945 451.234 99.022 447.764 98.5001 445.117C102.715 447.398 105.421 450.884 105.421 454.79C105.421 462.034 95.335 463.554 86.8736 463.554V463.554Z" fill="black"/>
</g>
<path d="M141.16 408.809V389.418L139.756 391.85L139.757 391.851C139.593 392.135 139.229 392.233 138.945 392.069C138.929 392.059 138.913 392.049 138.898 392.039L132.526 388.36L132.821 387.847L132.524 388.362C132.24 388.197 132.142 387.834 132.306 387.55C132.316 387.533 132.326 387.518 132.336 387.503L138.246 377.267L138.244 377.264C138.318 377.136 138.433 377.046 138.562 377.001L144.805 374.465C145.069 374.357 145.365 374.453 145.519 374.68C145.519 374.68 148.204 378.37 151.223 378.386C154.266 378.402 156.991 374.66 156.991 374.66C157.163 374.43 157.469 374.359 157.719 374.476L163.959 377.011L163.96 377.011C164.105 377.07 164.215 377.181 164.276 377.313L170.187 387.551L170.189 387.55C170.353 387.834 170.256 388.197 169.971 388.361C169.955 388.371 169.939 388.379 169.922 388.387L163.549 392.066L163.55 392.069C163.266 392.233 162.902 392.135 162.738 391.851C162.731 391.839 162.725 391.827 162.719 391.815L161.335 389.418V408.809C161.335 409.137 161.069 409.403 160.741 409.403H141.754C141.426 409.403 141.16 409.137 141.16 408.809Z" fill="black"/>
<g clip-path="url(#clip2)">
<path d="M101.22 378.33C101.198 378.312 100.079 377.497 99.237 378.573C96.5436 382.03 87.5968 393.404 83.2633 397.431C79.4786 400.948 76.1523 398.944 74.6595 397.646V397.65C74.6595 397.65 73.8942 396.855 72.1429 397.401C72.1388 397.402 72.1388 397.402 72.1346 397.402C71.4243 397.636 70.4585 397.934 69.1555 398.313C67.309 398.847 66.7353 400.236 66.6738 401.565C66.7087 402.006 66.9264 404.007 68.0448 405.34C70.0823 407.425 74.0627 409.585 78.2845 410.036C83.1603 410.554 84.3527 408.531 84.3527 408.531C84.3527 408.531 87.3271 404.508 90.1134 400.417C90.1151 400.413 90.1193 400.411 90.1217 400.407C92.5271 396.943 95.3731 395.203 95.434 395.165C95.5984 395.092 95.7563 395.024 95.9084 394.968C96.2165 394.876 97.8832 394.485 98.021 396.752L98.729 408.86L98.7331 409.016C98.7331 409.016 98.7331 409.018 98.7331 409.021L98.7396 409.241C98.768 409.564 98.9141 410.123 99.5972 410.124C100.236 410.111 100.32 409.398 100.326 409.108V408.984C100.585 405.824 101.718 394.074 102.767 391.932C106.328 383.779 103.138 379.837 101.22 378.33Z" fill="#241F20"/>
</g>
<g clip-path="url(#clip3)">
<path d="M230.876 532.045C227.156 530.195 225.538 532.181 220.05 531.218C214.563 530.256 213.718 527.829 209.589 528.311C205.462 528.786 202.783 532.558 199.576 539.958C196.367 547.366 195.728 553.01 197.73 554.433C199.733 555.856 202.615 553.902 205.482 551.37C207.792 549.397 208.77 549.416 216.617 550.792C224.456 552.167 225.258 552.37 226.891 555.125C228.725 558.482 230.771 561.3 233.138 560.643C235.505 559.986 236.825 554.462 236.329 546.404C235.831 538.354 234.585 533.902 230.876 532.045ZM206.558 542.515C204.662 542.183 203.395 540.366 203.731 538.453C204.065 536.548 205.875 535.262 207.772 535.595C209.668 535.927 210.933 537.752 210.599 539.657C210.265 541.562 208.454 542.848 206.558 542.515ZM222.726 543.541C221.8 543.378 221.173 542.485 221.337 541.55C221.501 540.615 222.394 539.988 223.321 540.15C224.256 540.314 224.882 541.208 224.718 542.143C224.546 543.076 223.661 543.705 222.726 543.541ZM225.764 547.892C224.837 547.73 224.211 546.836 224.375 545.901C224.54 544.958 225.432 544.34 226.358 544.502C227.293 544.666 227.92 545.56 227.756 546.495C227.591 547.438 226.699 548.056 225.764 547.892ZM227.065 540.474C226.139 540.311 225.512 539.418 225.676 538.483C225.84 537.548 226.733 536.921 227.659 537.083C228.594 537.247 229.221 538.141 229.057 539.076C228.893 540.011 228 540.638 227.065 540.474ZM230.11 544.836C229.175 544.672 228.557 543.78 228.721 542.845C228.885 541.91 229.778 541.283 230.704 541.445C231.631 541.608 232.258 542.501 232.094 543.436C231.93 544.371 231.045 545 230.11 544.836Z" fill="black"/>
</g>
<path d="M198.917 402.612C199.826 394.435 204.091 381.54 206.109 376.115H228.821C233.06 385.199 235.382 397.565 236.013 402.612L220.872 406.775L217.465 395.041L214.058 406.775L198.917 402.612Z" fill="black"/>
<path d="M236.891 402.762C236.708 401.02 236.416 399.169 236.05 397.305C236.05 397.268 236.038 397.219 236.026 397.183C233.967 386.792 229.642 375.584 229.582 375.45C229.46 375.133 229.131 374.938 228.79 374.987C221.322 376.108 213.733 376.108 206.265 374.987C205.924 374.938 205.595 375.121 205.473 375.45C205.424 375.584 201.088 386.792 199.029 397.183C199.017 397.219 199.005 397.268 199.005 397.305C198.639 399.181 198.347 401.02 198.164 402.762C198.127 403.116 198.359 403.444 198.7 403.542L214.074 407.659C214.269 407.708 214.464 407.684 214.634 407.586C214.805 407.489 214.927 407.318 214.975 407.136L217.533 396.854L220.092 407.136C220.14 407.331 220.262 407.489 220.433 407.586C220.542 407.647 220.676 407.684 220.798 407.684C220.859 407.684 220.92 407.672 220.993 407.659L236.355 403.542C236.696 403.444 236.915 403.116 236.891 402.762ZM213.733 406.051L199.699 402.287C199.845 401.045 200.04 399.765 200.284 398.462C202.562 399.546 208.872 402.287 214.622 402.494L213.733 406.051ZM217.533 393.09C217.192 393.09 216.9 393.321 216.827 393.65L214.987 401.045C209.189 400.935 202.428 397.877 200.576 396.988C202.367 388.168 205.766 378.849 206.643 376.534C213.879 377.557 221.2 377.557 228.436 376.534C229.301 378.849 232.7 388.168 234.503 396.988C232.651 397.877 225.903 400.935 220.092 401.045L218.252 393.65C218.167 393.321 217.875 393.09 217.533 393.09ZM221.334 406.051L220.445 402.482C226.195 402.275 232.493 399.534 234.783 398.45C235.027 399.753 235.222 401.045 235.368 402.275L221.334 406.051Z" fill="black"/>
<path d="M214.623 402.494C208.873 402.287 202.562 399.546 200.284 398.462L200.577 396.988C202.428 397.877 209.189 400.935 214.988 401.045L214.623 402.494Z" fill="white"/>
<path d="M220.092 401.045C225.903 400.935 232.652 397.877 234.504 396.988L234.784 398.45C232.494 399.534 226.196 402.275 220.446 402.482L220.092 401.045Z" fill="white"/>
<path d="M215.585 378.288C215.243 378.496 215.122 378.946 215.329 379.287C215.341 379.312 216.681 381.59 215.755 383.563C215.329 384.465 214.744 385.232 214.171 385.963C213.319 387.072 212.502 388.132 212.502 389.423C212.502 389.825 212.831 390.154 213.233 390.154C213.635 390.154 213.964 389.825 213.964 389.423C213.964 388.619 214.598 387.803 215.329 386.852C215.913 386.097 216.583 385.232 217.071 384.185C218.338 381.504 216.657 378.654 216.583 378.532C216.389 378.203 215.938 378.081 215.585 378.288Z" fill="white"/>
<path d="M220.518 389.922C220.262 388.875 220.518 387.839 220.835 386.524C221.03 385.756 221.237 384.879 221.383 383.868C221.822 380.786 219.507 378.496 219.41 378.398C219.117 378.118 218.654 378.13 218.374 378.41C218.094 378.703 218.094 379.166 218.386 379.446C218.411 379.47 220.275 381.322 219.933 383.661C219.799 384.599 219.605 385.403 219.41 386.17C219.056 387.62 218.74 388.875 219.093 390.276C219.178 390.605 219.471 390.836 219.799 390.836C219.86 390.836 219.921 390.824 219.97 390.812C220.384 390.702 220.616 390.312 220.518 389.922Z" fill="white"/>
<g clip-path="url(#clip4)">
<path d="M225.31 447.536C225.055 447.384 224.794 447.228 224.529 447.059L224.53 444.88H224.53C225.019 444.88 225.414 444.485 225.414 443.997V438.697C225.414 435.289 222.64 432.515 219.231 432.515H209.516C208.541 432.515 207.749 433.308 207.749 434.281H205.983C205.008 434.281 204.216 435.074 204.216 436.048V437.814C204.216 438.788 205.008 439.581 205.983 439.581H207.749C207.749 440.555 208.541 441.347 209.516 441.347H210.515L207.897 445.273C207.716 445.544 207.699 445.893 207.854 446.18C208.008 446.467 208.306 446.647 208.632 446.647H210.399C210.59 446.647 210.777 446.584 210.928 446.47L216.581 442.23V443.997C216.581 444.485 216.976 444.88 217.465 444.88V447.064L217.371 447.129C214.104 449.355 211.282 451.278 211.282 465.194V471.377C211.282 473.325 212.867 474.91 214.815 474.91H227.18C229.128 474.91 230.713 473.325 230.713 471.377V465.194C230.713 451.46 228.66 449.537 225.31 447.536ZM207.749 437.814H205.983V436.048H207.749V437.814ZM210.461 444.613L212.638 441.347H214.815L210.461 444.613ZM209.516 439.581V434.281H219.231C221.667 434.281 223.647 436.263 223.647 438.697V443.114H218.348V440.464C218.348 439.976 217.953 439.581 217.465 439.581H209.516ZM218.365 448.588L218.85 448.256C219.09 448.091 219.231 447.82 219.231 447.53V444.88H222.764L222.762 447.531C222.762 447.821 222.904 448.092 223.143 448.258C223.573 448.555 223.994 448.808 224.404 449.053C226.48 450.293 228.197 451.329 228.754 459.012H213.285C213.951 451.597 215.952 450.233 218.365 448.588ZM228.947 471.377C228.947 472.351 228.155 473.143 227.18 473.143H214.815C213.84 473.143 213.048 472.351 213.048 471.377V469.61H228.947V471.377V471.377ZM228.947 467.844H213.048V465.194C213.048 463.546 213.087 462.084 213.159 460.778H228.858C228.916 462.082 228.947 463.544 228.947 465.194V467.844H228.947Z" fill="black"/>
<path d="M202.45 436.931C202.45 436.443 202.055 436.048 201.567 436.048H199.8C199.312 436.048 198.917 436.443 198.917 436.931C198.917 437.419 199.312 437.814 199.8 437.814H201.567C202.055 437.814 202.45 437.419 202.45 436.931Z" fill="black"/>
<path d="M200.288 434.188L202.053 435.071C202.179 435.134 202.315 435.165 202.448 435.165C202.771 435.165 203.083 434.986 203.238 434.676C203.456 434.241 203.28 433.71 202.843 433.491L201.078 432.608C200.649 432.393 200.112 432.566 199.893 433.003C199.676 433.439 199.852 433.97 200.288 434.188Z" fill="black"/>
<path d="M202.055 438.791L200.288 439.674C199.852 439.892 199.676 440.423 199.893 440.859C200.049 441.169 200.361 441.347 200.683 441.347C200.816 441.347 200.951 441.317 201.079 441.254L202.845 440.371C203.281 440.153 203.457 439.622 203.24 439.186C203.021 438.749 202.493 438.575 202.055 438.791Z" fill="black"/>
</g>
<g clip-path="url(#clip5)">
<path d="M133.054 519.576C133.054 517.494 134.757 515.79 136.839 515.79H167.121C168.125 515.79 169.088 516.189 169.798 516.899C170.507 517.609 170.906 518.572 170.906 519.576V534.717C170.906 535.721 170.507 536.683 169.798 537.393C169.088 538.103 168.125 538.502 167.121 538.502H136.839C135.835 538.502 134.872 538.103 134.162 537.393C133.453 536.683 133.054 535.721 133.054 534.717V519.576ZM136.839 519.576V523.361H140.624V519.576H136.839ZM138.732 525.254V529.039H142.517V525.254H138.732ZM136.839 530.931V534.717H140.624V530.931H136.839ZM142.517 530.931V534.717H161.443V530.931H142.517ZM163.336 530.931V534.717H167.121V530.931H163.336ZM144.409 525.254V529.039H148.195V525.254H144.409ZM150.087 525.254V529.039H153.873V525.254H150.087ZM155.765 525.254V529.039H159.55V525.254H155.765ZM161.443 525.254V529.039H165.228V525.254H161.443ZM142.517 519.576V523.361H146.302V519.576H142.517ZM148.195 519.576V523.361H151.98V519.576H148.195ZM153.873 519.576V523.361H157.658V519.576H153.873ZM159.55 519.576V523.361H167.121V519.576H159.55Z" fill="black"/>
</g>
<g clip-path="url(#clip6)">
<path d="M86.3749 509.444C86.0517 509.621 85.8315 509.965 85.8315 510.358V513.388C85.8315 513.781 86.0517 514.125 86.3749 514.303C86.3894 514.31 86.4041 514.316 86.4177 514.323V514.303C86.5538 514.383 86.7104 514.43 86.8742 514.43C87.0386 514.43 87.1945 514.383 87.3302 514.303V514.323C87.3442 514.316 87.3594 514.31 87.373 514.303C87.6961 514.125 87.9163 513.781 87.9163 513.388V510.359C87.9163 509.965 87.6961 509.621 87.373 509.444C87.3591 509.437 87.3442 509.431 87.3302 509.424V509.444C87.1945 509.364 87.0384 509.316 86.8742 509.316C86.7102 509.316 86.5538 509.364 86.4177 509.444V509.424C86.4039 509.431 86.3894 509.437 86.3749 509.444Z" fill="black"/>
<path d="M75.7988 515.049V517.097C78.9497 518.875 82.568 519.916 86.4175 519.992V517.47C86.4037 517.466 86.3892 517.464 86.3747 517.46C85.5396 517.238 84.9198 516.473 84.9198 515.57V510.359C84.9198 509.456 85.5398 508.691 86.3747 508.47C86.3892 508.466 86.4039 508.463 86.4175 508.459V505.929H84.9196C79.9036 505.929 75.7988 510.033 75.7988 515.049Z" fill="black"/>
<path d="M88.8291 505.929H87.3301V508.459C87.3441 508.463 87.3593 508.465 87.3729 508.469C88.2089 508.691 88.8291 509.455 88.8291 510.358V515.57C88.8291 516.473 88.2089 517.238 87.3729 517.459C87.3591 517.463 87.3441 517.465 87.3301 517.47V519.992C91.1802 519.915 94.799 518.875 97.9492 517.097V515.048C97.9492 510.033 93.8446 505.929 88.8291 505.929Z" fill="black"/>
<path d="M75.7988 518.137V529.381C75.7988 534.397 79.9039 538.502 84.9196 538.502H88.829C93.8445 538.502 97.9491 534.397 97.9491 529.381V518.137C94.6474 519.907 90.8749 520.912 86.874 520.912C82.873 520.912 79.1006 519.907 75.7988 518.137Z" fill="black"/>
<path d="M87.6421 501.912C87.8496 501.424 88.1481 500.989 88.5286 500.621L88.5956 500.557C89.0654 500.102 89.4327 499.567 89.6882 498.966C89.9434 498.364 90.072 497.727 90.072 497.074V494.593H89.1607V497.074C89.1607 497.604 89.0555 498.121 88.8485 498.61C88.6415 499.098 88.3429 499.532 87.9624 499.901L87.8955 499.965C87.4252 500.419 87.0577 500.955 86.8028 501.557C86.5477 502.158 86.4175 502.795 86.4175 503.448V505.929H87.3299V503.448C87.3299 502.917 87.4355 502.401 87.6421 501.912Z" fill="black"/>
</g>
<path d="M17 324.478L48.9501 283.499H78.8166L54.5067 324.478V343.231C54.5067 343.231 43.2027 354.208 34.3642 353.65C26.4718 353.151 17 343.231 17 343.231V324.478Z" fill="#005CBE"/>
<path d="M54.5068 324.478L78.8167 283.499H107.294L92.7081 324.478V343.231C92.7081 343.231 81.4041 354.903 72.5656 354.345C64.6732 353.846 54.5068 343.231 54.5068 343.231V324.478Z" fill="#CE352F"/>
<path d="M92.708 324.478L107.294 283.499H135.077L130.215 324.478V343.926C130.215 343.926 118.911 354.208 110.072 353.65C102.18 353.151 92.708 343.231 92.708 343.231V324.478Z" fill="#005CBE"/>
<path d="M281.63 325.173L249.68 283.499H219.814L243.429 325.173V343.926C243.429 343.926 255.428 354.903 264.266 354.345C272.159 353.846 281.63 343.926 281.63 343.926V325.173Z" fill="#005CBE"/>
<path d="M243.429 325.173L219.814 283.499H191.337L205.923 325.867V343.926C205.923 343.926 217.227 355.597 226.065 355.039C233.957 354.541 243.429 343.926 243.429 343.926V325.173Z" fill="#CE352F"/>
<path d="M205.922 325.173L191.336 283.499H164.943L168.416 325.173V343.926C168.416 343.926 179.72 354.903 188.558 354.345C196.451 353.846 205.922 343.926 205.922 343.926V325.173Z" fill="#005CBE"/>
<path d="M130.215 325.173L135.077 283.499H164.943L168.416 325.173V343.926C168.416 343.926 156.418 354.903 147.579 354.345C139.687 353.846 130.215 343.926 130.215 343.926V325.173Z" fill="#CE352F"/>
<path d="M17 343.231V325.173H54.5067V343.231C54.5067 343.231 43.2027 354.208 34.3642 353.65C26.4718 353.151 17 343.231 17 343.231Z" fill="#054E9B"/>
<path d="M54.5063 343.231V325.173H92.7076V343.231C92.7076 343.231 81.4036 354.903 72.5651 354.345C64.6727 353.846 54.5063 343.231 54.5063 343.231Z" fill="#B30C05"/>
<path d="M92.708 343.231V325.173H130.215V343.926C130.215 343.926 118.911 354.208 110.072 353.65C102.18 353.151 92.708 343.231 92.708 343.231Z" fill="#054E9B"/>
<path d="M281.63 343.926V325.173H243.429V343.926C243.429 343.926 255.428 354.903 264.266 354.345C272.159 353.846 281.63 343.926 281.63 343.926Z" fill="#054E9B"/>
<path d="M243.429 343.926V325.173H205.923V343.926C205.923 343.926 217.227 355.597 226.065 355.039C233.957 354.541 243.429 343.926 243.429 343.926Z" fill="#B20C05"/>
<path d="M205.923 343.926V325.173H168.416V343.926C168.416 343.926 179.72 354.903 188.559 354.345C196.451 353.846 205.923 343.926 205.923 343.926Z" fill="#054E9B"/>
<path d="M130.215 343.926V325.173H168.416V343.926C168.416 343.926 156.418 354.903 147.579 354.345C139.687 353.846 130.215 343.926 130.215 343.926Z" fill="#B20C05"/>
<path d="M412.576 619.298C412.576 621.403 410.944 623.11 408.932 623.11C406.92 623.11 405.288 621.403 405.288 619.298C405.288 617.192 406.92 615.485 408.932 615.485C410.944 615.485 412.576 617.192 412.576 619.298Z" fill="white"/>
<path d="M456.972 615.485H448.343C449.238 617.941 449.238 620.655 448.343 623.11H456.972C456.077 620.655 456.077 617.941 456.972 615.485Z" fill="white"/>
<path d="M441.726 619.298C441.726 621.403 440.095 623.11 438.082 623.11C436.07 623.11 434.438 621.403 434.438 619.298C434.438 617.192 436.07 615.485 438.082 615.485C440.095 615.485 441.726 617.192 441.726 619.298Z" fill="white"/>
<path d="M427.822 615.485H419.192C420.087 617.941 420.087 620.655 419.192 623.11H427.822C426.927 620.655 426.927 617.941 427.822 615.485Z" fill="white"/>
<path d="M558.33 619.298C558.33 621.403 556.699 623.11 554.686 623.11C552.674 623.11 551.042 621.403 551.042 619.298C551.042 617.192 552.674 615.485 554.686 615.485C556.699 615.485 558.33 617.192 558.33 619.298Z" fill="white"/>
<path d="M470.878 619.298C470.878 621.403 469.246 623.11 467.234 623.11C465.221 623.11 463.59 621.403 463.59 619.298C463.59 617.192 465.221 615.485 467.234 615.485C469.246 615.485 470.878 617.192 470.878 619.298Z" fill="white"/>
<path d="M544.426 615.485H535.796C536.691 617.941 536.691 620.655 535.796 623.11H544.426C543.531 620.655 543.531 617.941 544.426 615.485Z" fill="white"/>
<path d="M486.124 615.485H477.495C478.39 617.941 478.39 620.655 477.495 623.11H486.124C485.229 620.655 485.229 617.941 486.124 615.485Z" fill="white"/>
<path d="M500.029 619.298C500.029 621.403 498.397 623.11 496.385 623.11C494.373 623.11 492.741 621.403 492.741 619.298C492.741 617.192 494.373 615.485 496.385 615.485C498.397 615.485 500.029 617.192 500.029 619.298Z" fill="white"/>
<path d="M515.275 615.485H506.646C507.54 617.941 507.54 620.655 506.646 623.11H515.275C514.38 620.655 514.38 617.941 515.275 615.485Z" fill="white"/>
<path d="M529.179 619.298C529.179 621.403 527.548 623.11 525.535 623.11C523.523 623.11 521.892 621.403 521.892 619.298C521.892 617.192 523.523 615.485 525.535 615.485C527.548 615.485 529.179 617.192 529.179 619.298Z" fill="white"/>
<path d="M310.684 615H302.055C302.95 617.456 302.95 620.17 302.055 622.625H310.684C309.789 620.17 309.789 617.456 310.684 615Z" fill="white"/>
<path d="M295.438 618.813C295.438 620.918 293.807 622.625 291.794 622.625C289.782 622.625 288.15 620.918 288.15 618.813C288.15 616.707 289.782 615 291.794 615C293.807 615 295.438 616.707 295.438 618.813Z" fill="white"/>
<path d="M324.59 618.813C324.59 620.918 322.958 622.625 320.946 622.625C318.933 622.625 317.302 620.918 317.302 618.813C317.302 616.707 318.933 615 320.946 615C322.958 615 324.59 616.707 324.59 618.813Z" fill="white"/>
<path d="M398.138 615H389.508C390.403 617.456 390.403 620.17 389.508 622.625H398.138C397.243 620.17 397.243 617.456 398.138 615Z" fill="white"/>
<path d="M339.836 615H331.207C332.101 617.456 332.101 620.17 331.207 622.625H339.836C338.941 620.17 338.941 617.456 339.836 615Z" fill="white"/>
<path d="M353.74 618.813C353.74 620.918 352.109 622.625 350.097 622.625C348.084 622.625 346.453 620.918 346.453 618.813C346.453 616.707 348.084 615 350.097 615C352.109 615 353.74 616.707 353.74 618.813Z" fill="white"/>
<path d="M368.986 615H360.357C361.252 617.456 361.252 620.17 360.357 622.625H368.986C368.091 620.17 368.091 617.456 368.986 615Z" fill="white"/>
<path d="M382.891 618.813C382.891 620.918 381.26 622.625 379.247 622.625C377.235 622.625 375.604 620.918 375.604 618.813C375.604 616.707 377.235 615 379.247 615C381.26 615 382.891 616.707 382.891 618.813Z" fill="white"/>
<path d="M603.183 615.485H594.554C595.449 617.941 595.449 620.655 594.554 623.11H603.183C602.289 620.655 602.289 617.941 603.183 615.485Z" fill="white"/>
<path d="M587.937 619.298C587.937 621.403 586.305 623.11 584.293 623.11C582.28 623.11 580.649 621.403 580.649 619.298C580.649 617.192 582.28 615.485 584.293 615.485C586.305 615.485 587.937 617.192 587.937 619.298Z" fill="white"/>
<path d="M574.032 615.485H565.403C566.298 617.941 566.298 620.655 565.403 623.11H574.032C573.137 620.655 573.137 617.941 574.032 615.485Z" fill="white"/>
<path d="M704.542 619.298C704.542 621.403 702.91 623.11 700.898 623.11C698.885 623.11 697.254 621.403 697.254 619.298C697.254 617.192 698.885 615.485 700.898 615.485C702.91 615.485 704.542 617.192 704.542 619.298Z" fill="white"/>
<path d="M617.089 619.298C617.089 621.403 615.457 623.11 613.445 623.11C611.432 623.11 609.801 621.403 609.801 619.298C609.801 617.192 611.432 615.485 613.445 615.485C615.457 615.485 617.089 617.192 617.089 619.298Z" fill="white"/>
<path d="M690.636 615.485H682.007C682.902 617.941 682.902 620.655 682.007 623.11H690.636C689.741 620.655 689.741 617.941 690.636 615.485Z" fill="white"/>
<path d="M632.334 615.485H623.705C624.6 617.941 624.6 620.655 623.705 623.11H632.334C631.439 620.655 631.439 617.941 632.334 615.485Z" fill="white"/>
<path d="M646.238 619.298C646.238 621.403 644.607 623.11 642.595 623.11C640.582 623.11 638.951 621.403 638.951 619.298C638.951 617.192 640.582 615.485 642.595 615.485C644.607 615.485 646.238 617.192 646.238 619.298Z" fill="white"/>
<path d="M661.485 615.485H652.856C653.751 617.941 653.751 620.655 652.856 623.11H661.485C660.59 620.655 660.59 617.941 661.485 615.485Z" fill="white"/>
<path d="M675.39 619.298C675.39 621.403 673.758 623.11 671.746 623.11C669.734 623.11 668.102 621.403 668.102 619.298C668.102 617.192 669.734 615.485 671.746 615.485C673.758 615.485 675.39 617.192 675.39 619.298Z" fill="white"/>
<path d="M804.839 615.485H796.21C797.105 617.941 797.105 620.655 796.21 623.11H804.839C803.944 620.655 803.944 617.941 804.839 615.485Z" fill="white"/>
<path d="M789.592 619.298C789.592 621.403 787.961 623.11 785.949 623.11C783.936 623.11 782.305 621.403 782.305 619.298C782.305 617.192 783.936 615.485 785.949 615.485C787.961 615.485 789.592 617.192 789.592 619.298Z" fill="white"/>
<path d="M775.688 615.485H767.059C767.954 617.941 767.954 620.655 767.059 623.11H775.688C774.793 620.655 774.793 617.941 775.688 615.485Z" fill="white"/>
<path d="M906.196 619.298C906.196 621.403 904.565 623.11 902.553 623.11C900.54 623.11 898.909 621.403 898.909 619.298C898.909 617.192 900.54 615.485 902.553 615.485C904.565 615.485 906.196 617.192 906.196 619.298Z" fill="white"/>
<path d="M818.744 619.298C818.744 621.403 817.112 623.11 815.1 623.11C813.088 623.11 811.456 621.403 811.456 619.298C811.456 617.192 813.088 615.485 815.1 615.485C817.112 615.485 818.744 617.192 818.744 619.298Z" fill="white"/>
<path d="M892.292 615.485H883.663C884.558 617.941 884.558 620.655 883.663 623.11H892.292C891.397 620.655 891.397 617.941 892.292 615.485Z" fill="white"/>
<path d="M833.99 615.485H825.36C826.255 617.941 826.255 620.655 825.36 623.11H833.99C833.095 620.655 833.095 617.941 833.99 615.485Z" fill="white"/>
<path d="M847.895 619.298C847.895 621.403 846.263 623.11 844.251 623.11C842.238 623.11 840.607 621.403 840.607 619.298C840.607 617.192 842.238 615.485 844.251 615.485C846.263 615.485 847.895 617.192 847.895 619.298Z" fill="white"/>
<path d="M863.142 615.485H854.512C855.407 617.941 855.407 620.655 854.512 623.11H863.142C862.247 620.655 862.247 617.941 863.142 615.485Z" fill="white"/>
<path d="M877.045 619.298C877.045 621.403 875.414 623.11 873.401 623.11C871.389 623.11 869.757 621.403 869.757 619.298C869.757 617.192 871.389 615.485 873.401 615.485C875.414 615.485 877.045 617.192 877.045 619.298Z" fill="white"/>
<path d="M951.064 615.485H942.435C943.33 617.941 943.33 620.655 942.435 623.11H951.064C950.169 620.655 950.169 617.941 951.064 615.485Z" fill="white"/>
<path d="M935.817 619.298C935.817 621.403 934.185 623.11 932.173 623.11C930.161 623.11 928.529 621.403 928.529 619.298C928.529 617.192 930.161 615.485 932.173 615.485C934.185 615.485 935.817 617.192 935.817 619.298Z" fill="white"/>
<path d="M921.912 615.485H913.283C914.178 617.941 914.178 620.655 913.283 623.11H921.912C921.017 620.655 921.017 617.941 921.912 615.485Z" fill="white"/>
<path d="M1052.42 619.298C1052.42 621.403 1050.79 623.11 1048.78 623.11C1046.76 623.11 1045.13 621.403 1045.13 619.298C1045.13 617.192 1046.76 615.485 1048.78 615.485C1050.79 615.485 1052.42 617.192 1052.42 619.298Z" fill="white"/>
<path d="M964.968 619.298C964.968 621.403 963.336 623.11 961.324 623.11C959.312 623.11 957.68 621.403 957.68 619.298C957.68 617.192 959.312 615.485 961.324 615.485C963.336 615.485 964.968 617.192 964.968 619.298Z" fill="white"/>
<path d="M1038.52 615.485H1029.89C1030.78 617.941 1030.78 620.655 1029.89 623.11H1038.52C1037.62 620.655 1037.62 617.941 1038.52 615.485Z" fill="white"/>
<path d="M980.214 615.485H971.585C972.48 617.941 972.48 620.655 971.585 623.11H980.214C979.319 620.655 979.319 617.941 980.214 615.485Z" fill="white"/>
<path d="M994.118 619.298C994.118 621.403 992.487 623.11 990.474 623.11C988.462 623.11 986.831 621.403 986.831 619.298C986.831 617.192 988.462 615.485 990.474 615.485C992.487 615.485 994.118 617.192 994.118 619.298Z" fill="white"/>
<path d="M1009.37 615.485H1000.74C1001.63 617.941 1001.63 620.655 1000.74 623.11H1009.37C1008.47 620.655 1008.47 617.941 1009.37 615.485Z" fill="white"/>
<path d="M1023.27 619.298C1023.27 621.403 1021.64 623.11 1019.63 623.11C1017.61 623.11 1015.98 621.403 1015.98 619.298C1015.98 617.192 1017.61 615.485 1019.63 615.485C1021.64 615.485 1023.27 617.192 1023.27 619.298Z" fill="white"/>
<path d="M748.938 615.485H740.309C741.204 617.941 741.204 620.655 740.309 623.11H748.938C748.043 620.655 748.043 617.941 748.938 615.485Z" fill="white"/>
<path d="M733.692 619.298C733.692 621.403 732.06 623.11 730.048 623.11C728.036 623.11 726.404 621.403 726.404 619.298C726.404 617.192 728.036 615.485 730.048 615.485C732.06 615.485 733.692 617.192 733.692 619.298Z" fill="white"/>
<path d="M719.787 615.485H711.158C712.053 617.941 712.053 620.655 711.158 623.11H719.787C718.893 620.655 718.893 617.941 719.787 615.485Z" fill="white"/>
<path d="M762.843 619.298C762.843 621.403 761.211 623.11 759.199 623.11C757.187 623.11 755.555 621.403 755.555 619.298C755.555 617.192 757.187 615.485 759.199 615.485C761.211 615.485 762.843 617.192 762.843 619.298Z" fill="white"/>
<rect x="276.5" y="606.5" width="789" height="26" rx="13" stroke="white" stroke-width="3"/>
<path d="M1027.04 495.935C1026.17 494.753 1024.79 494.053 1023.31 494.053H1010.68C1008.13 494.053 1006.06 496.105 1006.06 498.637C1006.06 501.17 1008.13 503.222 1010.68 503.222H1016.98L1013.65 513.537L1010.68 522.706L1006.86 534.549L1003.9 543.719L1000.69 553.652H939.583L914.479 481.853C914.036 480.588 913.059 479.579 911.804 479.089L889.312 478.317C886.936 477.394 884.254 478.553 883.321 480.908C882.389 483.264 883.556 485.926 885.931 486.852L906.445 486.852L930.415 555.409C929.357 555.775 928.46 556.58 928.052 557.707L921.122 576.81C920.697 577.981 920.872 579.282 921.595 580.3C922.317 581.318 923.491 581.924 924.744 581.924H928.303C926.098 584.359 924.744 587.566 924.744 591.093C924.744 598.677 930.963 604.847 938.605 604.847C946.247 604.847 952.467 598.677 952.467 591.093C952.467 587.566 951.113 584.359 948.907 581.924H979.128C976.921 584.359 975.567 587.566 975.567 591.093C975.567 598.677 981.785 604.847 989.429 604.847C997.072 604.847 1003.29 598.677 1003.29 591.093C1003.29 587.566 1001.94 584.359 999.731 581.924H1004.06C1006.19 581.924 1007.91 580.213 1007.91 578.103C1007.91 575.993 1006.19 574.283 1004.06 574.283H930.223L934.515 562.453C935.069 562.685 935.668 562.822 936.295 562.822H1004.06C1006.07 562.822 1007.85 561.534 1008.46 559.637C1009.07 557.74 1027.71 500.037 1027.71 500.037C1028.16 498.642 1027.91 497.118 1027.04 495.935ZM938.605 597.206C935.208 597.206 932.445 594.464 932.445 591.093C932.445 587.722 935.208 584.98 938.605 584.98C942.003 584.98 944.766 587.722 944.766 591.093C944.766 594.464 942.003 597.206 938.605 597.206ZM989.429 597.206C986.031 597.206 983.268 594.464 983.268 591.093C983.268 587.722 986.031 584.98 989.429 584.98C992.826 584.98 995.589 587.722 995.589 591.093C995.589 594.464 992.826 597.206 989.429 597.206Z" fill="white"/>
<g clip-path="url(#clip7)">
<path d="M940.64 515.742V523.867V529.283V548.242C940.64 551.221 943.065 553.658 946.056 553.658H970.431H994.806C997.799 553.658 1000.22 551.221 1000.22 548.242V529.283V523.867V515.742H940.64Z" fill="#F39C12"/>
<path d="M940.64 513.033V521.158V526.575V545.533C940.64 548.512 943.065 550.95 946.056 550.95H970.431H994.806C997.799 550.95 1000.22 548.512 1000.22 545.533V526.575V521.158V513.033H940.64Z" fill="#F1C40F"/>
<path d="M943.348 507.617C940.356 507.617 937.931 510.054 937.931 513.033V518.45H1002.93V513.033C1002.93 510.054 1000.51 507.617 997.514 507.617H992.098H973.139H967.723H948.764H943.348Z" fill="#F1C40F"/>
<path d="M978.556 504.908H962.306V553.658H978.556V504.908Z" fill="#E74C3C"/>
<path d="M959.286 494.075C956.581 493.804 953.941 495.158 952.493 497.325C950.387 500.575 951.646 504.637 955.294 506.533C956.467 507.346 957.723 507.616 958.988 507.616H959.613H968.551H972.305H981.24H981.866C983.13 507.616 984.417 507.346 985.59 506.533C989.238 504.637 990.467 500.575 988.36 497.325C986.256 494.075 981.611 492.991 977.963 494.887C976.79 495.429 975.869 496.241 975.225 497.325H975.165C975.079 497.596 975.003 497.596 974.927 497.867L970.428 504.637L965.93 497.867C965.854 497.596 965.778 497.596 965.691 497.325H965.632C964.986 496.241 964.093 495.429 962.92 494.887C961.78 494.345 960.515 494.075 959.286 494.075V494.075ZM958.839 497.325C959.571 497.325 960.329 497.596 961.014 497.867C961.243 497.867 961.449 498.137 961.639 498.137C961.772 498.408 961.883 498.408 961.996 498.679H962.086C962.147 498.679 962.21 498.95 962.265 498.95H962.354H962.384C962.427 499.22 962.495 499.221 962.533 499.221L965.691 504.096H959.375H959.018H958.869H958.571H958.422C958.248 504.096 958.086 504.096 957.915 503.825C957.673 503.825 957.43 503.825 957.2 503.554C956.744 503.554 956.337 503.012 956.038 502.741C955.143 501.658 955.01 500.304 955.8 498.95C956.458 498.137 957.618 497.325 958.839 497.325V497.325ZM982.044 497.325C983.266 497.325 984.425 498.137 985.083 498.95C985.874 500.304 985.711 501.658 984.815 502.741C984.517 503.012 984.141 503.554 983.683 503.554C983.455 503.825 983.212 503.825 982.968 503.825C982.8 504.096 982.605 504.096 982.432 504.096H982.283H981.985H981.836H981.478H975.165L978.32 499.221C978.358 499.221 978.426 499.22 978.469 498.95H978.499C978.507 498.95 978.494 498.95 978.499 498.95H978.589C978.643 498.95 978.708 498.679 978.767 498.679H978.857C978.97 498.408 979.111 498.408 979.244 498.137C979.436 498.137 979.642 497.867 979.87 497.867C980.555 497.596 981.313 497.325 982.044 497.325Z" fill="#C0392B"/>
<path d="M1000.22 518.45H940.64V521.158H1000.22V518.45Z" fill="#F39C12"/>
<path d="M978.556 518.45H962.306V521.158H978.556V518.45Z" fill="#C0392B"/>
<path d="M978.556 550.95H962.306V553.658H978.556V550.95Z" fill="#C0392B"/>
</g>
<path d="M422.044 495.935C421.174 494.753 419.786 494.053 418.31 494.053H405.684C403.132 494.053 401.064 496.105 401.064 498.637C401.064 501.17 403.132 503.222 405.684 503.222H411.979L408.647 513.537L405.684 522.706L401.86 534.549L398.898 543.719L395.69 553.652H334.583L309.479 481.853C309.036 480.588 308.059 479.579 306.804 479.089L284.312 478.317C281.936 477.394 279.254 478.553 278.321 480.908C277.389 483.264 278.556 485.926 280.931 486.852L301.445 486.852L325.415 555.409C324.357 555.775 323.46 556.58 323.052 557.707L316.122 576.81C315.697 577.981 315.872 579.282 316.595 580.3C317.317 581.318 318.491 581.924 319.744 581.924H323.303C321.098 584.359 319.744 587.566 319.744 591.093C319.744 598.677 325.963 604.847 333.605 604.847C341.247 604.847 347.467 598.677 347.467 591.093C347.467 587.566 346.113 584.359 343.907 581.924H374.128C371.921 584.359 370.567 587.566 370.567 591.093C370.567 598.677 376.785 604.847 384.429 604.847C392.072 604.847 398.29 598.677 398.29 591.093C398.29 587.566 396.936 584.359 394.731 581.924H399.06C401.187 581.924 402.91 580.213 402.91 578.103C402.91 575.993 401.186 574.283 399.06 574.283H325.223L329.515 562.453C330.069 562.685 330.668 562.822 331.295 562.822H399.059C401.068 562.822 402.846 561.534 403.458 559.637C404.07 557.74 422.709 500.037 422.709 500.037C423.161 498.642 422.913 497.118 422.044 495.935ZM333.605 597.206C330.208 597.206 327.445 594.464 327.445 591.093C327.445 587.722 330.208 584.98 333.605 584.98C337.003 584.98 339.766 587.722 339.766 591.093C339.766 594.464 337.003 597.206 333.605 597.206ZM384.429 597.206C381.031 597.206 378.268 594.464 378.268 591.093C378.268 587.722 381.031 584.98 384.429 584.98C387.826 584.98 390.589 587.722 390.589 591.093C390.589 594.464 387.826 597.206 384.429 597.206Z" fill="white"/>
<g clip-path="url(#clip8)">
<path d="M335.64 515.742V523.867V529.283V548.242C335.64 551.221 338.065 553.658 341.056 553.658H365.431H389.806C392.799 553.658 395.223 551.221 395.223 548.242V529.283V523.867V515.742H335.64Z" fill="#F39C12"/>
<path d="M335.64 513.033V521.158V526.575V545.533C335.64 548.512 338.065 550.95 341.056 550.95H365.431H389.806C392.799 550.95 395.223 548.512 395.223 545.533V526.575V521.158V513.033H335.64Z" fill="#F1C40F"/>
<path d="M338.348 507.617C335.356 507.617 332.931 510.054 332.931 513.033V518.45H397.931V513.033C397.931 510.054 395.507 507.617 392.514 507.617H387.098H368.139H362.723H343.764H338.348Z" fill="#F1C40F"/>
<path d="M373.556 504.908H357.306V553.658H373.556V504.908Z" fill="#E74C3C"/>
<path d="M354.286 494.075C351.581 493.804 348.941 495.158 347.493 497.325C345.387 500.575 346.646 504.637 350.294 506.533C351.467 507.346 352.723 507.616 353.988 507.616H354.613H363.551H367.305H376.24H376.866C378.13 507.616 379.417 507.346 380.59 506.533C384.238 504.637 385.467 500.575 383.36 497.325C381.256 494.075 376.611 492.991 372.963 494.887C371.79 495.429 370.869 496.241 370.225 497.325H370.165C370.079 497.596 370.003 497.596 369.927 497.867L365.428 504.637L360.93 497.867C360.854 497.596 360.778 497.596 360.691 497.325H360.632C359.986 496.241 359.093 495.429 357.92 494.887C356.78 494.345 355.515 494.075 354.286 494.075V494.075ZM353.839 497.325C354.571 497.325 355.329 497.596 356.014 497.867C356.243 497.867 356.449 498.137 356.639 498.137C356.772 498.408 356.883 498.408 356.996 498.679H357.086C357.147 498.679 357.21 498.95 357.265 498.95H357.354H357.384C357.427 499.22 357.495 499.221 357.533 499.221L360.691 504.096H354.375H354.018H353.869H353.571H353.422C353.248 504.096 353.086 504.096 352.915 503.825C352.673 503.825 352.43 503.825 352.2 503.554C351.744 503.554 351.337 503.012 351.038 502.741C350.143 501.658 350.01 500.304 350.8 498.95C351.458 498.137 352.618 497.325 353.839 497.325V497.325ZM377.044 497.325C378.266 497.325 379.425 498.137 380.083 498.95C380.874 500.304 380.711 501.658 379.815 502.741C379.517 503.012 379.141 503.554 378.683 503.554C378.455 503.825 378.212 503.825 377.968 503.825C377.8 504.096 377.605 504.096 377.432 504.096H377.283H376.985H376.836H376.478H370.165L373.32 499.221C373.358 499.221 373.426 499.22 373.469 498.95H373.499C373.507 498.95 373.494 498.95 373.499 498.95H373.589C373.643 498.95 373.708 498.679 373.767 498.679H373.857C373.97 498.408 374.111 498.408 374.244 498.137C374.436 498.137 374.642 497.867 374.87 497.867C375.555 497.596 376.313 497.325 377.044 497.325Z" fill="#C0392B"/>
<path d="M395.223 518.45H335.64V521.158H395.223V518.45Z" fill="#F39C12"/>
<path d="M373.556 518.45H357.306V521.158H373.556V518.45Z" fill="#C0392B"/>
<path d="M373.556 550.95H357.306V553.658H373.556V550.95Z" fill="#C0392B"/>
</g>
<g clip-path="url(#clip9)">
<path d="M1271.97 476.29L1164.29 378.172C1159.56 373.865 1152.44 373.865 1147.71 378.172L1040.03 476.29C1036.24 479.74 1034.99 485.056 1036.84 489.832C1038.69 494.608 1043.2 497.694 1048.32 497.694H1065.52V596C1065.52 599.898 1068.68 603.058 1072.58 603.058H1131.6C1135.5 603.058 1138.66 599.898 1138.66 596V536.312H1173.34V596.001C1173.34 599.898 1176.51 603.059 1180.4 603.059H1239.42C1243.32 603.059 1246.48 599.899 1246.48 596.001V497.694H1263.68C1268.8 497.694 1273.31 494.607 1275.16 489.832C1277.01 485.055 1275.76 479.74 1271.97 476.29Z" fill="white"/>
</g>
<defs>
<clipPath id="clip0">
<rect width="42.3948" height="42.3948" transform="matrix(1 0 0 -1 130.783 474.153)" fill="white"/>
</clipPath>
<clipPath id="clip1">
<rect x="65.6763" y="431.758" width="42.3948" height="42.3948" fill="white"/>
</clipPath>
<clipPath id="clip2">
<rect x="66.5986" y="375.145" width="37.8525" height="37.8525" fill="white"/>
</clipPath>
<clipPath id="clip3">
<rect x="199.397" y="517.508" width="45.423" height="45.423" transform="rotate(9.9478 199.397 517.508)" fill="white"/>
</clipPath>
<clipPath id="clip4">
<rect x="193.618" y="432.515" width="42.3948" height="42.3948" fill="white"/>
</clipPath>
<clipPath id="clip5">
<rect x="133.054" y="508.22" width="37.8525" height="37.8525" fill="white"/>
</clipPath>
<clipPath id="clip6">
<rect x="64.9194" y="494.593" width="43.9089" height="43.9089" fill="white"/>
</clipPath>
<clipPath id="clip7">
<rect x="937.931" y="491.367" width="65" height="65" fill="white"/>
</clipPath>
<clipPath id="clip8">
<rect x="332.931" y="491.367" width="65" height="65" fill="white"/>
</clipPath>
<clipPath id="clip9">
<rect x="1036" y="369" width="240" height="240" fill="white"/>
</clipPath>
</defs>
</svg>
