<svg width="500" height="500" viewBox="0 0 500 500" fill="none" xmlns="http://www.w3.org/2000/svg">
<g clip-path="url(#clip0)">
<path d="M133.526 208.331C119.981 211.275 112.297 228.829 116.364 247.539C120.431 266.249 134.708 279.03 148.253 276.086C161.798 273.142 169.482 255.588 165.415 236.877C161.348 218.167 147.071 205.387 133.526 208.331Z" fill="#E8BFA0"/>
<path d="M291.13 379.005V379.786C291.13 398.634 275.798 413.966 256.95 413.966H234.684C215.837 413.966 200.505 398.634 200.505 379.786V379.005C129.313 394.435 73.8441 441.798 59.0003 499.708C58.805 500.49 153.336 499.708 245.817 499.708C338.298 499.708 432.829 500.49 432.634 499.708C417.79 441.798 362.321 394.435 291.13 379.005Z" fill="#E6E6E6"/>
<path d="M348.525 272.086C362.07 275.03 376.347 262.249 380.414 243.539C384.481 224.829 376.797 207.275 363.252 204.331C349.707 201.387 335.43 214.168 331.363 232.878C327.296 251.588 334.98 269.142 348.525 272.086Z" fill="#E8BFA0"/>
<path d="M248.356 363.673C307.845 363.673 356.071 307.402 356.071 237.989C356.071 168.576 307.845 112.305 248.356 112.305C188.866 112.305 140.641 168.576 140.641 237.989C140.641 307.402 188.866 363.673 248.356 363.673Z" fill="#E8BFA0"/>
<path d="M190.506 154.399C190.506 154.399 231.139 160 249.722 160C268.305 160 305.5 154.399 305.5 154.399C312.866 152.781 321.128 157.417 326 165C331.277 173.214 326 190 326 190C326 190 335.236 198.753 338 205C342.216 214.53 344 231 344 231C344 231 347.162 207.585 353 205C354.472 204.348 357 204 357 204C357.879 191.82 358.309 159.309 357 150C353.636 126.077 346.698 110.829 331.5 97.5C307.882 76.7864 281.237 69 249.722 69C218.207 69 184.044 74.722 159 97.5C143.494 111.603 137.332 128.467 134 154.399C130.835 179.034 139 208 139 208C139 208 142.558 208.058 144 209.5C150 215.5 153 231 153 231C153 231 154.545 215.573 159 207C162.025 201.178 169 193.5 169 193.5C169 193.5 160.104 174.513 166 165C171.492 156.136 183.14 152.781 190.506 154.399Z" fill="black"/>
<path d="M208 217C213.5 217 218 222.1 218 228.3C218 234.6 213.5 239.6 208 239.6C202.5 239.6 198 234.5 198 228.3C198 222 202.5 217 208 217Z" fill="black"/>
<path d="M289 217C294.5 217 299 222.1 299 228.3C299 234.6 294.5 239.6 289 239.6C283.5 239.6 279 234.5 279 228.3C279 222 283.5 217 289 217Z" fill="black"/>
<path d="M200.602 379.884V379.005C129.411 394.435 73.9417 441.798 59.098 499.708C58.9026 500.49 152.751 499.708 245.036 499.708L209.196 402.443C203.825 396.486 200.602 388.575 200.602 379.884Z" fill="#49C6F2"/>
<path d="M291.228 379.884V379.005C362.419 394.435 417.888 441.798 432.732 499.708C432.927 500.49 339.079 499.708 246.794 499.708L282.536 402.443C288.005 396.486 291.228 388.575 291.228 379.884Z" fill="#49C6F2"/>
<path d="M244.5 347.5C228 347.5 204.5 353 204.5 353C204.5 353 226 364 245.5 364C271 365 292 353 292 353C292 353 263.21 347.5 244.5 347.5Z" fill="black" fill-opacity="0.08"/>
<path d="M246.882 294.091C272.28 292.658 311.762 308.616 293.196 309.846C290.088 310.051 285.228 309.846 285.228 309.846H246.882H215.01C215.01 309.846 209.538 310.193 206.046 309.846C189.574 308.209 227.46 294.091 246.882 294.091Z" fill="black" fill-opacity="0.1"/>
<path d="M153.999 300C141.083 273.702 148.166 243.667 152.5 227C158.5 293 188.072 307.833 202.739 308.5C202.739 308.5 197.673 321.717 198 330.5C198.351 339.91 205.239 353.5 205.239 353.5C195.905 347.667 170.943 334.5 153.999 300Z" fill="black" fill-opacity="0.03"/>
<path d="M343.24 300C356.156 273.702 349.073 243.667 344.739 227C338.739 293 312.167 308.333 297.5 309C297.5 309 300.552 321.148 300 329C299.325 338.61 292.5 352.5 292.5 352.5C301.833 346.667 326.296 334.5 343.24 300Z" fill="black" fill-opacity="0.03"/>
<path d="M85.8906 321.407C85.8906 319.474 87.4576 317.907 89.3906 317.907H400.681C402.614 317.907 404.181 319.474 404.181 321.407V495.002C404.181 496.935 402.613 498.502 400.681 498.502H89.3906C87.4576 498.502 85.8906 496.935 85.8906 495.002V321.407Z" fill="url(#paint0_linear)" stroke="#56585D" stroke-width="3"/>
<rect x="84.5" y="480" width="321" height="20" rx="5" fill="#4E4F54"/>
<circle cx="248" cy="410" r="48.5" stroke="black" stroke-width="5"/>
<path d="M242.743 427.61C242.743 429.196 242.183 430.573 241.063 431.74C239.99 432.86 238.473 433.42 236.513 433.42C234.553 433.42 231.123 433.28 226.223 433C221.323 432.72 217.543 432.58 214.883 432.58C213.81 430.993 213.273 429.336 213.273 427.61C213.273 425.836 213.997 423.993 215.443 422.08C216.89 420.12 218.64 418.3 220.693 416.62C222.747 414.893 224.777 413.166 226.783 411.44C228.837 409.713 230.587 407.8 232.033 405.7C233.48 403.6 234.203 401.616 234.203 399.75C234.203 397.836 233.69 396.273 232.663 395.06C231.637 393.846 230.237 393.24 228.463 393.24C226.69 393.24 225.22 393.73 224.053 394.71C223.12 396.11 222.653 397.72 222.653 399.54C222.653 401.313 222.793 402.69 223.073 403.67C222.14 403.903 221.37 404.02 220.763 404.02C218.897 404.02 217.31 403.506 216.003 402.48C214.743 401.406 214.113 399.983 214.113 398.21C214.113 394.803 215.7 392.026 218.873 389.88C222.047 387.733 225.57 386.66 229.443 386.66C233.317 386.66 236.513 387.71 239.033 389.81C241.553 391.863 242.813 394.71 242.813 398.35C242.813 400.496 242.137 402.666 240.783 404.86C239.43 407.053 237.797 409.083 235.883 410.95C233.97 412.77 232.033 414.566 230.073 416.34C225.453 420.493 223.143 423.993 223.143 426.84C230.47 426.746 236.723 425.58 241.903 423.34C242.463 424.6 242.743 426.023 242.743 427.61Z" fill="black"/>
<path d="M274.715 420.96C275.322 419.046 275.742 417.156 275.975 415.29C276.255 413.423 276.395 411.416 276.395 409.27C276.395 407.123 276.279 405.186 276.045 403.46C275.812 401.733 275.392 400.053 274.785 398.42C273.479 394.966 270.865 393.24 266.945 393.24C264.472 393.24 262.372 394.196 260.645 396.11C259.105 399.796 258.335 404.906 258.335 411.44C258.335 417.413 259.199 421.613 260.925 424.04C262.512 426.186 264.799 427.26 267.785 427.26C269.465 427.26 270.889 426.7 272.055 425.58C273.269 424.413 274.155 422.873 274.715 420.96ZM285.635 408.78C285.635 415.78 283.792 421.706 280.105 426.56C276.419 431.413 271.379 433.84 264.985 433.84C261.205 433.84 258.079 432.836 255.605 430.83C253.179 428.776 251.475 426.21 250.495 423.13C249.562 420.003 249.095 416.34 249.095 412.14C249.095 405.093 250.939 399.096 254.625 394.15C258.359 389.156 263.399 386.66 269.745 386.66C273.525 386.66 276.629 387.71 279.055 389.81C281.529 391.91 283.232 394.546 284.165 397.72C285.145 400.893 285.635 404.58 285.635 408.78Z" fill="black"/>
<path d="M230.798 158.558C222.487 137.265 215.753 90.7803 255.313 75.1819" stroke="#454141"/>
<path d="M243.799 157.47C235.21 137.052 227.84 92.6355 267.071 78.3207" stroke="#454141"/>
<path d="M255.798 157.383C247.209 136.964 239.839 92.5481 279.07 78.2333" stroke="#454141"/>
<path d="M269.798 157.281C261.014 137.525 253.184 94.6724 292.134 81.3144" stroke="#454141"/>
<path d="M280.797 157.201C271.767 138.28 263.357 97.4008 301.952 85.2499" stroke="#454141"/>
<path d="M291.8 156.437C282.292 139.142 272.754 102.101 310.658 92.2982" stroke="#454141"/>
<path d="M299.643 155.09C291.297 139.971 282.908 107.6 316.115 99.0666" stroke="#454141"/>
<path d="M309.002 154.068C301.396 140.842 293.606 112.604 323.294 105.457" stroke="#454141"/>
<path d="M318.02 155.808C310.235 143.191 302.023 116.39 331.453 110.122" stroke="#454141"/>
</g>
<defs>
<linearGradient id="paint0_linear" x1="84.3906" y1="408.204" x2="405.681" y2="408.204" gradientUnits="userSpaceOnUse">
<stop stop-color="#56585D"/>
<stop offset="1" stop-color="#707277"/>
</linearGradient>
<clipPath id="clip0">
<rect width="500" height="500" fill="white"/>
</clipPath>
</defs>
</svg>
