<svg width="500" height="500" viewBox="0 0 500 500" fill="none" xmlns="http://www.w3.org/2000/svg">
<g clip-path="url(#clip0)">
<path d="M248.356 363.673C307.845 363.673 356.071 307.402 356.071 237.989C356.071 168.576 307.845 112.305 248.356 112.305C188.866 112.305 140.641 168.576 140.641 237.989C140.641 307.402 188.866 363.673 248.356 363.673Z" fill="#F4C5A2"/>
<path d="M208 223C213.5 223 218 228.1 218 234.3C218 240.6 213.5 245.6 208 245.6C202.5 245.6 198 240.5 198 234.3C198 228 202.5 223 208 223Z" fill="#342214"/>
<path d="M289 223C294.5 223 299 228.1 299 234.3C299 240.6 294.5 245.6 289 245.6C283.5 245.6 279 240.5 279 234.3C279 228 283.5 223 289 223Z" fill="#342214"/>
<path d="M129.738 208.455C116.193 211.399 108.509 228.953 112.576 247.663C116.643 266.373 130.92 279.154 144.465 276.21C158.01 273.266 165.693 255.712 161.627 237.002C157.56 218.292 143.283 205.511 129.738 208.455Z" fill="#F4C5A2"/>
<path d="M351.645 274.008C365.19 276.952 379.467 264.171 383.534 245.461C387.601 226.751 379.917 209.197 366.372 206.253C352.827 203.309 338.55 216.09 334.483 234.8C330.416 253.51 338.1 271.064 351.645 274.008Z" fill="#F4C5A2"/>
<path d="M291.13 379.005V379.786C291.13 398.634 275.798 413.966 256.95 413.966H234.684C215.837 413.966 200.505 398.634 200.505 379.786V379.005C129.313 394.435 73.8441 441.798 59.0003 499.708C58.805 500.49 153.336 499.708 245.817 499.708C338.298 499.708 432.829 500.49 432.634 499.708C417.79 441.798 362.321 394.435 291.13 379.005Z" fill="#E6E6E6"/>
<path fill-rule="evenodd" clip-rule="evenodd" d="M336.644 316.539C353.5 294.168 357.345 226.391 357.5 224.5C359.677 201.892 344.696 154.742 334 138L287.154 122.168L247.154 122.168L206.654 122.168L163.154 128.837C163.154 128.837 113.907 141.44 124.654 212.168L126.216 221.127C130.125 250.06 131.481 254.592 134.932 266.132C136.724 272.123 139.081 280.003 142.654 294.168C146.78 315.713 161.653 338.227 180.654 351.168C203.104 366.458 230.722 370.259 244.644 370.259C258.659 370.259 280.782 366.327 300.154 354.047C316.313 343.803 330.55 325.962 336.644 316.539ZM169.824 155.399C156.142 171.877 145.064 210.798 140.43 229C138.615 241.315 141.058 257.86 147.654 274.668C155.758 295.317 165.654 308.168 180.654 323.168C183.76 326.894 187.035 330.075 190.517 332.888C192.382 327.146 199.313 312.971 201.154 310.668C203.154 308.168 210.654 302.668 218.154 300.168C225.654 297.668 265.654 298.668 277.654 300.168C286.739 301.304 291.812 305.878 296.127 309.77C297.512 311.018 298.818 312.197 300.154 313.168C302.46 314.845 304.409 318.472 305.814 322.408C306.5 321.676 307.199 320.929 307.911 320.168C326.958 299.801 329.467 294.42 336.644 274.668C340.384 264.377 342.173 253.029 343.256 246.165C343.4 245.249 343.532 244.412 343.654 243.668C344.421 239.008 345.154 231.668 345.154 231.668C346.424 194.461 307.911 161.551 307.911 161.551C252.54 130.79 169.824 155.399 169.824 155.399ZM290.517 337.585C292.423 332.895 293.654 328.198 293.654 325.168C293.654 318.668 286.154 312.168 282.154 310.668C280.134 310.209 278.423 309.806 276.938 309.456C270.335 307.902 268.189 307.396 263.154 307.668H241.154C236.354 306.868 226.154 307.335 221.654 307.668C215.654 308.668 210.154 310.668 205.154 320.668C201.154 334.168 209.154 343.335 210.154 344.168C210.996 344.665 211.072 344.976 210.777 345.199C212.84 346.195 214.964 347.178 217.154 348.168C221.362 350.071 225.588 351.32 229.623 352.168C229.633 352.168 229.644 352.168 229.654 352.168C230.137 351.981 230.735 351.781 231.408 351.557C234.923 350.385 240.476 348.533 242.154 344.168C244.154 338.968 242.28 336.543 239.154 334.168C229.893 327.129 234.356 328.874 238.917 330.658C240.512 331.281 242.118 331.909 243.154 332.168C243.875 332.348 244.449 332.512 244.936 332.651C247.153 333.284 247.555 333.398 251.654 332.168C253.07 331.744 254.783 331.033 256.368 330.375C260.944 328.476 264.452 327.02 256.654 334.168C250.654 339.668 253.654 344.168 253.654 344.168C253.654 344.168 257.154 348.168 263.154 351.168C263.592 351.387 264.456 351.749 264.456 351.749C268.654 352.168 273.405 351.177 276.938 349.668C284.654 345.199 285.654 344.168 290.517 337.585Z" fill="url(#paint0_linear)" stroke="black"/>
<path d="M200.602 379.884V379.005C129.411 394.435 73.9417 441.798 59.098 499.708C58.9026 500.49 152.751 499.708 245.036 499.708L209.196 402.442C203.825 396.485 200.602 388.575 200.602 379.884Z" fill="#49C6F2"/>
<path d="M291.228 379.884V379.005C362.419 394.435 417.888 441.798 432.732 499.708C432.927 500.49 339.079 499.708 246.794 499.708L282.536 402.442C288.005 396.485 291.228 388.575 291.228 379.884Z" fill="#49C6F2"/>
<path d="M315.152 98.7714C258.73 55.2592 171.552 81.2242 145.278 117.504C112.345 162.913 131.5 251.5 131.5 251.5L141.498 283L142.998 285.5C142.998 285.5 148.772 286.856 149.498 286.5C149.74 286.381 148.498 282.237 148.498 282C148.498 282 143.104 277.114 142.498 270C141.893 262.886 140.088 240.995 138.998 234C144.326 201.396 147.828 225.635 155.941 186.272C157.636 183.664 163.811 183.901 167.443 182.715C172.892 179.751 174.708 177.973 177.13 172.161C178.565 168.716 178.212 154.614 179.544 153.665C209.935 142.758 241.294 155.8 269.869 167.3C280.887 171.687 293.116 176.904 305.224 175.955C310.43 175.599 314.305 172.28 314.789 168.011C328.471 208.322 338.839 191.478 345.498 221C345.498 230.5 344.575 266.655 344.211 271.99C344.211 272.109 343.969 281.119 344.211 285.743C344.211 285.98 344.333 286.336 344.575 286.455C345.301 286.81 347.238 287.284 347.602 286.81C347.723 286.455 348.691 285.269 348.812 284.913C349.297 282.898 349.418 281.238 349.539 279.341C349.902 276.732 350.387 274.006 350.75 271.16C359.225 239.148 375.329 112.525 315.152 98.7714Z" fill="#231F20"/>
<path d="M89.3906 317.907H400.681C402.614 317.907 404.181 319.474 404.181 321.407V495.001C404.181 496.934 402.613 498.501 400.681 498.501H89.3906C87.4576 498.501 85.8906 496.934 85.8906 495.001V321.407C85.8906 319.474 87.4576 317.907 89.3906 317.907Z" fill="url(#paint1_linear)" stroke="#56585D" stroke-width="3"/>
<path d="M245.113 452.57L257.623 445.902C255.961 447.753 252.851 452.536 252.698 452.421C252.545 452.306 247.493 452.103 245.113 452.57Z" fill="#278AC8"/>
<path d="M244.817 452.57L232.307 445.902C233.969 447.753 237.079 452.536 237.232 452.421C237.385 452.306 242.437 452.103 244.817 452.57Z" fill="#278AC8"/>
<path d="M268.39 432.497L283.033 385.751C283.427 394.341 284.052 411.541 283.396 411.629C282.741 411.717 273.119 425.578 268.39 432.497Z" fill="#278AC8"/>
<path d="M221.527 432.497L206.884 385.751C206.489 394.341 205.864 411.541 206.52 411.629C207.175 411.717 216.798 425.578 221.527 432.497Z" fill="#278AC8"/>
<path d="M263.606 401.879L281.4 386.911L266.602 434.447L258.334 444.685L245.153 451.69L249.886 439.417C261.15 438.459 263.726 430.676 263.606 426.904V401.879Z" fill="#1D458E"/>
<path d="M226.296 401.879L208.458 386.911L223.293 434.447L231.581 444.685L244.795 451.69L240.05 439.417C228.759 438.459 226.176 430.676 226.296 426.904V401.879Z" fill="#1D458E"/>
<path d="M244.916 363.333L216.833 391.288L231.216 402.931L244.958 448.75L259.846 402.931L273 391.288L244.916 363.333Z" fill="#42AFF4"/>
<path fill-rule="evenodd" clip-rule="evenodd" d="M260.145 435.091L260.48 434.723C262.165 432.788 262.822 431.174 262.822 428.601L262.841 402.53C262.819 397.783 263.69 393.387 256.518 391.42C252.896 390.426 246.884 390.087 243.328 391.86C242.541 392.252 242.863 392.047 242.333 392.417C241.97 391.713 242.332 387.631 242.333 386.5C242.336 385.001 241.917 383.083 242.737 382.058C243.557 381.033 246.467 381.333 246.625 383.375C246.765 385.175 246.294 388.263 246.625 389.8H262.606C263.017 387.254 262.609 381.11 262.606 378.333C261.986 369.183 249.292 367.542 242.737 367.542C237.676 367.967 232.167 369.458 228.417 373.958C226.948 376.513 227.04 380.465 227.042 383.375L227.208 424.833C227.204 428.113 226.77 430.781 228.833 433.61C234.078 440.801 251.689 442.403 260.145 435.091Z" fill="white"/>
<path fill-rule="evenodd" clip-rule="evenodd" d="M243.73 420.437L243.449 420.864C242.931 422.057 243.711 430.132 243.265 432.173C242.483 433.061 241.616 432.753 240.733 433.089C239.957 433.384 239.923 433.993 238.207 432.912L238.2 432.502L237.634 432.496C237.629 431.975 237.515 432.35 237.802 432.12C237.904 431.584 238.127 431.391 238.189 430.831L238.184 409.275C238.028 408.405 237.805 409.165 237.799 408.162C238.004 407.629 237.911 408.13 238.168 407.584C238.421 407.048 238.16 406.802 239.739 406.529C240.719 406.359 242.08 406.225 243.038 406.386C244.057 408.144 244.503 408.179 246.612 407.561C248.407 407.034 254.371 404.687 254.843 406.807C254.981 407.423 254.91 411.263 254.805 411.976C253.24 412.319 249.897 412.893 248.6 413.425C247.193 414.002 247.525 414.708 247.527 416.09C247.528 417.082 247.751 418.952 247.416 419.774C246.045 420.181 245.449 419.669 243.73 420.437ZM259.357 434.522L259.679 434.163C261.301 432.275 261.934 430.7 261.934 428.188L261.952 402.741C261.931 398.108 262.77 393.818 255.864 391.897C252.377 390.927 246.589 390.841 243.165 392.571C242.408 392.954 242.441 393.157 241.931 393.518C241.582 392.831 241.798 388.271 241.799 387.168C241.801 385.705 241.314 382.266 242.596 381.437C243.814 380.65 246.917 380.722 247.07 382.715C247.204 384.471 246.83 387.684 247.149 389.183L261.804 389.191C262.2 386.707 261.943 381.941 261.94 379.231C261.928 370.243 249.405 367.879 242.415 368.475C237.542 368.89 231.342 370.55 228.752 375.117C227.338 377.611 227.737 381.407 227.738 384.248L227.754 424.85C227.75 428.051 227.332 430.656 229.318 433.417C234.367 440.436 251.215 441.66 259.357 434.522Z" fill="black"/>
<path fill-rule="evenodd" clip-rule="evenodd" d="M246.794 415.379C245.768 414.98 244.668 414.617 243.653 415.588C243.134 416.086 243.244 418.639 243.402 419.358C244.133 419.644 246.366 419.631 247.057 419.248C247.326 418.632 247.181 416.729 247.186 415.949C247.194 414.805 247.238 413.767 245.686 414.02C246.049 414.6 246.611 414.397 246.794 415.379ZM238.199 432.502C237.713 432.186 237.914 432.551 237.801 432.12C237.575 432.302 237.556 432.067 237.578 432.232C237.584 432.276 237.559 432.409 237.633 432.496L237.86 432.515L238.199 432.502Z" fill="black"/>
<rect x="84.5" y="480" width="321" height="20" rx="5" fill="#4E4F54"/>
</g>
<defs>
<linearGradient id="paint0_linear" x1="243.651" y1="0.000145623" x2="243.651" y2="363.591" gradientUnits="userSpaceOnUse">
<stop stop-color="#241D1D"/>
<stop offset="1" stop-color="#241D1D" stop-opacity="0.88"/>
</linearGradient>
<linearGradient id="paint1_linear" x1="84.3906" y1="408.204" x2="405.681" y2="408.204" gradientUnits="userSpaceOnUse">
<stop stop-color="#56585D"/>
<stop offset="1" stop-color="#707277"/>
</linearGradient>
<clipPath id="clip0">
<rect width="500" height="500" fill="white"/>
</clipPath>
</defs>
</svg>
