<svg width="70" height="70" viewBox="0 0 70 70" fill="none" xmlns="http://www.w3.org/2000/svg">
<path d="M36.5 35.4999C29.7 32.6999 22.6667 35.9999 20 37.9999C20 37.9999 20.9845 41.9636 22.5 44C24.6016 46.824 26.7263 47.7062 30 49C34.5544 50.8 37.727 51.0955 42.5 50C46.844 49.0029 49.4744 47.7726 52.5 44.5C55.1676 41.6146 57 35.4999 57 35.4999C53 36.6666 43.3 38.2999 36.5 35.4999Z" fill="#FF0000"/>
<path d="M6.5 29H16C16.5523 29 16.9975 29.4485 17.0234 30.0002C17.5454 41.1337 26.7373 50 38 50C49.2627 50 58.4546 41.1337 58.9766 30.0002C59.0025 29.4485 58.5523 29 58 29H50" stroke="white" stroke-width="5"/>
<path d="M48.509 11.2286C49.095 11.2244 49.6425 11.3084 50.1515 11.4805C50.6607 11.6722 51.1021 11.9425 51.4757 12.2914C51.8688 12.6401 52.1747 13.0774 52.3933 13.6032C52.6119 14.129 52.7237 14.7435 52.7287 15.4466C52.7338 16.1497 52.6307 16.7657 52.4197 17.2945C52.2087 17.8429 51.9092 18.2943 51.5211 18.6486C51.1527 19.0224 50.7152 19.2989 50.2086 19.4783C49.7022 19.6773 49.1561 19.7788 48.5702 19.783C48.0038 19.7871 47.466 19.6933 46.9568 19.5016C46.4672 19.3293 46.0356 19.0589 45.6619 18.6905C45.2883 18.3416 44.9921 17.8945 44.7734 17.3491C44.5743 16.8232 44.4723 16.2087 44.4672 15.5056C44.4622 14.8025 44.5555 14.1866 44.747 13.6578C44.9581 13.129 45.2479 12.6874 45.6165 12.3332C45.985 11.979 46.4128 11.7025 46.8996 11.5037C47.4062 11.3243 47.9427 11.2326 48.509 11.2286ZM20.6396 18.4005C19.7217 18.407 18.7639 18.2967 17.7661 18.0694C16.749 17.8618 15.7505 17.5369 14.7708 17.0947C13.7717 16.6721 12.8206 16.1516 11.9178 15.533C11.4009 15.1789 10.9158 14.7926 10.4625 14.374C9.85118 13.8095 9.7611 12.8974 10.1556 12.1649L10.2734 11.9462C10.8346 10.9043 12.1692 10.5901 13.2411 11.0918C14.0353 11.4636 14.8553 11.7533 15.7009 11.961C17.2467 12.3406 18.8496 12.5244 20.5097 12.5126L24.7537 12.4822C25.306 12.4783 25.7569 12.9228 25.7608 13.4751L25.7886 17.3637C25.7926 17.9159 25.3481 18.3668 24.7958 18.3708L20.6396 18.4005Z" fill="white"/>
<circle cx="27.5" cy="57" r="4" fill="white"/>
<circle cx="47.5" cy="57" r="4" fill="white"/>
<path d="M28.5131 38.3674C28.5131 38.3674 30.0835 40.0155 31.3091 40.7716C32.3199 41.3953 34.0822 42.0206 34.0822 42.0206" stroke="white" stroke-width="2" stroke-linecap="round" stroke-linejoin="round"/>
<path d="M9 29C9 30.3807 7.92685 31.5 6.54614 31.5C5.16543 31.5 4 30.3807 4 29C4 27.6193 5.11929 26.5 6.5 26.5C7.88071 26.5 9 27.6193 9 29Z" fill="white"/>
<path d="M52.5 29C52.5 30.3807 51.4269 31.5 50.0461 31.5C48.6654 31.5 47.5 30.3807 47.5 29C47.5 27.6193 48.6193 26.5 50 26.5C51.3807 26.5 52.5 27.6193 52.5 29Z" fill="white"/>
</svg>
