<?xml version="1.0" standalone="no"?>
<!DOCTYPE svg PUBLIC "-//W3C//DTD SVG 20010904//EN"
 "http://www.w3.org/TR/2001/REC-SVG-20010904/DTD/svg10.dtd">
<svg version="1.0" xmlns="http://www.w3.org/2000/svg"
 width="700.000000pt" height="700.000000pt" viewBox="0 0 700.000000 700.000000"
 preserveAspectRatio="xMidYMid meet">
<metadata>
Created by potrace 1.11, written by Peter Selinger 2001-2013
</metadata>
<g transform="translate(0.000000,700.000000) scale(0.100000,-0.100000)"
fill="#000000" stroke="none">
<path d="M1185 5910 c-110 -17 -188 -108 -189 -220 -1 -69 25 -109 114 -181
194 -155 488 -289 715 -326 17 -3 50 -8 75 -13 63 -12 569 -11 606 1 68 21 69
26 70 278 1 246 -4 270 -55 290 -15 6 -177 12 -371 14 -190 2 -354 7 -365 10
-11 2 -40 8 -65 11 -89 12 -253 57 -338 92 -102 43 -142 52 -197 44z"/>
<path d="M4762 5869 c-106 -19 -224 -105 -270 -195 -27 -54 -44 -140 -43 -228
1 -251 149 -413 385 -421 176 -6 327 76 392 212 31 67 34 78 43 171 20 213
-83 386 -267 446 -58 20 -174 27 -240 15z"/>
<path d="M578 4340 c-132 -41 -204 -177 -165 -311 20 -68 68 -121 138 -154
l54 -25 428 0 c333 0 429 -3 432 -12 2 -7 6 -37 9 -65 10 -98 50 -272 95 -408
144 -447 441 -860 827 -1148 281 -212 679 -382 1009 -433 28 -4 57 -9 65 -10
61 -12 182 -19 340 -19 163 1 235 5 330 20 14 3 43 7 65 10 22 3 48 8 57 11
10 3 30 7 45 10 197 35 499 156 711 286 81 49 175 113 193 130 8 7 40 33 72
57 58 44 223 202 282 271 25 28 118 146 163 205 6 8 79 126 129 210 85 140
205 456 238 625 33 168 43 246 50 389 7 158 -76 287 -223 347 -55 22 -61 23
-504 24 -288 0 -462 -3 -488 -10 -131 -35 -213 -196 -164 -321 27 -69 61 -106
127 -139 l60 -30 340 0 339 0 -7 -52 c-10 -73 -59 -261 -87 -332 -23 -58 -26
-60 -72 -72 -27 -7 -65 -15 -85 -18 -20 -2 -43 -7 -51 -10 -8 -3 -33 -7 -55
-10 -22 -3 -49 -7 -60 -10 -11 -2 -45 -7 -75 -11 -30 -3 -66 -8 -80 -10 -14
-2 -63 -7 -110 -11 -47 -3 -98 -8 -115 -10 -108 -12 -536 -4 -635 11 -14 2
-45 7 -69 10 -139 17 -337 69 -496 130 -192 73 -355 102 -561 100 -115 -2
-229 -13 -314 -30 -175 -36 -327 -88 -489 -167 -69 -34 -128 -63 -131 -65 -16
-10 -123 288 -146 407 -3 14 -7 32 -9 40 -7 23 -22 133 -30 225 -10 106 -15
129 -39 180 -36 76 -88 130 -164 167 l-67 33 -540 2 c-297 1 -552 -2 -567 -7z"/>
<path d="M2642 1684 c-204 -54 -334 -279 -279 -484 65 -242 340 -368 562 -257
135 67 217 195 222 347 6 218 -160 399 -376 406 -42 1 -99 -4 -129 -12z"/>
<path d="M4650 1687 c-122 -35 -209 -109 -260 -219 -28 -60 -35 -86 -36 -148
-5 -175 77 -309 235 -384 60 -28 75 -31 161 -31 82 1 103 5 154 28 163 75 255
224 243 391 -11 155 -92 272 -234 338 -75 35 -190 46 -263 25z"/>
</g>
</svg>
