<svg width="50" height="50" viewBox="0 0 50 50" fill="none" xmlns="http://www.w3.org/2000/svg">
<path d="M50 25C50 11.1929 38.8071 0 25 0C11.1929 0 0 11.1929 0 25C0 38.8071 11.1929 50 25 50C38.8071 50 50 38.8071 50 25Z" fill="#007BFF"/>
<path d="M30.985 11.9951C27.4379 12.0849 24.5925 14.9882 24.5925 18.5576C24.5925 19.0714 24.6476 19.5737 24.76 20.055C19.3034 19.7809 14.4657 17.1673 11.2275 13.1951C10.6624 14.1642 10.3375 15.2932 10.3375 16.4975C10.3375 18.775 11.4983 20.783 13.26 21.96C12.1843 21.9256 11.1704 21.6293 10.285 21.1375C10.2845 21.1648 10.285 21.1946 10.285 21.2225C10.285 24.4029 12.5488 27.0534 15.5525 27.6576C15.0016 27.807 14.4214 27.8875 13.8225 27.8875C13.399 27.8875 12.9883 27.8474 12.5875 27.7701C13.4235 30.3782 15.845 32.2774 18.7175 32.33C16.4706 34.0911 13.644 35.1401 10.5675 35.1401C10.0381 35.1401 9.51382 35.1111 9 35.05C11.9063 36.9137 15.3553 38 19.0625 38C31.1391 38 37.7425 27.996 37.7425 19.3201C37.7425 19.0355 37.7373 18.7495 37.725 18.4675C39.0073 17.5438 40.1205 16.3868 41 15.0701C39.8236 15.593 38.5584 15.9472 37.23 16.105C38.5863 15.2931 39.6271 14.0069 40.1175 12.4725C38.8488 13.2254 37.4435 13.7726 35.9475 14.0675C34.7503 12.7918 33.0434 11.9951 31.155 11.9951C31.0984 11.9951 31.0413 11.9936 30.985 11.9951V11.9951Z" fill="white"/>
</svg>
