<svg width="500" height="500" viewBox="0 0 500 500" fill="none" xmlns="http://www.w3.org/2000/svg">
<g clip-path="url(#clip0)">
<path d="M135.737 208.455C122.192 211.399 114.509 228.953 118.575 247.664C122.642 266.374 136.919 279.154 150.464 276.21C164.009 273.266 171.693 255.712 167.626 237.002C163.56 218.292 149.282 205.511 135.737 208.455Z" fill="#F4C5A2"/>
<path d="M291.13 379.005V379.786C291.13 398.634 275.798 413.966 256.95 413.966H234.684C215.837 413.966 200.505 398.634 200.505 379.786V379.005C129.313 394.435 73.8441 441.798 59.0003 499.709C58.805 500.49 153.336 499.709 245.817 499.709C338.298 499.709 432.829 500.49 432.634 499.709C417.79 441.798 362.321 394.435 291.13 379.005Z" fill="#E6E6E6"/>
<path d="M343.645 271.008C357.19 273.952 371.467 261.171 375.534 242.461C379.601 223.751 371.917 206.197 358.372 203.253C344.827 200.309 330.55 213.09 326.483 231.8C322.416 250.51 330.1 268.064 343.645 271.008Z" fill="#F4C5A2"/>
<path d="M248.356 363.673C307.846 363.673 356.071 307.402 356.071 237.989C356.071 168.576 307.846 112.305 248.356 112.305C188.867 112.305 140.641 168.576 140.641 237.989C140.641 307.402 188.867 363.673 248.356 363.673Z" fill="#F4C5A2"/>
<path d="M208 222C213.5 222 218 227.1 218 233.3C218 239.6 213.5 244.6 208 244.6C202.5 244.6 198 239.5 198 233.3C198 227 202.5 222 208 222Z" fill="#342214"/>
<path d="M289 222C294.5 222 299 227.1 299 233.3C299 239.6 294.5 244.6 289 244.6C283.5 244.6 279 239.5 279 233.3C279 227 283.5 222 289 222Z" fill="#342214"/>
<path d="M167 121C147.94 145.598 139.983 179.385 140.5 209.5L143 210.5C143.165 214.142 143.688 217.324 143.99 221.047C143.977 221.551 143.962 222.092 143.946 222.668C143.685 231.993 143.174 250.256 146 262.5C149 275.5 152 275 152 275C152.374 272.068 152.413 267.546 152.454 262.922C152.505 257.139 152.557 251.195 153.266 248C159.329 220.658 169.878 202.603 180.911 191C182.246 189.596 182.404 190.795 182.572 192.07C182.699 193.043 182.833 194.061 183.5 194C187.198 193.664 189.578 188.202 191.276 184.306C192.104 182.408 192.769 180.881 193.346 180.5C212.728 167.701 228.844 172.15 218.773 177.61C203.173 186.11 229.573 187.71 252.573 177.71C259.014 174.869 264.672 172.075 269.215 169.832C280.824 164.101 285.153 161.963 276.673 171.81C264.973 185.61 295.173 191.11 320.673 175.41C322.64 177.534 326.014 182.874 328.821 187.32C330.3 189.662 331.622 191.755 332.5 193C334.808 196.273 325 195.5 317.5 193C320.805 200.931 329.238 205.75 334.941 209.008C337.866 210.68 340.073 211.94 340.5 213C346.901 228.881 348.904 240.105 347.973 264.21C346.373 305.61 355.279 254 355.279 254C355.279 254 354.755 235.248 355.279 225.989C356.699 217.849 357.689 215.925 358.5 206H364C363.731 173.214 350.938 112.474 320.673 106C318.438 104.39 330.5 105.497 337 106.5C331.321 100.821 318.514 98.5353 310.287 97.0669C306.924 96.4667 304.326 96.003 303.293 95.5C300.032 93.9128 300 91 311 88.4515C303.034 87.9101 296.316 88.2347 291.387 88.4729C287.654 88.6533 284.947 88.7842 283.5 88.4515C270.106 85.3722 256.257 85.4614 241 88C240.821 88.0298 240.08 87.8809 238.907 87.6451C234.69 86.7973 224.888 84.8265 215.5 86C215.5 86 227.172 89.4498 226 89.695C224.574 89.9933 223.159 90.3114 221.756 90.6486C221.48 90.715 220.33 90.5603 218.729 90.3451C214.241 89.7416 206.212 88.6619 204 90.6486C204 90.6486 214.17 92.6717 212 93.3582C192.219 99.6171 175.792 109.648 167 121Z" fill="#4A301C"/>
<path d="M200.602 379.884V379.005C129.411 394.435 73.9417 441.798 59.098 499.709C58.9026 500.49 152.751 499.709 245.036 499.709L209.196 402.443C203.825 396.486 200.602 388.575 200.602 379.884Z" fill="#49C6F2"/>
<path d="M291.228 379.884V379.005C362.419 394.435 417.888 441.798 432.732 499.709C432.927 500.49 339.079 499.709 246.794 499.709L282.536 402.443C288.005 396.486 291.228 388.575 291.228 379.884Z" fill="#49C6F2"/>
<path d="M89.3906 317.907H400.681C402.614 317.907 404.181 319.474 404.181 321.407V495.002C404.181 496.935 402.613 498.502 400.681 498.502H89.3906C87.4576 498.502 85.8906 496.935 85.8906 495.002V321.407C85.8906 319.474 87.4576 317.907 89.3906 317.907Z" fill="url(#paint0_linear)" stroke="#56585D" stroke-width="3"/>
<path d="M245.113 452.57L257.623 445.902C255.961 447.753 252.851 452.536 252.698 452.421C252.545 452.306 247.493 452.103 245.113 452.57Z" fill="#278AC8"/>
<path d="M244.816 452.57L232.306 445.902C233.969 447.753 237.079 452.536 237.232 452.421C237.385 452.306 242.436 452.103 244.816 452.57Z" fill="#278AC8"/>
<path d="M268.39 432.497L283.033 385.751C283.428 394.341 284.053 411.541 283.397 411.629C282.741 411.717 273.119 425.578 268.39 432.497Z" fill="#278AC8"/>
<path d="M221.527 432.497L206.884 385.751C206.489 394.341 205.864 411.541 206.52 411.629C207.175 411.717 216.798 425.578 221.527 432.497Z" fill="#278AC8"/>
<path d="M263.607 401.879L281.401 386.911L266.602 434.447L258.335 444.685L245.154 451.69L249.887 439.417C261.15 438.459 263.727 430.676 263.607 426.904V401.879Z" fill="#1D458E"/>
<path d="M226.296 401.879L208.458 386.911L223.293 434.447L231.581 444.685L244.795 451.69L240.05 439.417C228.759 438.459 226.176 430.676 226.296 426.904V401.879Z" fill="#1D458E"/>
<path d="M244.916 363.333L216.833 391.288L231.216 402.931L244.958 448.75L259.846 402.931L273 391.288L244.916 363.333Z" fill="#42AFF4"/>
<path fill-rule="evenodd" clip-rule="evenodd" d="M260.145 435.091L260.48 434.723C262.165 432.788 262.822 431.174 262.822 428.601L262.841 402.53C262.819 397.783 263.69 393.387 256.518 391.42C252.896 390.426 246.884 390.087 243.328 391.86C242.541 392.252 242.863 392.047 242.333 392.417C241.97 391.713 242.332 387.631 242.333 386.5C242.336 385.001 241.917 383.083 242.737 382.058C243.557 381.033 246.467 381.333 246.625 383.375C246.765 385.175 246.294 388.263 246.625 389.8H262.606C263.017 387.254 262.609 381.11 262.606 378.333C261.986 369.183 249.292 367.542 242.737 367.542C237.676 367.967 232.167 369.458 228.417 373.958C226.948 376.513 227.04 380.465 227.042 383.375L227.208 424.833C227.204 428.113 226.77 430.781 228.833 433.61C234.078 440.801 251.689 442.403 260.145 435.091Z" fill="white"/>
<path fill-rule="evenodd" clip-rule="evenodd" d="M243.73 420.437L243.448 420.864C242.931 422.057 243.71 430.132 243.264 432.173C242.482 433.061 241.616 432.753 240.732 433.089C239.957 433.384 239.922 433.993 238.207 432.912L238.199 432.502L237.634 432.496C237.628 431.975 237.515 432.35 237.801 432.12C237.904 431.584 238.126 431.391 238.189 430.831L238.183 409.275C238.027 408.405 237.804 409.165 237.798 408.162C238.004 407.629 237.91 408.13 238.167 407.584C238.42 407.048 238.159 406.802 239.739 406.529C240.719 406.359 242.079 406.225 243.037 406.386C244.056 408.144 244.503 408.179 246.611 407.561C248.407 407.034 254.37 404.687 254.843 406.807C254.981 407.423 254.909 411.263 254.805 411.976C253.239 412.319 249.897 412.893 248.599 413.425C247.192 414.002 247.524 414.708 247.526 416.09C247.527 417.082 247.751 418.952 247.416 419.774C246.045 420.181 245.448 419.669 243.73 420.437ZM259.356 434.522L259.678 434.163C261.301 432.275 261.933 430.7 261.933 428.188L261.951 402.741C261.93 398.108 262.769 393.818 255.864 391.897C252.376 390.927 246.588 390.841 243.165 392.571C242.407 392.954 242.441 393.157 241.93 393.518C241.581 392.831 241.797 388.271 241.799 387.168C241.801 385.705 241.314 382.266 242.596 381.437C243.813 380.65 246.917 380.722 247.069 382.715C247.204 384.471 246.829 387.684 247.148 389.183L261.804 389.191C262.2 386.707 261.942 381.941 261.939 379.231C261.928 370.243 249.405 367.879 242.414 368.475C237.542 368.89 231.342 370.55 228.752 375.117C227.337 377.611 227.737 381.407 227.738 384.248L227.753 424.85C227.75 428.051 227.331 430.656 229.317 433.417C234.367 440.436 251.214 441.66 259.356 434.522Z" fill="black"/>
<path fill-rule="evenodd" clip-rule="evenodd" d="M246.794 415.379C245.768 414.98 244.669 414.617 243.654 415.588C243.134 416.086 243.245 418.639 243.402 419.358C244.133 419.644 246.366 419.631 247.057 419.248C247.327 418.632 247.181 416.729 247.187 415.949C247.195 414.805 247.238 413.767 245.686 414.02C246.05 414.6 246.612 414.397 246.794 415.379ZM238.199 432.502C237.713 432.186 237.915 432.551 237.801 432.12C237.575 432.302 237.557 432.067 237.579 432.232C237.585 432.276 237.56 432.409 237.634 432.496L237.86 432.515L238.199 432.502Z" fill="black"/>
<rect x="84.5" y="480" width="321" height="20" rx="5" fill="#4E4F54"/>
</g>
<defs>
<linearGradient id="paint0_linear" x1="84.3906" y1="408.205" x2="405.681" y2="408.205" gradientUnits="userSpaceOnUse">
<stop stop-color="#56585D"/>
<stop offset="1" stop-color="#707277"/>
</linearGradient>
<clipPath id="clip0">
<rect width="500" height="500" fill="white"/>
</clipPath>
</defs>
</svg>
