<svg width="50" height="50" viewBox="0 0 50 50" fill="none" xmlns="http://www.w3.org/2000/svg">
<circle cx="25" cy="25" r="25" fill="#007BFF"/>
<path d="M38.4194 11.6452C36.7419 9.90323 34.3548 9 31.6452 9H18.3548C12.7419 9 9 12.7419 9 18.3548V31.5806C9 34.3548 9.90323 36.7419 11.7097 38.4839C13.4516 40.1613 15.7742 41 18.4194 41H31.5806C34.3548 41 36.6774 40.0968 38.3548 38.4839C40.0968 36.8065 41 34.4194 41 31.6452V18.3548C41 15.6452 40.0968 13.3226 38.4194 11.6452Z" fill="white"/>
<path d="M24.9998 16.6775C20.4836 16.6775 16.7417 20.3549 16.7417 24.9355C16.7417 29.5162 20.4191 33.1936 24.9998 33.1936C29.5804 33.1936 33.2578 29.4516 33.2578 24.9355C33.2578 20.4194 29.5159 16.6775 24.9998 16.6775ZM24.9998 30.2258C22.0965 30.2258 19.7094 27.8387 19.7094 24.9355C19.7094 22.0323 22.0965 19.6452 24.9998 19.6452C27.903 19.6452 30.2901 22.0323 30.2901 24.9355C30.2901 27.8387 27.903 30.2258 24.9998 30.2258Z" fill="#007BFF" stroke="#007BFF" stroke-width="2"/>
<path d="M34.871 16.7419C35.9043 16.7419 36.7419 15.9043 36.7419 14.871C36.7419 13.8377 35.9043 13 34.871 13C33.8377 13 33 13.8377 33 14.871C33 15.9043 33.8377 16.7419 34.871 16.7419Z" fill="#007BFF" stroke="#007BFF"/>
</svg>
